<svg xmlns="http://www.w3.org/2000/svg" version="1.1" xmlns:xlink="http://www.w3.org/1999/xlink" xmlns:svgjs="http://svgjs.com/svgjs" width="70" height="70"><svg width="70" height="70" viewBox="0 0 70 70" fill="none" xmlns="http://www.w3.org/2000/svg">
<circle cx="35" cy="35" r="34.5" fill="#F9E13F" stroke="black"></circle>
<mask id="SvgjsMask1000" fill="white">
<path d="M50.9443 31.2874C50.9367 30.2053 50.9276 28.942 50.9184 27.7608C50.9108 26.7197 50.9032 25.7487 50.8971 25.0181C50.8941 24.6528 50.8909 24.3484 50.8879 24.1247C50.8849 24.0135 50.8833 23.9223 50.8818 23.8522L50.8788 23.7578C50.8772 23.7259 50.8788 23.7121 50.8726 23.6421V23.6391C50.7478 22.531 50.5469 20.4032 49.0218 18.5372C48.2593 17.6056 47.1694 16.7686 45.6961 16.1871C45.0248 15.9238 44.2715 15.7123 43.4359 15.557C43.9701 14.7001 44.2852 13.694 44.2852 12.6103C44.2852 9.51136 41.7738 7 38.6749 7C37.0478 7 35.5913 7.70321 34.5669 8.81126C33.5427 7.70029 32.0785 7.0001 30.4469 7.0001C27.3511 7.0001 24.8396 9.51145 24.8396 12.6104C24.8396 13.6971 25.1592 14.7063 25.695 15.5662C24.6386 15.758 23.7026 16.0351 22.9066 16.4004C20.899 17.3136 19.7088 18.7474 19.0786 20.1325C18.4424 21.5114 18.3099 22.8356 18.2217 23.6393V23.6423C18.2141 23.7215 18.2156 23.7337 18.2125 23.7732C18.2049 24.0198 18.1988 24.7382 18.1912 25.7336C18.179 27.2191 18.1668 29.2678 18.1577 30.9513C18.1577 31.073 18.1577 31.1887 18.1577 31.3074C14.3587 34.5403 9.78336 37.904 9.62964 43.2768C9.45177 49.6053 14.4121 54.0223 20.2249 54.7437C25.2339 55.3677 28.689 55.5535 34.5626 55.5535C40.4346 55.5535 43.8897 55.3678 48.9003 54.7437C54.7115 54.0223 59.6734 49.6053 59.4954 43.2766C59.3414 37.8916 54.7464 34.5279 50.9443 31.2874ZM48.6414 23.8766V23.8796L48.6399 23.8766H48.6414ZM35.8959 13.9254C35.9324 13.7747 35.9598 13.6332 35.9811 13.4993L35.9827 13.4931L35.9888 13.4536C35.9964 13.3957 36.0071 13.341 36.0147 13.2831V13.277C36.0391 13.07 36.0588 12.8478 36.0588 12.6103C36.0588 12.4125 36.0467 12.2176 36.0269 12.0258L36.0253 11.9985L36.0086 11.901C35.9903 11.7519 35.9705 11.6058 35.9385 11.4611C35.9385 11.4611 35.9385 11.4566 35.9385 11.455L35.9309 11.42L35.9112 11.35C35.8762 11.1993 35.8381 11.0486 35.7924 10.9055C35.7909 10.9025 35.7909 10.9025 35.7909 10.9025L35.7893 10.8903C36.3753 9.90402 37.4453 9.24192 38.6751 9.24348C39.6081 9.24348 40.4437 9.61792 41.0571 10.2298C41.6659 10.8416 42.0418 11.6757 42.0434 12.6103C42.0434 13.7032 41.5182 14.6621 40.707 15.2799C40.4832 15.2738 40.258 15.2678 40.0267 15.2678H36.6371C36.2946 15.0059 36.0039 14.6849 35.7847 14.315C35.7985 14.2693 35.8152 14.2267 35.8304 14.1765C35.832 14.1689 35.8334 14.1627 35.835 14.1537C35.8548 14.0836 35.8745 14.0136 35.8928 13.9405C35.8959 13.9314 35.8959 13.9253 35.899 13.9162L35.8959 13.9254ZM39.2444 44.0712C38.9338 44.6526 38.5062 45.1397 37.9658 45.5369C37.424 45.9342 36.7741 46.231 36.0192 46.4242C35.6889 46.5095 35.3433 46.5673 34.9918 46.613V48.8139H32.3677V46.6587C31.622 46.5948 30.9066 46.4791 30.2353 46.2934C29.2079 46.0133 27.8625 44.8779 27.8625 44.8779C27.7483 44.8109 27.6707 44.6923 27.6555 44.5613C27.6387 44.429 27.6828 44.2965 27.7772 44.2021L29.0923 42.887C29.2338 42.747 29.4546 42.7196 29.625 42.8246C29.625 42.8246 30.6083 43.6785 31.3541 43.8824C32.0999 44.0833 32.8396 44.1868 33.5763 44.1868C34.5079 44.1868 35.278 44.0224 35.8868 43.6936C36.4986 43.3633 36.8031 42.8504 36.8031 42.1502C36.8031 41.648 36.6539 41.2507 36.3525 40.9599C36.0511 40.6707 35.5427 40.4881 34.8275 40.409L32.4713 40.205C31.077 40.0681 30.0025 39.6814 29.2476 39.0421C28.4896 38.4028 28.1121 37.4348 28.1121 36.138C28.1121 35.4196 28.2582 34.7788 28.5489 34.2172C28.8396 33.657 29.2369 33.1822 29.7407 32.7925C30.2445 32.4059 30.8305 32.1167 31.4986 31.9219C31.7787 31.8427 32.0709 31.7879 32.3677 31.7392V29.8457H34.9918V31.6996C35.6052 31.7604 36.1881 31.8609 36.73 32.0101C37.6508 32.2598 38.6173 33.0147 38.6173 33.0147C38.7375 33.0786 38.8213 33.1974 38.8411 33.3297C38.8624 33.4683 38.8183 33.6022 38.7209 33.6996L37.4895 34.9538C37.3571 35.0847 37.1531 35.1212 36.9873 35.033C36.9873 35.033 36.2582 34.5124 35.6251 34.3481C34.9949 34.1836 34.3344 34.1015 33.6357 34.1015C32.7241 34.1015 32.0512 34.275 31.616 34.6251C31.1792 34.9752 30.9631 35.4287 30.9631 35.9889C30.9631 36.4957 31.1153 36.8823 31.4273 37.1518C31.7363 37.4258 32.2599 37.6023 32.9965 37.6753L35.0605 37.8519C36.5901 37.9859 37.7469 38.3938 38.5323 39.0711C39.3177 39.7484 39.7088 40.7378 39.7088 42.0346C39.7085 42.8109 39.5548 43.4897 39.2444 44.0712ZM46.468 26.2266C45.7328 24.6361 47.3477 20.181 39.561 20.181C37.2201 20.181 35.841 20.181 35.0481 20.181C35.0618 20.181 34.9461 20.181 34.5626 20.181C34.4347 20.181 34.2704 20.181 34.0771 20.181C33.2841 20.181 31.9036 20.181 29.5657 20.181C21.7758 20.181 23.3938 24.636 22.6587 26.2266C22.1655 27.2921 21.371 28.2844 20.4106 29.2525C20.4168 28.4914 20.4198 27.7183 20.4258 27.0029C20.4304 26.1353 20.4364 25.3529 20.441 24.7746C20.4456 24.4869 20.4486 24.2495 20.4502 24.0806C20.4532 23.9953 20.4532 23.9314 20.4547 23.8857L20.4563 23.8492C20.5659 22.8005 20.7577 21.3347 21.6923 20.108C22.1656 19.4901 22.8262 18.9086 23.8445 18.4399C24.8612 17.971 26.2448 17.6225 28.1305 17.5358C28.6222 17.513 29.0392 17.1735 29.164 16.6986C29.2873 16.2238 29.0894 15.7215 28.6723 15.4627C27.715 14.863 27.0833 13.8127 27.0833 12.6104C27.0833 11.6758 27.4577 10.8418 28.0696 10.2299C28.6814 9.61792 29.5155 9.24357 30.447 9.24357C31.3815 9.24357 32.2156 9.61802 32.829 10.2299C33.1242 10.5251 33.3602 10.8752 33.5276 11.2588L33.5398 11.2801C33.5504 11.3075 33.5581 11.3319 33.5687 11.3562C33.6372 11.5328 33.6966 11.7124 33.7376 11.9011L33.7406 11.9163L33.7437 11.9331C33.7467 11.9407 33.7467 11.9529 33.7498 11.9636C33.7893 12.1721 33.8153 12.3882 33.8153 12.6105C33.8153 12.7292 33.8046 12.8602 33.7879 13.0001L33.7651 13.1493L33.7667 13.1431C33.7515 13.2375 33.7347 13.3197 33.7179 13.3958L33.7164 13.402L33.6768 13.5451C33.6555 13.6181 33.6312 13.6942 33.6022 13.7734L33.5398 13.9317C33.2719 14.5542 32.8244 15.0793 32.2567 15.4446C32.2537 15.4476 32.2491 15.4491 32.2475 15.4537C32.2049 15.4781 32.1683 15.51 32.1318 15.542C32.112 15.5603 32.0891 15.5755 32.0725 15.5937C32.0451 15.6211 32.0208 15.6516 31.9948 15.682C31.9751 15.7093 31.9507 15.7337 31.9324 15.758C31.9126 15.7885 31.8989 15.8219 31.8807 15.8524C31.8624 15.8859 31.8426 15.9163 31.829 15.9468C31.8168 15.9773 31.8092 16.0107 31.7985 16.0412C31.7847 16.0808 31.7711 16.1173 31.7635 16.1554C31.7589 16.1813 31.7559 16.2087 31.7529 16.236C31.7467 16.2847 31.7407 16.3304 31.7391 16.3791L31.7376 16.3912C31.7376 16.4125 31.7437 16.4369 31.7452 16.4612C31.7482 16.5069 31.7498 16.5526 31.7604 16.5982C31.765 16.6317 31.7771 16.6652 31.7847 16.6972C31.7953 16.7353 31.8061 16.7718 31.8197 16.8083C31.8349 16.8479 31.8562 16.8814 31.8745 16.9179C31.8897 16.9423 31.8989 16.9696 31.9141 16.994C31.9171 16.997 31.9202 17.0001 31.9232 17.0062C31.946 17.0397 31.972 17.0701 31.9993 17.1006C32.0207 17.1279 32.0404 17.1554 32.0632 17.1798C32.086 17.2011 32.1119 17.2193 32.1363 17.2406C32.1668 17.2665 32.1956 17.2955 32.2291 17.3167C32.2565 17.335 32.2854 17.3472 32.3128 17.3654C32.3478 17.3837 32.3813 17.405 32.4194 17.4203C32.4483 17.4355 32.4833 17.4416 32.5168 17.4522C32.5533 17.4628 32.5868 17.4781 32.6264 17.4872C32.6537 17.4933 32.6827 17.4933 32.7116 17.4978C32.7557 17.5024 32.8014 17.5115 32.8455 17.5115C32.8517 17.5115 32.8547 17.5115 32.8593 17.5115H35.9415H40.0267C40.3524 17.5115 40.666 17.5222 40.981 17.5374C42.6294 17.6151 43.9018 17.8921 44.8699 18.2756C45.7344 18.6196 46.3645 19.0367 46.8486 19.4933C47.5731 20.1751 47.9794 20.9499 48.2351 21.7277C48.4848 22.4918 48.5715 23.2406 48.6385 23.8525C48.6385 23.8708 48.6401 23.9256 48.6415 24.0078C48.6553 24.711 48.6705 27.0123 48.6872 29.2254C47.7389 28.2662 46.9535 27.2829 46.468 26.2266Z"></path>
</mask>
<path d="M50.9443 31.2874C50.9367 30.2053 50.9276 28.942 50.9184 27.7608C50.9108 26.7197 50.9032 25.7487 50.8971 25.0181C50.8941 24.6528 50.8909 24.3484 50.8879 24.1247C50.8849 24.0135 50.8833 23.9223 50.8818 23.8522L50.8788 23.7578C50.8772 23.7259 50.8788 23.7121 50.8726 23.6421V23.6391C50.7478 22.531 50.5469 20.4032 49.0218 18.5372C48.2593 17.6056 47.1694 16.7686 45.6961 16.1871C45.0248 15.9238 44.2715 15.7123 43.4359 15.557C43.9701 14.7001 44.2852 13.694 44.2852 12.6103C44.2852 9.51136 41.7738 7 38.6749 7C37.0478 7 35.5913 7.70321 34.5669 8.81126C33.5427 7.70029 32.0785 7.0001 30.4469 7.0001C27.3511 7.0001 24.8396 9.51145 24.8396 12.6104C24.8396 13.6971 25.1592 14.7063 25.695 15.5662C24.6386 15.758 23.7026 16.0351 22.9066 16.4004C20.899 17.3136 19.7088 18.7474 19.0786 20.1325C18.4424 21.5114 18.3099 22.8356 18.2217 23.6393V23.6423C18.2141 23.7215 18.2156 23.7337 18.2125 23.7732C18.2049 24.0198 18.1988 24.7382 18.1912 25.7336C18.179 27.2191 18.1668 29.2678 18.1577 30.9513C18.1577 31.073 18.1577 31.1887 18.1577 31.3074C14.3587 34.5403 9.78336 37.904 9.62964 43.2768C9.45177 49.6053 14.4121 54.0223 20.2249 54.7437C25.2339 55.3677 28.689 55.5535 34.5626 55.5535C40.4346 55.5535 43.8897 55.3678 48.9003 54.7437C54.7115 54.0223 59.6734 49.6053 59.4954 43.2766C59.3414 37.8916 54.7464 34.5279 50.9443 31.2874ZM48.6414 23.8766V23.8796L48.6399 23.8766H48.6414ZM35.8959 13.9254C35.9324 13.7747 35.9598 13.6332 35.9811 13.4993L35.9827 13.4931L35.9888 13.4536C35.9964 13.3957 36.0071 13.341 36.0147 13.2831V13.277C36.0391 13.07 36.0588 12.8478 36.0588 12.6103C36.0588 12.4125 36.0467 12.2176 36.0269 12.0258L36.0253 11.9985L36.0086 11.901C35.9903 11.7519 35.9705 11.6058 35.9385 11.4611C35.9385 11.4611 35.9385 11.4566 35.9385 11.455L35.9309 11.42L35.9112 11.35C35.8762 11.1993 35.8381 11.0486 35.7924 10.9055C35.7909 10.9025 35.7909 10.9025 35.7909 10.9025L35.7893 10.8903C36.3753 9.90402 37.4453 9.24192 38.6751 9.24348C39.6081 9.24348 40.4437 9.61792 41.0571 10.2298C41.6659 10.8416 42.0418 11.6757 42.0434 12.6103C42.0434 13.7032 41.5182 14.6621 40.707 15.2799C40.4832 15.2738 40.258 15.2678 40.0267 15.2678H36.6371C36.2946 15.0059 36.0039 14.6849 35.7847 14.315C35.7985 14.2693 35.8152 14.2267 35.8304 14.1765C35.832 14.1689 35.8334 14.1627 35.835 14.1537C35.8548 14.0836 35.8745 14.0136 35.8928 13.9405C35.8959 13.9314 35.8959 13.9253 35.899 13.9162L35.8959 13.9254ZM39.2444 44.0712C38.9338 44.6526 38.5062 45.1397 37.9658 45.5369C37.424 45.9342 36.7741 46.231 36.0192 46.4242C35.6889 46.5095 35.3433 46.5673 34.9918 46.613V48.8139H32.3677V46.6587C31.622 46.5948 30.9066 46.4791 30.2353 46.2934C29.2079 46.0133 27.8625 44.8779 27.8625 44.8779C27.7483 44.8109 27.6707 44.6923 27.6555 44.5613C27.6387 44.429 27.6828 44.2965 27.7772 44.2021L29.0923 42.887C29.2338 42.747 29.4546 42.7196 29.625 42.8246C29.625 42.8246 30.6083 43.6785 31.3541 43.8824C32.0999 44.0833 32.8396 44.1868 33.5763 44.1868C34.5079 44.1868 35.278 44.0224 35.8868 43.6936C36.4986 43.3633 36.8031 42.8504 36.8031 42.1502C36.8031 41.648 36.6539 41.2507 36.3525 40.9599C36.0511 40.6707 35.5427 40.4881 34.8275 40.409L32.4713 40.205C31.077 40.0681 30.0025 39.6814 29.2476 39.0421C28.4896 38.4028 28.1121 37.4348 28.1121 36.138C28.1121 35.4196 28.2582 34.7788 28.5489 34.2172C28.8396 33.657 29.2369 33.1822 29.7407 32.7925C30.2445 32.4059 30.8305 32.1167 31.4986 31.9219C31.7787 31.8427 32.0709 31.7879 32.3677 31.7392V29.8457H34.9918V31.6996C35.6052 31.7604 36.1881 31.8609 36.73 32.0101C37.6508 32.2598 38.6173 33.0147 38.6173 33.0147C38.7375 33.0786 38.8213 33.1974 38.8411 33.3297C38.8624 33.4683 38.8183 33.6022 38.7209 33.6996L37.4895 34.9538C37.3571 35.0847 37.1531 35.1212 36.9873 35.033C36.9873 35.033 36.2582 34.5124 35.6251 34.3481C34.9949 34.1836 34.3344 34.1015 33.6357 34.1015C32.7241 34.1015 32.0512 34.275 31.616 34.6251C31.1792 34.9752 30.9631 35.4287 30.9631 35.9889C30.9631 36.4957 31.1153 36.8823 31.4273 37.1518C31.7363 37.4258 32.2599 37.6023 32.9965 37.6753L35.0605 37.8519C36.5901 37.9859 37.7469 38.3938 38.5323 39.0711C39.3177 39.7484 39.7088 40.7378 39.7088 42.0346C39.7085 42.8109 39.5548 43.4897 39.2444 44.0712ZM46.468 26.2266C45.7328 24.6361 47.3477 20.181 39.561 20.181C37.2201 20.181 35.841 20.181 35.0481 20.181C35.0618 20.181 34.9461 20.181 34.5626 20.181C34.4347 20.181 34.2704 20.181 34.0771 20.181C33.2841 20.181 31.9036 20.181 29.5657 20.181C21.7758 20.181 23.3938 24.636 22.6587 26.2266C22.1655 27.2921 21.371 28.2844 20.4106 29.2525C20.4168 28.4914 20.4198 27.7183 20.4258 27.0029C20.4304 26.1353 20.4364 25.3529 20.441 24.7746C20.4456 24.4869 20.4486 24.2495 20.4502 24.0806C20.4532 23.9953 20.4532 23.9314 20.4547 23.8857L20.4563 23.8492C20.5659 22.8005 20.7577 21.3347 21.6923 20.108C22.1656 19.4901 22.8262 18.9086 23.8445 18.4399C24.8612 17.971 26.2448 17.6225 28.1305 17.5358C28.6222 17.513 29.0392 17.1735 29.164 16.6986C29.2873 16.2238 29.0894 15.7215 28.6723 15.4627C27.715 14.863 27.0833 13.8127 27.0833 12.6104C27.0833 11.6758 27.4577 10.8418 28.0696 10.2299C28.6814 9.61792 29.5155 9.24357 30.447 9.24357C31.3815 9.24357 32.2156 9.61802 32.829 10.2299C33.1242 10.5251 33.3602 10.8752 33.5276 11.2588L33.5398 11.2801C33.5504 11.3075 33.5581 11.3319 33.5687 11.3562C33.6372 11.5328 33.6966 11.7124 33.7376 11.9011L33.7406 11.9163L33.7437 11.9331C33.7467 11.9407 33.7467 11.9529 33.7498 11.9636C33.7893 12.1721 33.8153 12.3882 33.8153 12.6105C33.8153 12.7292 33.8046 12.8602 33.7879 13.0001L33.7651 13.1493L33.7667 13.1431C33.7515 13.2375 33.7347 13.3197 33.7179 13.3958L33.7164 13.402L33.6768 13.5451C33.6555 13.6181 33.6312 13.6942 33.6022 13.7734L33.5398 13.9317C33.2719 14.5542 32.8244 15.0793 32.2567 15.4446C32.2537 15.4476 32.2491 15.4491 32.2475 15.4537C32.2049 15.4781 32.1683 15.51 32.1318 15.542C32.112 15.5603 32.0891 15.5755 32.0725 15.5937C32.0451 15.6211 32.0208 15.6516 31.9948 15.682C31.9751 15.7093 31.9507 15.7337 31.9324 15.758C31.9126 15.7885 31.8989 15.8219 31.8807 15.8524C31.8624 15.8859 31.8426 15.9163 31.829 15.9468C31.8168 15.9773 31.8092 16.0107 31.7985 16.0412C31.7847 16.0808 31.7711 16.1173 31.7635 16.1554C31.7589 16.1813 31.7559 16.2087 31.7529 16.236C31.7467 16.2847 31.7407 16.3304 31.7391 16.3791L31.7376 16.3912C31.7376 16.4125 31.7437 16.4369 31.7452 16.4612C31.7482 16.5069 31.7498 16.5526 31.7604 16.5982C31.765 16.6317 31.7771 16.6652 31.7847 16.6972C31.7953 16.7353 31.8061 16.7718 31.8197 16.8083C31.8349 16.8479 31.8562 16.8814 31.8745 16.9179C31.8897 16.9423 31.8989 16.9696 31.9141 16.994C31.9171 16.997 31.9202 17.0001 31.9232 17.0062C31.946 17.0397 31.972 17.0701 31.9993 17.1006C32.0207 17.1279 32.0404 17.1554 32.0632 17.1798C32.086 17.2011 32.1119 17.2193 32.1363 17.2406C32.1668 17.2665 32.1956 17.2955 32.2291 17.3167C32.2565 17.335 32.2854 17.3472 32.3128 17.3654C32.3478 17.3837 32.3813 17.405 32.4194 17.4203C32.4483 17.4355 32.4833 17.4416 32.5168 17.4522C32.5533 17.4628 32.5868 17.4781 32.6264 17.4872C32.6537 17.4933 32.6827 17.4933 32.7116 17.4978C32.7557 17.5024 32.8014 17.5115 32.8455 17.5115C32.8517 17.5115 32.8547 17.5115 32.8593 17.5115H35.9415H40.0267C40.3524 17.5115 40.666 17.5222 40.981 17.5374C42.6294 17.6151 43.9018 17.8921 44.8699 18.2756C45.7344 18.6196 46.3645 19.0367 46.8486 19.4933C47.5731 20.1751 47.9794 20.9499 48.2351 21.7277C48.4848 22.4918 48.5715 23.2406 48.6385 23.8525C48.6385 23.8708 48.6401 23.9256 48.6415 24.0078C48.6553 24.711 48.6705 27.0123 48.6872 29.2254C47.7389 28.2662 46.9535 27.2829 46.468 26.2266Z" fill="#F9E13F" stroke="black" stroke-width="2" mask="url(#path-2-inside-1)"></path>
</svg><style>@media (prefers-color-scheme: light) { :root { filter: none; } }
</style></svg>