<svg width="272" height="127" viewBox="0 0 272 127" fill="none" xmlns="http://www.w3.org/2000/svg">
<circle cx="40" cy="58" r="39.5" fill="#F9E13F" stroke="black"/>
<mask id="path-2-inside-1" fill="white">
<path d="M58.2221 53.757C58.2134 52.5203 58.2029 51.0765 58.1925 49.7267C58.1838 48.5368 58.1751 47.4271 58.1681 46.5922C58.1646 46.1747 58.1611 45.8268 58.1576 45.5711C58.1542 45.444 58.1524 45.3397 58.1506 45.2597L58.1472 45.1518C58.1454 45.1153 58.1472 45.0996 58.1401 45.0195V45.0161C57.9975 43.7498 57.7679 41.3179 56.0249 39.1853C55.1535 38.1207 53.9079 37.1641 52.2241 36.4996C51.457 36.1987 50.596 35.9569 49.641 35.7794C50.2515 34.8001 50.6117 33.6503 50.6117 32.4118C50.6117 28.8701 47.7415 26 44.1999 26C42.3404 26 40.6757 26.8037 39.505 28.07C38.3345 26.8003 36.6612 26.0001 34.7964 26.0001C31.2584 26.0001 28.3881 28.8702 28.3881 32.4119C28.3881 33.6538 28.7534 34.8072 29.3657 35.79C28.1585 36.0092 27.0887 36.3258 26.1789 36.7433C23.8846 37.787 22.5243 39.4256 21.8041 41.0085C21.0771 42.5845 20.9257 44.0979 20.8248 45.0163V45.0198C20.8161 45.1103 20.8178 45.1242 20.8143 45.1694C20.8056 45.4512 20.7986 46.2722 20.7899 47.4098C20.776 49.1076 20.7621 51.4489 20.7516 53.3729C20.7516 53.512 20.7516 53.6443 20.7516 53.7799C16.4099 57.4746 11.181 61.3188 11.0053 67.4592C10.802 74.6917 16.471 79.7398 23.1141 80.5643C28.8388 81.2774 32.7874 81.4897 39.5001 81.4897C46.211 81.4897 50.1597 81.2775 55.8861 80.5643C62.5274 79.7398 68.1982 74.6918 67.9947 67.459C67.8188 61.3047 62.5673 57.4605 58.2221 53.757ZM55.5902 45.2875V45.291L55.5884 45.2875H55.5902ZM41.0238 33.9148C41.0656 33.7426 41.0969 33.5808 41.1213 33.4277L41.123 33.4207L41.13 33.3755C41.1387 33.3094 41.151 33.2468 41.1597 33.1807V33.1737C41.1875 32.9371 41.2101 32.6832 41.2101 32.4118C41.2101 32.1857 41.1962 31.963 41.1736 31.7438L41.1718 31.7125L41.1526 31.6012C41.1317 31.4308 41.1091 31.2638 41.0726 31.0984C41.0726 31.0984 41.0726 31.0932 41.0726 31.0914L41.0639 31.0515L41.0413 30.9714C41.0014 30.7992 40.9578 30.627 40.9056 30.4634C40.9038 30.46 40.9038 30.46 40.9038 30.46L40.9021 30.4461C41.5718 29.3189 42.7946 28.5622 44.2001 28.564C45.2664 28.564 46.2214 28.9919 46.9224 29.6912C47.6182 30.3904 48.0478 31.3437 48.0496 32.4118C48.0496 33.6607 47.4494 34.7566 46.5223 35.4628C46.2666 35.4558 46.0092 35.4489 45.7448 35.4489H41.8709C41.4795 35.1496 41.1473 34.7827 40.8968 34.36C40.9125 34.3078 40.9317 34.2591 40.949 34.2017C40.9508 34.193 40.9525 34.186 40.9543 34.1756C40.9769 34.0956 40.9995 34.0155 41.0204 33.932C41.0238 33.9216 41.0238 33.9147 41.0274 33.9042L41.0238 33.9148ZM44.8507 68.367C44.4958 69.0316 44.0071 69.5882 43.3895 70.0422C42.7702 70.4962 42.0276 70.8354 41.1648 71.0563C40.7873 71.1537 40.3924 71.2198 39.9906 71.272V73.7873H36.9917V71.3242C36.1394 71.2512 35.3218 71.1189 34.5546 70.9067C33.3805 70.5867 31.8428 69.2891 31.8428 69.2891C31.7123 69.2125 31.6236 69.0769 31.6062 68.9272C31.5871 68.7759 31.6375 68.6245 31.7454 68.5167L33.2483 67.0138C33.4101 66.8537 33.6623 66.8224 33.8572 66.9424C33.8572 66.9424 34.9809 67.9183 35.8332 68.1513C36.6855 68.381 37.531 68.4992 38.3729 68.4992C39.4375 68.4992 40.3177 68.3113 41.0135 67.9355C41.7127 67.558 42.0606 66.9719 42.0606 66.1717C42.0606 65.5977 41.8902 65.1437 41.5457 64.8114C41.2013 64.4808 40.6203 64.2721 39.8028 64.1817L37.11 63.9486C35.5166 63.7921 34.2886 63.3502 33.4258 62.6196C32.5595 61.8889 32.1282 60.7827 32.1282 59.3006C32.1282 58.4795 32.2951 57.7472 32.6273 57.1053C32.9595 56.4652 33.4136 55.9225 33.9893 55.4772C34.5651 55.0353 35.2348 54.7048 35.9984 54.4821C36.3185 54.3916 36.6525 54.329 36.9917 54.2734V52.1094H39.9906V54.2281C40.6916 54.2976 41.3578 54.4124 41.9771 54.583C43.0295 54.8683 44.1341 55.7311 44.1341 55.7311C44.2715 55.8041 44.3672 55.9398 44.3898 56.0911C44.4142 56.2494 44.3638 56.4025 44.2524 56.5138L42.8452 57.9472C42.6939 58.0968 42.4607 58.1385 42.2711 58.0377C42.2711 58.0377 41.438 57.4427 40.7144 57.2549C39.9942 57.067 39.2393 56.9732 38.4408 56.9732C37.3989 56.9732 36.63 57.1714 36.1326 57.5716C35.6334 57.9717 35.3864 58.49 35.3864 59.1301C35.3864 59.7094 35.5604 60.1512 35.9169 60.4592C36.2701 60.7723 36.8685 60.974 37.7103 61.0575L40.0691 61.2594C41.8173 61.4124 43.1393 61.8787 44.0369 62.6527C44.9345 63.4268 45.3815 64.5574 45.3815 66.0395C45.3812 66.9267 45.2055 67.7025 44.8507 68.367ZM53.1063 47.9733C52.2661 46.1555 54.1117 41.064 45.2125 41.064C42.5372 41.064 40.9612 41.064 40.055 41.064C40.0707 41.064 39.9384 41.064 39.5001 41.064C39.3539 41.064 39.1661 41.064 38.9453 41.064C38.0389 41.064 36.4612 41.064 33.7894 41.064C24.8867 41.064 26.7358 46.1554 25.8956 47.9733C25.332 49.191 24.424 50.3251 23.3264 51.4314C23.3334 50.5616 23.3369 49.678 23.3438 48.8604C23.349 47.869 23.3559 46.9748 23.3612 46.3138C23.3664 45.9851 23.3698 45.7137 23.3716 45.5206C23.3751 45.4232 23.3751 45.3502 23.3768 45.298L23.3786 45.2562C23.5039 44.0577 23.7231 42.3825 24.7911 40.9806C25.3321 40.2743 26.0871 39.6098 27.2508 39.0741C28.4128 38.5383 29.994 38.14 32.1492 38.0409C32.7111 38.0149 33.1876 37.6269 33.3303 37.0842C33.4712 36.5414 33.245 35.9674 32.7684 35.6716C31.6743 34.9863 30.9523 33.786 30.9523 32.4119C30.9523 31.3438 31.3803 30.3906 32.0795 29.6913C32.7787 28.9919 33.732 28.5641 34.7965 28.5641C35.8646 28.5641 36.8178 28.992 37.5188 29.6913C37.8563 30.0287 38.1259 30.4288 38.3173 30.8672L38.3312 30.8916C38.3433 30.9229 38.3521 30.9507 38.3642 30.9785C38.4425 31.1804 38.5104 31.3856 38.5573 31.6013L38.5607 31.6187L38.5642 31.6378C38.5676 31.6465 38.5676 31.6604 38.5712 31.6727C38.6164 31.911 38.646 32.1579 38.646 32.412C38.646 32.5477 38.6339 32.6973 38.6147 32.8573L38.5887 33.0277L38.5905 33.0207C38.5731 33.1286 38.5539 33.2226 38.5348 33.3095L38.533 33.3165L38.4878 33.4801C38.4634 33.5636 38.4356 33.6505 38.4025 33.741L38.3312 33.9219C38.025 34.6334 37.5136 35.2335 36.8648 35.6509C36.8613 35.6544 36.8561 35.6562 36.8543 35.6614C36.8056 35.6892 36.7638 35.7257 36.7221 35.7623C36.6995 35.7832 36.6733 35.8006 36.6543 35.8214C36.623 35.8527 36.5951 35.8875 36.5655 35.9222C36.5429 35.9535 36.5151 35.9814 36.4942 36.0092C36.4716 36.044 36.4559 36.0822 36.4351 36.1171C36.4141 36.1554 36.3915 36.1901 36.3759 36.2249C36.362 36.2598 36.3533 36.298 36.3411 36.3328C36.3254 36.378 36.3098 36.4198 36.3011 36.4633C36.2959 36.4929 36.2924 36.5242 36.289 36.5555C36.282 36.6111 36.2751 36.6633 36.2733 36.719L36.2715 36.7328C36.2715 36.7572 36.2785 36.785 36.2802 36.8129C36.2837 36.8651 36.2854 36.9173 36.2976 36.9694C36.3028 37.0077 36.3167 37.046 36.3254 37.0825C36.3375 37.126 36.3498 37.1678 36.3654 37.2095C36.3827 37.2547 36.4071 37.293 36.428 37.3348C36.4454 37.3626 36.4559 37.3939 36.4732 37.4217C36.4767 37.4252 36.4803 37.4287 36.4837 37.4356C36.5098 37.4739 36.5394 37.5086 36.5707 37.5435C36.595 37.5748 36.6176 37.6062 36.6437 37.634C36.6697 37.6584 36.6993 37.6792 36.7272 37.7036C36.762 37.7332 36.795 37.7663 36.8333 37.7905C36.8646 37.8115 36.8976 37.8254 36.9289 37.8462C36.9689 37.8671 37.0072 37.8914 37.0507 37.9089C37.0838 37.9262 37.1237 37.9333 37.162 37.9454C37.2038 37.9575 37.2421 37.975 37.2873 37.9854C37.3185 37.9924 37.3516 37.9924 37.3847 37.9975C37.4351 38.0027 37.4873 38.0132 37.5378 38.0132C37.5448 38.0132 37.5482 38.0132 37.5534 38.0132H41.0759H45.7448C46.1171 38.0132 46.4754 38.0253 46.8354 38.0428C48.7193 38.1315 50.1735 38.4481 51.2798 38.8864C52.2679 39.2795 52.988 39.7562 53.5412 40.278C54.3693 41.0573 54.8336 41.9427 55.1259 42.8316C55.4112 43.7049 55.5103 44.5607 55.5869 45.26C55.5869 45.2809 55.5886 45.3435 55.5903 45.4375C55.606 46.2411 55.6234 48.8712 55.6425 51.4005C54.5588 50.3042 53.6611 49.1805 53.1063 47.9733Z"/>
</mask>
<path d="M58.2221 53.757C58.2134 52.5203 58.2029 51.0765 58.1925 49.7267C58.1838 48.5368 58.1751 47.4271 58.1681 46.5922C58.1646 46.1747 58.1611 45.8268 58.1576 45.5711C58.1542 45.444 58.1524 45.3397 58.1506 45.2597L58.1472 45.1518C58.1454 45.1153 58.1472 45.0996 58.1401 45.0195V45.0161C57.9975 43.7498 57.7679 41.3179 56.0249 39.1853C55.1535 38.1207 53.9079 37.1641 52.2241 36.4996C51.457 36.1987 50.596 35.9569 49.641 35.7794C50.2515 34.8001 50.6117 33.6503 50.6117 32.4118C50.6117 28.8701 47.7415 26 44.1999 26C42.3404 26 40.6757 26.8037 39.505 28.07C38.3345 26.8003 36.6612 26.0001 34.7964 26.0001C31.2584 26.0001 28.3881 28.8702 28.3881 32.4119C28.3881 33.6538 28.7534 34.8072 29.3657 35.79C28.1585 36.0092 27.0887 36.3258 26.1789 36.7433C23.8846 37.787 22.5243 39.4256 21.8041 41.0085C21.0771 42.5845 20.9257 44.0979 20.8248 45.0163V45.0198C20.8161 45.1103 20.8178 45.1242 20.8143 45.1694C20.8056 45.4512 20.7986 46.2722 20.7899 47.4098C20.776 49.1076 20.7621 51.4489 20.7516 53.3729C20.7516 53.512 20.7516 53.6443 20.7516 53.7799C16.4099 57.4746 11.181 61.3188 11.0053 67.4592C10.802 74.6917 16.471 79.7398 23.1141 80.5643C28.8388 81.2774 32.7874 81.4897 39.5001 81.4897C46.211 81.4897 50.1597 81.2775 55.8861 80.5643C62.5274 79.7398 68.1982 74.6918 67.9947 67.459C67.8188 61.3047 62.5673 57.4605 58.2221 53.757ZM55.5902 45.2875V45.291L55.5884 45.2875H55.5902ZM41.0238 33.9148C41.0656 33.7426 41.0969 33.5808 41.1213 33.4277L41.123 33.4207L41.13 33.3755C41.1387 33.3094 41.151 33.2468 41.1597 33.1807V33.1737C41.1875 32.9371 41.2101 32.6832 41.2101 32.4118C41.2101 32.1857 41.1962 31.963 41.1736 31.7438L41.1718 31.7125L41.1526 31.6012C41.1317 31.4308 41.1091 31.2638 41.0726 31.0984C41.0726 31.0984 41.0726 31.0932 41.0726 31.0914L41.0639 31.0515L41.0413 30.9714C41.0014 30.7992 40.9578 30.627 40.9056 30.4634C40.9038 30.46 40.9038 30.46 40.9038 30.46L40.9021 30.4461C41.5718 29.3189 42.7946 28.5622 44.2001 28.564C45.2664 28.564 46.2214 28.9919 46.9224 29.6912C47.6182 30.3904 48.0478 31.3437 48.0496 32.4118C48.0496 33.6607 47.4494 34.7566 46.5223 35.4628C46.2666 35.4558 46.0092 35.4489 45.7448 35.4489H41.8709C41.4795 35.1496 41.1473 34.7827 40.8968 34.36C40.9125 34.3078 40.9317 34.2591 40.949 34.2017C40.9508 34.193 40.9525 34.186 40.9543 34.1756C40.9769 34.0956 40.9995 34.0155 41.0204 33.932C41.0238 33.9216 41.0238 33.9147 41.0274 33.9042L41.0238 33.9148ZM44.8507 68.367C44.4958 69.0316 44.0071 69.5882 43.3895 70.0422C42.7702 70.4962 42.0276 70.8354 41.1648 71.0563C40.7873 71.1537 40.3924 71.2198 39.9906 71.272V73.7873H36.9917V71.3242C36.1394 71.2512 35.3218 71.1189 34.5546 70.9067C33.3805 70.5867 31.8428 69.2891 31.8428 69.2891C31.7123 69.2125 31.6236 69.0769 31.6062 68.9272C31.5871 68.7759 31.6375 68.6245 31.7454 68.5167L33.2483 67.0138C33.4101 66.8537 33.6623 66.8224 33.8572 66.9424C33.8572 66.9424 34.9809 67.9183 35.8332 68.1513C36.6855 68.381 37.531 68.4992 38.3729 68.4992C39.4375 68.4992 40.3177 68.3113 41.0135 67.9355C41.7127 67.558 42.0606 66.9719 42.0606 66.1717C42.0606 65.5977 41.8902 65.1437 41.5457 64.8114C41.2013 64.4808 40.6203 64.2721 39.8028 64.1817L37.11 63.9486C35.5166 63.7921 34.2886 63.3502 33.4258 62.6196C32.5595 61.8889 32.1282 60.7827 32.1282 59.3006C32.1282 58.4795 32.2951 57.7472 32.6273 57.1053C32.9595 56.4652 33.4136 55.9225 33.9893 55.4772C34.5651 55.0353 35.2348 54.7048 35.9984 54.4821C36.3185 54.3916 36.6525 54.329 36.9917 54.2734V52.1094H39.9906V54.2281C40.6916 54.2976 41.3578 54.4124 41.9771 54.583C43.0295 54.8683 44.1341 55.7311 44.1341 55.7311C44.2715 55.8041 44.3672 55.9398 44.3898 56.0911C44.4142 56.2494 44.3638 56.4025 44.2524 56.5138L42.8452 57.9472C42.6939 58.0968 42.4607 58.1385 42.2711 58.0377C42.2711 58.0377 41.438 57.4427 40.7144 57.2549C39.9942 57.067 39.2393 56.9732 38.4408 56.9732C37.3989 56.9732 36.63 57.1714 36.1326 57.5716C35.6334 57.9717 35.3864 58.49 35.3864 59.1301C35.3864 59.7094 35.5604 60.1512 35.9169 60.4592C36.2701 60.7723 36.8685 60.974 37.7103 61.0575L40.0691 61.2594C41.8173 61.4124 43.1393 61.8787 44.0369 62.6527C44.9345 63.4268 45.3815 64.5574 45.3815 66.0395C45.3812 66.9267 45.2055 67.7025 44.8507 68.367ZM53.1063 47.9733C52.2661 46.1555 54.1117 41.064 45.2125 41.064C42.5372 41.064 40.9612 41.064 40.055 41.064C40.0707 41.064 39.9384 41.064 39.5001 41.064C39.3539 41.064 39.1661 41.064 38.9453 41.064C38.0389 41.064 36.4612 41.064 33.7894 41.064C24.8867 41.064 26.7358 46.1554 25.8956 47.9733C25.332 49.191 24.424 50.3251 23.3264 51.4314C23.3334 50.5616 23.3369 49.678 23.3438 48.8604C23.349 47.869 23.3559 46.9748 23.3612 46.3138C23.3664 45.9851 23.3698 45.7137 23.3716 45.5206C23.3751 45.4232 23.3751 45.3502 23.3768 45.298L23.3786 45.2562C23.5039 44.0577 23.7231 42.3825 24.7911 40.9806C25.3321 40.2743 26.0871 39.6098 27.2508 39.0741C28.4128 38.5383 29.994 38.14 32.1492 38.0409C32.7111 38.0149 33.1876 37.6269 33.3303 37.0842C33.4712 36.5414 33.245 35.9674 32.7684 35.6716C31.6743 34.9863 30.9523 33.786 30.9523 32.4119C30.9523 31.3438 31.3803 30.3906 32.0795 29.6913C32.7787 28.9919 33.732 28.5641 34.7965 28.5641C35.8646 28.5641 36.8178 28.992 37.5188 29.6913C37.8563 30.0287 38.1259 30.4288 38.3173 30.8672L38.3312 30.8916C38.3433 30.9229 38.3521 30.9507 38.3642 30.9785C38.4425 31.1804 38.5104 31.3856 38.5573 31.6013L38.5607 31.6187L38.5642 31.6378C38.5676 31.6465 38.5676 31.6604 38.5712 31.6727C38.6164 31.911 38.646 32.1579 38.646 32.412C38.646 32.5477 38.6339 32.6973 38.6147 32.8573L38.5887 33.0277L38.5905 33.0207C38.5731 33.1286 38.5539 33.2226 38.5348 33.3095L38.533 33.3165L38.4878 33.4801C38.4634 33.5636 38.4356 33.6505 38.4025 33.741L38.3312 33.9219C38.025 34.6334 37.5136 35.2335 36.8648 35.6509C36.8613 35.6544 36.8561 35.6562 36.8543 35.6614C36.8056 35.6892 36.7638 35.7257 36.7221 35.7623C36.6995 35.7832 36.6733 35.8006 36.6543 35.8214C36.623 35.8527 36.5951 35.8875 36.5655 35.9222C36.5429 35.9535 36.5151 35.9814 36.4942 36.0092C36.4716 36.044 36.4559 36.0822 36.4351 36.1171C36.4141 36.1554 36.3915 36.1901 36.3759 36.2249C36.362 36.2598 36.3533 36.298 36.3411 36.3328C36.3254 36.378 36.3098 36.4198 36.3011 36.4633C36.2959 36.4929 36.2924 36.5242 36.289 36.5555C36.282 36.6111 36.2751 36.6633 36.2733 36.719L36.2715 36.7328C36.2715 36.7572 36.2785 36.785 36.2802 36.8129C36.2837 36.8651 36.2854 36.9173 36.2976 36.9694C36.3028 37.0077 36.3167 37.046 36.3254 37.0825C36.3375 37.126 36.3498 37.1678 36.3654 37.2095C36.3827 37.2547 36.4071 37.293 36.428 37.3348C36.4454 37.3626 36.4559 37.3939 36.4732 37.4217C36.4767 37.4252 36.4803 37.4287 36.4837 37.4356C36.5098 37.4739 36.5394 37.5086 36.5707 37.5435C36.595 37.5748 36.6176 37.6062 36.6437 37.634C36.6697 37.6584 36.6993 37.6792 36.7272 37.7036C36.762 37.7332 36.795 37.7663 36.8333 37.7905C36.8646 37.8115 36.8976 37.8254 36.9289 37.8462C36.9689 37.8671 37.0072 37.8914 37.0507 37.9089C37.0838 37.9262 37.1237 37.9333 37.162 37.9454C37.2038 37.9575 37.2421 37.975 37.2873 37.9854C37.3185 37.9924 37.3516 37.9924 37.3847 37.9975C37.4351 38.0027 37.4873 38.0132 37.5378 38.0132C37.5448 38.0132 37.5482 38.0132 37.5534 38.0132H41.0759H45.7448C46.1171 38.0132 46.4754 38.0253 46.8354 38.0428C48.7193 38.1315 50.1735 38.4481 51.2798 38.8864C52.2679 39.2795 52.988 39.7562 53.5412 40.278C54.3693 41.0573 54.8336 41.9427 55.1259 42.8316C55.4112 43.7049 55.5103 44.5607 55.5869 45.26C55.5869 45.2809 55.5886 45.3435 55.5903 45.4375C55.606 46.2411 55.6234 48.8712 55.6425 51.4005C54.5588 50.3042 53.6611 49.1805 53.1063 47.9733Z" fill="#F9E13F" stroke="black" stroke-width="2" mask="url(#path-2-inside-1)"/>
<path d="M118.176 72.7188C118.527 73.1484 118.703 73.6562 118.703 74.2422C118.703 74.7891 118.508 75.2578 118.117 75.6484C117.727 76.0391 117.199 76.2344 116.535 76.2344C115.871 76.2344 115.305 75.9609 114.836 75.4141L102.473 59.5938L97.0234 65.1016V74.0664C97.0234 74.6523 96.8086 75.1602 96.3789 75.5898C95.9492 76.0195 95.4219 76.2344 94.7969 76.2344C94.2109 76.2344 93.7031 76.0195 93.2734 75.5898C92.8438 75.1602 92.6289 74.6523 92.6289 74.0664V44.4766C92.6289 43.8906 92.8438 43.3828 93.2734 42.9531C93.7031 42.4844 94.2109 42.25 94.7969 42.25C95.3828 42.25 95.8906 42.4648 96.3203 42.8945C96.7891 43.3242 97.0234 43.8516 97.0234 44.4766V59.7109L113.43 43.0703C113.82 42.5625 114.328 42.3086 114.953 42.3086C115.617 42.2695 116.145 42.4453 116.535 42.8359C116.926 43.1875 117.121 43.6758 117.121 44.3008C117.121 44.8867 116.926 45.3359 116.535 45.6484L105.461 56.6641L118.176 72.7188ZM124.797 52.7383C127.492 51.5664 130.285 51 133.176 51.0391C136.418 51.0391 138.938 52.0352 140.734 54.0273C142.336 55.7461 143.156 57.8945 143.195 60.4727V74.0664C143.195 74.6523 142.961 75.1602 142.492 75.5898C142.062 76.0195 141.535 76.2344 140.91 76.2344C140.324 76.2344 139.816 76.0195 139.387 75.5898C138.957 75.1602 138.742 74.6523 138.742 74.0664V72.8359C137.883 73.7344 136.73 74.5742 135.285 75.3555C133.84 76.0977 132.004 76.4688 129.777 76.4688C127.551 76.4688 125.695 75.8242 124.211 74.5352C122.688 73.207 121.926 71.4688 121.926 69.3203C121.926 66.9375 122.824 65.0625 124.621 63.6953C126.574 62.2109 129.348 61.4883 132.941 61.5273H138.742V61.1172C138.742 58.9688 138.215 57.4453 137.16 56.5469C136.145 55.6484 134.543 55.1992 132.355 55.1992C130.52 55.1992 128.391 55.5703 125.969 56.3125C125.734 56.3906 125.441 56.4297 125.09 56.4297C124.777 56.4297 124.445 56.2734 124.094 55.9609C123.742 55.6094 123.547 55.082 123.508 54.3789C123.508 53.6367 123.938 53.0898 124.797 52.7383ZM126.32 68.793C126.32 71.3711 128.02 72.6406 131.418 72.6016C132.902 72.6016 134.289 72.25 135.578 71.5469C136.906 70.8047 137.961 69.9844 138.742 69.0859V65.043H133.586C131.32 65.043 129.543 65.3359 128.254 65.9219C126.965 66.4688 126.32 67.4258 126.32 68.793ZM170.793 72.8359C171.105 73.2266 171.262 73.7148 171.262 74.3008C171.262 74.8477 171.047 75.3164 170.617 75.707C170.227 76.0586 169.777 76.2344 169.27 76.2344C168.488 76.2344 167.824 75.9414 167.277 75.3555L159.016 64.1055L154.855 67.9141V74.0664C154.855 74.6523 154.641 75.1602 154.211 75.5898C153.781 76.0195 153.273 76.2344 152.688 76.2344C152.102 76.2344 151.594 76.0195 151.164 75.5898C150.734 75.1602 150.52 74.6523 150.52 74.0664V42.8945C150.52 42.3086 150.715 41.8008 151.105 41.3711C151.535 40.9414 152.062 40.7266 152.688 40.7266C153.273 40.7266 153.781 40.9414 154.211 41.3711C154.641 41.8008 154.855 42.3086 154.855 42.8945V62.5234L166.281 51.9766C166.789 51.5859 167.355 51.3906 167.98 51.3906C168.645 51.3906 169.113 51.625 169.387 52.0938C169.699 52.5234 169.855 52.9141 169.855 53.2656C169.855 53.9688 169.582 54.5938 169.035 55.1406L162.121 61.3516L170.793 72.8359ZM179.641 65.3359C179.914 67.4844 180.734 69.2031 182.102 70.4922C183.508 71.7422 185.422 72.3672 187.844 72.3672C190.305 72.3672 192.395 71.9766 194.113 71.1953C194.66 70.9219 195.148 70.7852 195.578 70.7852C196.008 70.7461 196.398 70.9023 196.75 71.2539C197.141 71.6055 197.336 71.9961 197.336 72.4258C197.336 73.2852 196.984 73.8906 196.281 74.2422C195.617 74.5938 195.012 74.9062 194.465 75.1797C193.918 75.4531 193.332 75.6875 192.707 75.8828C191.262 76.2734 189.582 76.4688 187.668 76.4688C183.723 76.4688 180.656 75.375 178.469 73.1875C176.32 70.9609 175.246 67.8164 175.246 63.7539C175.246 60.2383 176.164 57.3086 178 54.9648C180.07 52.3477 182.98 51.0391 186.73 51.0391C190.324 51.0391 193.156 52.25 195.227 54.6719C197.18 56.9375 198.156 59.7695 198.156 63.168C198.156 63.7539 197.941 64.2617 197.512 64.6914C197.121 65.1211 196.613 65.3359 195.988 65.3359H179.641ZM186.73 54.7305C183.879 54.7305 181.809 56 180.52 58.5391C180.051 59.4375 179.758 60.5117 179.641 61.7617H193.82C193.703 59.4961 192.863 57.6992 191.301 56.3711C190.051 55.2773 188.527 54.7305 186.73 54.7305ZM204.191 53.5C204.191 52.8359 204.406 52.3086 204.836 51.918C205.266 51.4883 205.793 51.2734 206.418 51.2734C207.043 51.2734 207.551 51.4883 207.941 51.918C208.332 52.3086 208.527 52.8359 208.527 53.5V74.0664C208.527 74.6523 208.332 75.1602 207.941 75.5898C207.551 76.0195 207.043 76.2344 206.418 76.2344C205.793 76.2344 205.266 76.0195 204.836 75.5898C204.406 75.1602 204.191 74.6523 204.191 74.0664V53.5ZM208.996 44.0664C208.996 44.7695 208.762 45.3555 208.293 45.8242C207.824 46.293 207.238 46.5273 206.535 46.5273H206.242C205.539 46.5273 204.953 46.293 204.484 45.8242C204.055 45.3555 203.84 44.7695 203.84 44.0664V43.8906C203.84 43.1875 204.074 42.6016 204.543 42.1328C205.012 41.6641 205.578 41.4297 206.242 41.4297H206.535C207.238 41.4297 207.824 41.6641 208.293 42.1328C208.762 42.6016 208.996 43.1875 208.996 43.8906V44.0664ZM220.656 54.6719C223.039 52.25 225.773 51.0391 228.859 51.0391C231.984 51.0391 234.641 52.1328 236.828 54.3203C239.25 56.7422 240.48 59.8867 240.52 63.7539C240.52 67.6602 239.289 70.8242 236.828 73.2461C234.562 75.4336 231.887 76.5078 228.801 76.4688C225.754 76.4688 223.039 75.2578 220.656 72.8359V74.0664C220.656 74.6523 220.441 75.1602 220.012 75.5898C219.621 76.0195 219.113 76.2344 218.488 76.2344C217.863 76.2344 217.336 76.0195 216.906 75.5898C216.516 75.1602 216.32 74.6523 216.32 74.0664V42.8945C216.32 42.2695 216.516 41.7617 216.906 41.3711C217.336 40.9414 217.863 40.7266 218.488 40.7266C219.113 40.7266 219.621 40.9414 220.012 41.3711C220.441 41.7617 220.656 42.2695 220.656 42.8945V54.6719ZM220.656 68.793C222.844 71.2148 225.383 72.4062 228.273 72.3672C231.945 72.3672 234.387 70.7461 235.598 67.5039C235.988 66.4102 236.164 65.1602 236.125 63.7539C236.125 61.0195 235.402 58.8711 233.957 57.3086C232.551 55.8633 230.656 55.1406 228.273 55.1406C225.383 55.1406 222.844 56.332 220.656 58.7148V68.793ZM257.336 51.0391C261.047 51.0391 264.035 52.2109 266.301 54.5547C268.566 56.9375 269.66 60.0039 269.582 63.7539C269.582 67.543 268.488 70.6094 266.301 72.9531C264.035 75.2969 261.047 76.4688 257.336 76.4688C253.586 76.4688 250.617 75.2969 248.43 72.9531C246.164 70.6094 245.031 67.543 245.031 63.7539C245.031 59.9258 246.164 56.8594 248.43 54.5547C250.617 52.2109 253.586 51.0391 257.336 51.0391ZM251.945 70.5508C252.727 71.2148 253.586 71.7031 254.523 72.0156C255.5 72.3281 256.438 72.4844 257.336 72.4844C258.234 72.4844 259.152 72.3281 260.09 72.0156C261.027 71.7031 261.887 71.1953 262.668 70.4922C264.387 68.9297 265.246 66.6641 265.246 63.6953C265.246 60.8047 264.387 58.5586 262.668 56.957C261.223 55.6289 259.445 54.9844 257.336 55.0234C253.859 55.0234 251.457 56.5859 250.129 59.7109C249.66 60.8438 249.426 62.1914 249.426 63.7539C249.426 65.3164 249.66 66.6641 250.129 67.7969C250.598 68.9297 251.203 69.8477 251.945 70.5508Z" fill="#F9E13F"/>
<path d="M118.176 72.7188L117.784 73.0292L117.789 73.0354L118.176 72.7188ZM118.117 75.6484L118.471 76.002L118.117 75.6484ZM114.836 75.4141L114.442 75.7219L114.449 75.7309L114.456 75.7395L114.836 75.4141ZM102.473 59.5938L102.867 59.2859L102.517 58.8382L102.117 59.2421L102.473 59.5938ZM97.0234 65.1016L96.668 64.7499L96.5234 64.896V65.1016H97.0234ZM96.3789 75.5898L96.7325 75.9434L96.3789 75.5898ZM93.2734 42.9531L93.627 43.3067L93.6347 43.299L93.642 43.291L93.2734 42.9531ZM96.3203 42.8945L95.9668 43.2481L95.9744 43.2558L95.9825 43.2631L96.3203 42.8945ZM97.0234 59.7109H96.5234V60.9303L97.3795 60.062L97.0234 59.7109ZM113.43 43.0703L113.786 43.4213L113.807 43.3995L113.826 43.3752L113.43 43.0703ZM114.953 42.3086V42.8086H114.968L114.982 42.8077L114.953 42.3086ZM116.535 42.8359L116.182 43.1895L116.191 43.1988L116.201 43.2076L116.535 42.8359ZM116.535 45.6484L116.223 45.258L116.202 45.2749L116.183 45.2939L116.535 45.6484ZM105.461 56.6641L105.108 56.3096L104.792 56.6245L105.069 56.9745L105.461 56.6641ZM117.789 73.0354C118.063 73.3705 118.203 73.7648 118.203 74.2422H119.203C119.203 73.5477 118.992 72.9263 118.563 72.4021L117.789 73.0354ZM118.203 74.2422C118.203 74.6549 118.062 74.997 117.764 75.2949L118.471 76.002C118.954 75.5187 119.203 74.9232 119.203 74.2422H118.203ZM117.764 75.2949C117.485 75.5732 117.095 75.7344 116.535 75.7344V76.7344C117.303 76.7344 117.968 76.5049 118.471 76.002L117.764 75.2949ZM116.535 75.7344C116.03 75.7344 115.598 75.5353 115.216 75.0887L114.456 75.7395C115.011 76.3865 115.712 76.7344 116.535 76.7344V75.7344ZM115.23 75.1062L102.867 59.2859L102.079 59.9016L114.442 75.7219L115.23 75.1062ZM102.117 59.2421L96.668 64.7499L97.3789 65.4532L102.828 59.9454L102.117 59.2421ZM96.5234 65.1016V74.0664H97.5234V65.1016H96.5234ZM96.5234 74.0664C96.5234 74.5143 96.3652 74.8965 96.0254 75.2363L96.7325 75.9434C97.252 75.4238 97.5234 74.7903 97.5234 74.0664H96.5234ZM96.0254 75.2363C95.6924 75.5693 95.2935 75.7344 94.7969 75.7344V76.7344C95.5503 76.7344 96.2061 76.4698 96.7325 75.9434L96.0254 75.2363ZM94.7969 75.7344C94.3489 75.7344 93.9668 75.5761 93.627 75.2363L92.9199 75.9434C93.4395 76.463 94.0729 76.7344 94.7969 76.7344V75.7344ZM93.627 75.2363C93.2872 74.8965 93.1289 74.5143 93.1289 74.0664H92.1289C92.1289 74.7903 92.4003 75.4238 92.9199 75.9434L93.627 75.2363ZM93.1289 74.0664V44.4766H92.1289V74.0664H93.1289ZM93.1289 44.4766C93.1289 44.0286 93.2872 43.6465 93.627 43.3067L92.9199 42.5996C92.4003 43.1191 92.1289 43.7526 92.1289 44.4766H93.1289ZM93.642 43.291C93.986 42.9157 94.3639 42.75 94.7969 42.75V41.75C94.058 41.75 93.4202 42.053 92.9049 42.6153L93.642 43.291ZM94.7969 42.75C95.2448 42.75 95.627 42.9083 95.9668 43.2481L96.6739 42.541C96.1543 42.0214 95.5208 41.75 94.7969 41.75V42.75ZM95.9825 43.2631C96.3499 43.6 96.5234 43.9945 96.5234 44.4766H97.5234C97.5234 43.7087 97.2282 43.0485 96.6582 42.526L95.9825 43.2631ZM96.5234 44.4766V59.7109H97.5234V44.4766H96.5234ZM97.3795 60.062L113.786 43.4213L113.074 42.7193L96.6674 59.3599L97.3795 60.062ZM113.826 43.3752C114.125 42.9868 114.488 42.8086 114.953 42.8086V41.8086C114.168 41.8086 113.516 42.1382 113.033 42.7655L113.826 43.3752ZM114.982 42.8077C115.536 42.7752 115.912 42.9203 116.182 43.1895L116.889 42.4824C116.377 41.9703 115.699 41.7639 114.924 41.8095L114.982 42.8077ZM116.201 43.2076C116.466 43.4464 116.621 43.7882 116.621 44.3008H117.621C117.621 43.5633 117.386 42.9286 116.87 42.4643L116.201 43.2076ZM116.621 44.3008C116.621 44.764 116.474 45.0572 116.223 45.258L116.848 46.0389C117.378 45.6147 117.621 45.0095 117.621 44.3008H116.621ZM116.183 45.2939L105.108 56.3096L105.814 57.0186L116.888 46.0029L116.183 45.2939ZM105.069 56.9745L117.784 73.0292L118.568 72.4083L105.853 56.3536L105.069 56.9745ZM124.797 52.7383L124.986 53.2012L124.996 53.1968L124.797 52.7383ZM133.176 51.0391L133.169 51.5391H133.176V51.0391ZM140.734 54.0273L140.363 54.3623L140.369 54.3682L140.734 54.0273ZM143.195 60.4727H143.695L143.695 60.4651L143.195 60.4727ZM142.492 75.5898L142.154 75.2213L142.146 75.2286L142.139 75.2363L142.492 75.5898ZM138.742 72.8359H139.242V71.5899L138.381 72.4903L138.742 72.8359ZM135.285 75.3555L135.514 75.8004L135.523 75.7953L135.285 75.3555ZM124.211 74.5352L123.882 74.912L123.883 74.9127L124.211 74.5352ZM124.621 63.6953L124.319 63.2972L124.318 63.2974L124.621 63.6953ZM132.941 61.5273L132.936 62.0273H132.941V61.5273ZM138.742 61.5273V62.0273H139.242V61.5273H138.742ZM137.16 56.5469L136.829 56.9214L136.836 56.9275L137.16 56.5469ZM125.969 56.3125L125.822 55.8343L125.811 55.8382L125.969 56.3125ZM124.094 55.9609L123.74 56.3145L123.751 56.3249L123.762 56.3346L124.094 55.9609ZM123.508 54.3789H123.008V54.3928L123.009 54.4066L123.508 54.3789ZM131.418 72.6016V72.1015L131.412 72.1016L131.418 72.6016ZM135.578 71.5469L135.818 71.9858L135.822 71.9833L135.578 71.5469ZM138.742 69.0859L139.119 69.414L139.242 69.2729V69.0859H138.742ZM138.742 65.043H139.242V64.543H138.742V65.043ZM128.254 65.9219L128.449 66.3823L128.461 66.3771L128.254 65.9219ZM124.996 53.1968C127.628 52.0527 130.35 51.5009 133.169 51.539L133.183 50.5391C130.22 50.4991 127.357 51.0801 124.598 52.2797L124.996 53.1968ZM133.176 51.5391C136.308 51.5391 138.681 52.4968 140.363 54.3622L141.106 53.6925C139.194 51.5735 136.527 50.5391 133.176 50.5391V51.5391ZM140.369 54.3682C141.877 55.9872 142.658 58.0129 142.695 60.4802L143.695 60.4651C143.655 57.7762 142.795 55.505 141.1 53.6865L140.369 54.3682ZM142.695 60.4727V74.0664H143.695V60.4727H142.695ZM142.695 74.0664C142.695 74.4994 142.53 74.8773 142.154 75.2213L142.83 75.9584C143.392 75.4431 143.695 74.8053 143.695 74.0664H142.695ZM142.139 75.2363C141.806 75.5693 141.407 75.7344 140.91 75.7344V76.7344C141.664 76.7344 142.319 76.4698 142.846 75.9434L142.139 75.2363ZM140.91 75.7344C140.462 75.7344 140.08 75.5761 139.74 75.2363L139.033 75.9434C139.553 76.463 140.186 76.7344 140.91 76.7344V75.7344ZM139.74 75.2363C139.4 74.8965 139.242 74.5143 139.242 74.0664H138.242C138.242 74.7903 138.514 75.4238 139.033 75.9434L139.74 75.2363ZM139.242 74.0664V72.8359H138.242V74.0664H139.242ZM138.381 72.4903C137.567 73.3412 136.461 74.1517 135.047 74.9156L135.523 75.7953C137 74.9968 138.199 74.1275 139.104 73.1815L138.381 72.4903ZM135.057 74.9107C133.703 75.6057 131.952 75.9688 129.777 75.9688V76.9688C132.055 76.9688 133.976 76.5896 135.514 75.8003L135.057 74.9107ZM129.777 75.9688C127.654 75.9688 125.92 75.3572 124.539 74.1576L123.883 74.9127C125.471 76.2912 127.447 76.9688 129.777 76.9688V75.9688ZM124.54 74.1583C123.133 72.9317 122.426 71.3346 122.426 69.3203H121.426C121.426 71.6029 122.242 73.4824 123.882 74.912L124.54 74.1583ZM122.426 69.3203C122.426 67.0836 123.259 65.3599 124.924 64.0932L124.318 63.2974C122.389 64.7651 121.426 66.7914 121.426 69.3203H122.426ZM124.924 64.0934C126.755 62.7012 129.404 61.9889 132.936 62.0273L132.947 61.0274C129.292 60.9876 126.393 61.7207 124.319 63.2972L124.924 64.0934ZM132.941 62.0273H138.742V61.0273H132.941V62.0273ZM139.242 61.5273V61.1172H138.242V61.5273H139.242ZM139.242 61.1172C139.242 58.9029 138.7 57.2018 137.484 56.1663L136.836 56.9275C137.73 57.6888 138.242 59.0346 138.242 61.1172H139.242ZM137.491 56.1724C136.343 55.1561 134.594 54.6992 132.355 54.6992V55.6992C134.491 55.6992 135.946 56.1407 136.829 56.9214L137.491 56.1724ZM132.355 54.6992C130.455 54.6992 128.275 55.0828 125.822 55.8344L126.115 56.7906C128.506 56.0578 130.584 55.6992 132.355 55.6992V54.6992ZM125.811 55.8382C125.644 55.8938 125.408 55.9297 125.09 55.9297V56.9297C125.474 56.9297 125.825 56.8875 126.127 56.7868L125.811 55.8382ZM125.09 55.9297C124.949 55.9297 124.731 55.8582 124.426 55.5872L123.762 56.3346C124.16 56.6886 124.606 56.9297 125.09 56.9297V55.9297ZM124.447 55.6074C124.213 55.3731 124.042 54.9823 124.007 54.3512L123.009 54.4066C123.052 55.1818 123.271 55.8456 123.74 56.3145L124.447 55.6074ZM124.008 54.3789C124.008 54.1118 124.082 53.9002 124.223 53.721C124.37 53.5347 124.611 53.3547 124.986 53.2011L124.608 52.2755C124.124 52.4735 123.72 52.7426 123.437 53.1032C123.148 53.4709 123.008 53.9038 123.008 54.3789H124.008ZM125.82 68.793C125.82 70.2017 126.292 71.3294 127.295 72.0793C128.272 72.8089 129.676 73.1216 131.424 73.1015L131.412 72.1016C129.761 72.1206 128.617 71.8181 127.894 71.2782C127.198 70.7585 126.82 69.9624 126.82 68.793H125.82ZM131.418 73.1016C132.985 73.1016 134.454 72.7295 135.818 71.9858L135.339 71.1079C134.124 71.7705 132.82 72.1016 131.418 72.1016V73.1016ZM135.822 71.9833C137.187 71.2205 138.291 70.3662 139.119 69.414L138.365 68.7578C137.63 69.6025 136.625 70.3889 135.334 71.1104L135.822 71.9833ZM139.242 69.0859V65.043H138.242V69.0859H139.242ZM138.742 64.543H133.586V65.543H138.742V64.543ZM133.586 64.543C131.287 64.543 129.428 64.8388 128.047 65.4667L128.461 66.3771C129.657 65.8331 131.354 65.543 133.586 65.543V64.543ZM128.059 65.4616C127.344 65.7647 126.776 66.196 126.389 66.7705C126.002 67.3459 125.82 68.0286 125.82 68.793H126.82C126.82 68.1901 126.961 67.7108 127.218 67.3291C127.476 66.9466 127.875 66.6259 128.449 66.3822L128.059 65.4616ZM170.793 72.8359L170.394 73.1374L170.403 73.1483L170.793 72.8359ZM170.617 75.707L170.952 76.0787L170.954 76.077L170.617 75.707ZM167.277 75.3555L166.874 75.6514L166.892 75.6751L166.912 75.6966L167.277 75.3555ZM159.016 64.1055L159.419 63.8095L159.089 63.3605L158.678 63.7367L159.016 64.1055ZM154.855 67.9141L154.518 67.5453L154.355 67.6939V67.9141H154.855ZM154.211 75.5898L153.857 75.2363L154.211 75.5898ZM151.105 41.3711L150.752 41.0175L150.744 41.026L150.735 41.0348L151.105 41.3711ZM154.211 41.3711L153.857 41.7246L154.211 41.3711ZM154.855 62.5234H154.355V63.6654L155.195 62.8908L154.855 62.5234ZM166.281 51.9766L165.976 51.5803L165.959 51.5939L165.942 51.6092L166.281 51.9766ZM169.387 52.0938L168.955 52.3457L168.968 52.3675L168.982 52.3878L169.387 52.0938ZM169.035 55.1406L169.369 55.5126L169.379 55.5036L169.389 55.4942L169.035 55.1406ZM162.121 61.3516L161.787 60.9796L161.445 61.2864L161.722 61.6529L162.121 61.3516ZM170.403 73.1483C170.632 73.4356 170.762 73.8081 170.762 74.3008H171.762C171.762 73.6216 171.579 73.0175 171.183 72.5236L170.403 73.1483ZM170.762 74.3008C170.762 74.6973 170.614 75.0346 170.281 75.3371L170.954 76.077C171.48 75.5982 171.762 74.9981 171.762 74.3008H170.762ZM170.283 75.3354C169.98 75.6075 169.649 75.7344 169.27 75.7344V76.7344C169.906 76.7344 170.473 76.5097 170.952 76.0787L170.283 75.3354ZM169.27 75.7344C168.631 75.7344 168.098 75.5019 167.643 75.0143L166.912 75.6966C167.55 76.3809 168.346 76.7344 169.27 76.7344V75.7344ZM167.68 75.0595L159.419 63.8095L158.613 64.4014L166.874 75.6514L167.68 75.0595ZM158.678 63.7367L154.518 67.5453L155.193 68.2829L159.353 64.4743L158.678 63.7367ZM154.355 67.9141V74.0664H155.355V67.9141H154.355ZM154.355 74.0664C154.355 74.5143 154.197 74.8965 153.857 75.2363L154.564 75.9434C155.084 75.4238 155.355 74.7903 155.355 74.0664H154.355ZM153.857 75.2363C153.518 75.5761 153.135 75.7344 152.688 75.7344V76.7344C153.411 76.7344 154.045 76.463 154.564 75.9434L153.857 75.2363ZM152.688 75.7344C152.24 75.7344 151.857 75.5761 151.518 75.2363L150.811 75.9434C151.33 76.463 151.964 76.7344 152.688 76.7344V75.7344ZM151.518 75.2363C151.178 74.8965 151.02 74.5143 151.02 74.0664H150.02C150.02 74.7903 150.291 75.4238 150.811 75.9434L151.518 75.2363ZM151.02 74.0664V42.8945H150.02V74.0664H151.02ZM151.02 42.8945C151.02 42.4317 151.169 42.0442 151.475 41.7074L150.735 41.0348C150.26 41.5574 150.02 42.1855 150.02 42.8945H151.02ZM151.459 41.7246C151.792 41.3917 152.191 41.2266 152.688 41.2266V40.2266C151.934 40.2266 151.278 40.4911 150.752 41.0175L151.459 41.7246ZM152.688 41.2266C153.135 41.2266 153.518 41.3848 153.857 41.7246L154.564 41.0175C154.045 40.498 153.411 40.2266 152.688 40.2266V41.2266ZM153.857 41.7246C154.197 42.0644 154.355 42.4466 154.355 42.8945H155.355C155.355 42.1706 155.084 41.5371 154.564 41.0175L153.857 41.7246ZM154.355 42.8945V62.5234H155.355V42.8945H154.355ZM155.195 62.8908L166.62 52.344L165.942 51.6092L154.516 62.156L155.195 62.8908ZM166.586 52.3729C167.009 52.0477 167.469 51.8906 167.98 51.8906V50.8906C167.242 50.8906 166.569 51.1242 165.976 51.5803L166.586 52.3729ZM167.98 51.8906C168.513 51.8906 168.792 52.0669 168.955 52.3457L169.819 51.8418C169.434 51.1831 168.776 50.8906 167.98 50.8906V51.8906ZM168.982 52.3878C169.263 52.7733 169.355 53.0613 169.355 53.2656H170.355C170.355 52.7668 170.136 52.2736 169.791 51.7997L168.982 52.3878ZM169.355 53.2656C169.355 53.8223 169.145 54.3237 168.682 54.7871L169.389 55.4942C170.019 54.8638 170.355 54.1152 170.355 53.2656H169.355ZM168.701 54.7687L161.787 60.9796L162.455 61.7235L169.369 55.5126L168.701 54.7687ZM161.722 61.6529L170.394 73.1372L171.192 72.5346L162.52 61.0503L161.722 61.6529ZM179.641 65.3359V64.8359H179.073L179.145 65.3991L179.641 65.3359ZM182.102 70.4922L181.759 70.856L181.764 70.861L181.769 70.8659L182.102 70.4922ZM194.113 71.1953L194.32 71.6505L194.329 71.6467L194.337 71.6425L194.113 71.1953ZM195.578 70.7852V71.2852H195.601L195.623 71.2831L195.578 70.7852ZM196.75 71.2539L196.396 71.6075L196.406 71.6168L196.416 71.6256L196.75 71.2539ZM196.281 74.2422L196.058 73.7949L196.047 73.8003L196.281 74.2422ZM192.707 75.8828L192.837 76.3655L192.847 76.363L192.856 76.3601L192.707 75.8828ZM178.469 73.1875L178.109 73.5347L178.115 73.5411L178.469 73.1875ZM178 54.9648L177.608 54.6546L177.606 54.6565L178 54.9648ZM195.227 54.6719L194.846 54.9968L194.848 54.9983L195.227 54.6719ZM197.512 64.6914L197.158 64.3379L197.15 64.3463L197.142 64.3551L197.512 64.6914ZM180.52 58.5391L180.963 58.7704L180.965 58.7654L180.52 58.5391ZM179.641 61.7617L179.143 61.715L179.092 62.2617H179.641V61.7617ZM193.82 61.7617V62.2617H194.347L194.32 61.7359L193.82 61.7617ZM191.301 56.3711L190.971 56.7474L190.977 56.7521L191.301 56.3711ZM179.145 65.3991C179.43 67.644 180.294 69.4755 181.759 70.856L182.445 70.1284C181.174 68.9307 180.398 67.3248 180.137 65.2728L179.145 65.3991ZM181.769 70.8659C183.291 72.2184 185.336 72.8672 187.844 72.8672V71.8672C185.508 71.8672 183.725 71.2659 182.434 70.1185L181.769 70.8659ZM187.844 72.8672C190.355 72.8672 192.52 72.4688 194.32 71.6505L193.906 70.7401C192.269 71.4843 190.254 71.8672 187.844 71.8672V72.8672ZM194.337 71.6425C194.842 71.3901 195.252 71.2852 195.578 71.2852V70.2852C195.045 70.2852 194.479 70.4537 193.89 70.7481L194.337 71.6425ZM195.623 71.2831C195.882 71.2596 196.132 71.343 196.396 71.6075L197.104 70.9004C196.665 70.4617 196.134 70.2326 195.533 70.2872L195.623 71.2831ZM196.416 71.6256C196.726 71.9052 196.836 72.1688 196.836 72.4258H197.836C197.836 71.8234 197.555 71.3058 197.084 70.8823L196.416 71.6256ZM196.836 72.4258C196.836 72.7872 196.762 73.0624 196.64 73.2733C196.519 73.4816 196.333 73.6573 196.058 73.795L196.505 74.6894C196.933 74.4755 197.274 74.1727 197.505 73.7755C197.734 73.3809 197.836 72.9237 197.836 72.4258H196.836ZM196.047 73.8003C195.386 74.1504 194.784 74.4611 194.241 74.7325L194.688 75.6269C195.239 75.3514 195.848 75.0371 196.515 74.6841L196.047 73.8003ZM194.241 74.7325C193.72 74.9931 193.159 75.2177 192.558 75.4056L192.856 76.3601C193.505 76.1573 194.116 75.9131 194.688 75.6269L194.241 74.7325ZM192.577 75.4001C191.184 75.7766 189.55 75.9688 187.668 75.9688V76.9688C189.615 76.9688 191.34 76.7703 192.837 76.3655L192.577 75.4001ZM187.668 75.9688C183.817 75.9688 180.892 74.9037 178.822 72.8339L178.115 73.5411C180.42 75.8463 183.628 76.9688 187.668 76.9688V75.9688ZM178.829 72.8403C176.795 70.7333 175.746 67.7288 175.746 63.7539H174.746C174.746 67.904 175.845 71.1886 178.109 73.5347L178.829 72.8403ZM175.746 63.7539C175.746 60.3291 176.639 57.5137 178.394 55.2732L177.606 54.6565C175.69 57.1035 174.746 60.1475 174.746 63.7539H175.746ZM178.392 55.275C180.355 52.7936 183.112 51.5391 186.73 51.5391V50.5391C182.849 50.5391 179.786 51.9017 177.608 54.6546L178.392 55.275ZM186.73 51.5391C190.199 51.5391 192.884 52.701 194.847 54.9968L195.607 54.347C193.429 51.799 190.449 50.5391 186.73 50.5391V51.5391ZM194.848 54.9983C196.712 57.1609 197.656 59.872 197.656 63.168H198.656C198.656 59.6671 197.647 56.7141 195.605 54.3454L194.848 54.9983ZM197.656 63.168C197.656 63.6159 197.498 63.9981 197.158 64.3379L197.865 65.045C198.385 64.5254 198.656 63.8919 198.656 63.168H197.656ZM197.142 64.3551C196.854 64.6719 196.484 64.8359 195.988 64.8359V65.8359C196.742 65.8359 197.388 65.5703 197.882 65.0277L197.142 64.3551ZM195.988 64.8359H179.641V65.8359H195.988V64.8359ZM186.73 54.2305C185.229 54.2305 183.904 54.5655 182.778 55.2564C181.651 55.9473 180.753 56.9752 180.074 58.3127L180.965 58.7654C181.575 57.5639 182.357 56.6875 183.3 56.1089C184.244 55.5302 185.381 55.2305 186.73 55.2305V54.2305ZM180.076 58.3078C179.571 59.2756 179.265 60.4155 179.143 61.715L180.138 61.8084C180.251 60.608 180.53 59.5994 180.963 58.7703L180.076 58.3078ZM179.641 62.2617H193.82V61.2617H179.641V62.2617ZM194.32 61.7359C194.196 59.349 193.304 57.4174 191.625 55.9901L190.977 56.7521C192.423 57.981 193.21 59.6432 193.321 61.7875L194.32 61.7359ZM191.63 55.9948C190.281 54.8145 188.638 54.2305 186.73 54.2305V55.2305C188.417 55.2305 189.82 55.7402 190.972 56.7474L191.63 55.9948ZM204.836 51.918L205.172 52.2879L205.181 52.2799L205.189 52.2715L204.836 51.918ZM207.941 51.918L207.571 52.2543L207.579 52.2631L207.588 52.2715L207.941 51.918ZM204.484 45.8242L204.116 46.1621L204.123 46.1701L204.131 46.1778L204.484 45.8242ZM204.691 53.5C204.691 52.9545 204.862 52.5698 205.172 52.2879L204.5 51.548C203.95 52.0474 203.691 52.7174 203.691 53.5H204.691ZM205.189 52.2715C205.522 51.9386 205.921 51.7734 206.418 51.7734V50.7734C205.665 50.7734 205.009 51.038 204.482 51.5644L205.189 52.2715ZM206.418 51.7734C206.914 51.7734 207.283 51.9375 207.571 52.2543L208.311 51.5816C207.818 51.0391 207.172 50.7734 206.418 50.7734V51.7734ZM207.588 52.2715C207.866 52.5499 208.027 52.9399 208.027 53.5H209.027C209.027 52.732 208.798 52.0673 208.295 51.5644L207.588 52.2715ZM208.027 53.5V74.0664H209.027V53.5H208.027ZM208.027 74.0664C208.027 74.5292 207.878 74.9168 207.571 75.2535L208.311 75.9262C208.787 75.4035 209.027 74.7755 209.027 74.0664H208.027ZM207.571 75.2535C207.283 75.5704 206.914 75.7344 206.418 75.7344V76.7344C207.172 76.7344 207.818 76.4687 208.311 75.9262L207.571 75.2535ZM206.418 75.7344C205.921 75.7344 205.522 75.5693 205.189 75.2363L204.482 75.9434C205.009 76.4698 205.665 76.7344 206.418 76.7344V75.7344ZM205.189 75.2363C204.85 74.8965 204.691 74.5143 204.691 74.0664H203.691C203.691 74.7903 203.963 75.4238 204.482 75.9434L205.189 75.2363ZM204.691 74.0664V53.5H203.691V74.0664H204.691ZM208.496 44.0664C208.496 44.6459 208.308 45.1018 207.939 45.4707L208.647 46.1778C209.215 45.6091 209.496 44.8932 209.496 44.0664H208.496ZM207.939 45.4707C207.571 45.8395 207.115 46.0273 206.535 46.0273V47.0273C207.362 47.0273 208.078 46.7464 208.647 46.1778L207.939 45.4707ZM206.535 46.0273H206.242V47.0273H206.535V46.0273ZM206.242 46.0273C205.663 46.0273 205.207 45.8395 204.838 45.4707L204.131 46.1778C204.699 46.7464 205.415 47.0273 206.242 47.0273V46.0273ZM204.853 45.4864C204.517 45.1199 204.34 44.6588 204.34 44.0664H203.34C203.34 44.8803 203.592 45.5911 204.116 46.1621L204.853 45.4864ZM204.34 44.0664V43.8906H203.34V44.0664H204.34ZM204.34 43.8906C204.34 43.3112 204.528 42.8552 204.897 42.4864L204.189 41.7793C203.621 42.3479 203.34 43.0638 203.34 43.8906H204.34ZM204.897 42.4864C205.271 42.1116 205.71 41.9297 206.242 41.9297V40.9297C205.446 40.9297 204.752 41.2166 204.189 41.7793L204.897 42.4864ZM206.242 41.9297H206.535V40.9297H206.242V41.9297ZM206.535 41.9297C207.115 41.9297 207.571 42.1175 207.939 42.4864L208.647 41.7793C208.078 41.2106 207.362 40.9297 206.535 40.9297V41.9297ZM207.939 42.4864C208.308 42.8552 208.496 43.3112 208.496 43.8906H209.496C209.496 43.0638 209.215 42.3479 208.647 41.7793L207.939 42.4864ZM208.496 43.8906V44.0664H209.496V43.8906H208.496ZM220.656 54.6719H220.156V55.893L221.013 55.0225L220.656 54.6719ZM240.52 63.7539H241.02L241.02 63.7489L240.52 63.7539ZM236.828 73.2461L237.175 73.6058L237.179 73.6025L236.828 73.2461ZM228.801 76.4688L228.807 75.9688H228.801V76.4688ZM220.656 72.8359L221.013 72.4853L220.156 71.6148V72.8359H220.656ZM220.012 75.5898L219.658 75.2363L219.65 75.2447L219.642 75.2535L220.012 75.5898ZM216.906 75.5898L216.536 75.9262L216.544 75.935L216.553 75.9434L216.906 75.5898ZM220.012 41.3711L219.642 41.7074L219.658 41.725L219.675 41.7411L220.012 41.3711ZM220.656 68.793H220.156V68.9853L220.285 69.1281L220.656 68.793ZM228.273 72.3672V71.8671L228.267 71.8672L228.273 72.3672ZM235.598 67.5039L236.066 67.6789L236.069 67.6721L235.598 67.5039ZM236.125 63.7539H235.625L235.625 63.7678L236.125 63.7539ZM233.957 57.3086L234.324 56.969L234.315 56.9599L233.957 57.3086ZM220.656 58.7148L220.288 58.3767L220.156 58.5201V58.7148H220.656ZM221.013 55.0225C223.312 52.6856 225.922 51.5391 228.859 51.5391V50.5391C225.625 50.5391 222.766 51.8144 220.3 54.3212L221.013 55.0225ZM228.859 51.5391C231.853 51.5391 234.382 52.5812 236.475 54.6739L237.182 53.9668C234.899 51.6844 232.115 50.5391 228.859 50.5391V51.5391ZM236.475 54.6739C238.792 56.991 239.982 60.0043 240.02 63.759L241.02 63.7489C240.979 59.7692 239.708 56.4934 237.182 53.9668L236.475 54.6739ZM240.02 63.7539C240.02 67.5454 238.83 70.5745 236.477 72.8897L237.179 73.6025C239.748 71.0739 241.02 67.7749 241.02 63.7539H240.02ZM236.481 72.8864C234.308 74.9845 231.758 76.0061 228.807 75.9688L228.794 76.9687C232.015 77.0095 234.817 75.8827 237.175 73.6058L236.481 72.8864ZM228.801 75.9688C225.904 75.9688 223.313 74.8237 221.013 72.4853L220.3 73.1866C222.765 75.6919 225.604 76.9688 228.801 76.9688V75.9688ZM220.156 72.8359V74.0664H221.156V72.8359H220.156ZM220.156 74.0664C220.156 74.5143 219.998 74.8965 219.658 75.2363L220.365 75.9434C220.885 75.4238 221.156 74.7903 221.156 74.0664H220.156ZM219.642 75.2535C219.354 75.5704 218.984 75.7344 218.488 75.7344V76.7344C219.242 76.7344 219.888 76.4687 220.382 75.9262L219.642 75.2535ZM218.488 75.7344C217.992 75.7344 217.593 75.5693 217.26 75.2363L216.553 75.9434C217.079 76.4698 217.735 76.7344 218.488 76.7344V75.7344ZM217.276 75.2535C216.97 74.9168 216.82 74.5292 216.82 74.0664H215.82C215.82 74.7755 216.061 75.4035 216.536 75.9262L217.276 75.2535ZM216.82 74.0664V42.8945H215.82V74.0664H216.82ZM216.82 42.8945C216.82 42.3832 216.976 42.0089 217.26 41.7246L216.553 41.0175C216.056 41.5146 215.82 42.1559 215.82 42.8945H216.82ZM217.26 41.7246C217.593 41.3917 217.992 41.2266 218.488 41.2266V40.2266C217.735 40.2266 217.079 40.4911 216.553 41.0175L217.26 41.7246ZM218.488 41.2266C218.984 41.2266 219.354 41.3906 219.642 41.7074L220.382 41.0348C219.888 40.4922 219.242 40.2266 218.488 40.2266V41.2266ZM219.675 41.7411C219.992 42.0291 220.156 42.3983 220.156 42.8945H221.156C221.156 42.1407 220.891 41.4943 220.348 41.0011L219.675 41.7411ZM220.156 42.8945V54.6719H221.156V42.8945H220.156ZM220.285 69.1281C222.555 71.6414 225.226 72.9084 228.28 72.8671L228.267 71.8672C225.539 71.9041 223.132 70.7883 221.027 68.4578L220.285 69.1281ZM228.273 72.8672C230.183 72.8672 231.814 72.4452 233.135 71.5679C234.459 70.6891 235.431 69.3803 236.066 67.6788L235.129 67.329C234.554 68.8697 233.7 69.9926 232.582 70.7348C231.462 71.4786 230.036 71.8672 228.273 71.8672V72.8672ZM236.069 67.6721C236.484 66.5091 236.665 65.1955 236.625 63.74L235.625 63.7678C235.663 65.1248 235.493 66.3113 235.127 67.3357L236.069 67.6721ZM236.625 63.7539C236.625 60.9307 235.877 58.648 234.324 56.9691L233.59 57.6481C234.928 59.0942 235.625 61.1083 235.625 63.7539H236.625ZM234.315 56.9599C232.798 55.4004 230.765 54.6406 228.273 54.6406V55.6406C230.548 55.6406 232.304 56.3262 233.599 57.6573L234.315 56.9599ZM228.273 54.6406C225.225 54.6406 222.558 55.9044 220.288 58.3767L221.025 59.053C223.13 56.7597 225.54 55.6406 228.273 55.6406V54.6406ZM220.156 58.7148V68.793H221.156V58.7148H220.156ZM266.301 54.5547L266.663 54.2101L266.66 54.2072L266.301 54.5547ZM269.582 63.7539L269.082 63.7435V63.7539H269.582ZM266.301 72.9531L266.66 73.3007L266.666 73.2943L266.301 72.9531ZM248.43 72.9531L248.795 72.6119L248.789 72.6056L248.43 72.9531ZM248.43 54.5547L248.786 54.9053L248.795 54.8958L248.43 54.5547ZM251.945 70.5508L251.601 70.9138L251.611 70.923L251.621 70.9318L251.945 70.5508ZM254.523 72.0156L254.365 72.49L254.371 72.4918L254.523 72.0156ZM262.668 70.4922L263.002 70.8638L263.004 70.8622L262.668 70.4922ZM262.668 56.957L263.009 56.5912L263.006 56.5889L262.668 56.957ZM257.336 55.0234V55.5235L257.345 55.5234L257.336 55.0234ZM250.129 59.7109L249.669 59.5154L249.667 59.5198L250.129 59.7109ZM257.336 51.5391C260.932 51.5391 263.783 52.6697 265.941 54.9022L266.66 54.2072C264.287 51.7521 261.162 50.5391 257.336 50.5391V51.5391ZM265.938 54.8992C268.1 57.1728 269.158 60.1052 269.082 63.7435L270.082 63.7643C270.162 59.9026 269.033 56.7022 266.663 54.2102L265.938 54.8992ZM269.082 63.7539C269.082 67.4408 268.021 70.3773 265.935 72.612L266.666 73.2943C268.956 70.8415 270.082 67.6451 270.082 63.7539H269.082ZM265.941 72.6056C263.783 74.8381 260.932 75.9688 257.336 75.9688V76.9688C261.162 76.9688 264.287 75.7557 266.66 73.3006L265.941 72.6056ZM257.336 75.9688C253.699 75.9688 250.872 74.8371 248.795 72.612L248.064 73.2943C250.362 75.7567 253.473 76.9688 257.336 76.9688V75.9688ZM248.789 72.6056C246.628 70.3702 245.531 67.4359 245.531 63.7539H244.531C244.531 67.65 245.7 70.8486 248.07 73.3006L248.789 72.6056ZM245.531 63.7539C245.531 60.031 246.629 57.0994 248.786 54.9052L248.073 54.2042C245.699 56.6194 244.531 59.8206 244.531 63.7539H245.531ZM248.795 54.8958C250.872 52.6708 253.699 51.5391 257.336 51.5391V50.5391C253.473 50.5391 250.362 51.7511 248.064 54.2135L248.795 54.8958ZM251.621 70.9318C252.45 71.6357 253.365 72.1565 254.365 72.49L254.682 71.5413C253.807 71.2498 253.003 70.794 252.269 70.1698L251.621 70.9318ZM254.371 72.4918C255.39 72.8179 256.379 72.9844 257.336 72.9844V71.9844C256.496 71.9844 255.61 71.8383 254.676 71.5394L254.371 72.4918ZM257.336 72.9844C258.293 72.9844 259.265 72.8178 260.248 72.49L259.932 71.5413C259.04 71.8385 258.176 71.9844 257.336 71.9844V72.9844ZM260.248 72.49C261.255 72.1544 262.173 71.61 263.002 70.8638L262.333 70.1205C261.6 70.7806 260.8 71.2519 259.932 71.5413L260.248 72.49ZM263.004 70.8622C264.855 69.1801 265.746 66.7632 265.746 63.6953H264.746C264.746 66.5649 263.919 68.6793 262.332 70.1222L263.004 70.8622ZM265.746 63.6953C265.746 60.7003 264.852 58.3085 263.009 56.5912L262.327 57.3228C263.922 58.8087 264.746 60.9091 264.746 63.6953H265.746ZM263.006 56.5889C261.459 55.1669 259.554 54.4823 257.327 54.5235L257.345 55.5234C259.337 55.4865 260.986 56.0909 262.33 57.3252L263.006 56.5889ZM257.336 54.5234C255.522 54.5234 253.952 54.9318 252.654 55.7762C251.355 56.621 250.364 57.8786 249.669 59.5154L250.589 59.9065C251.222 58.4183 252.096 57.3321 253.199 56.6145C254.304 55.8963 255.674 55.5234 257.336 55.5234V54.5234ZM249.667 59.5198C249.167 60.7273 248.926 62.1431 248.926 63.7539H249.926C249.926 62.2397 250.153 60.9602 250.591 59.9021L249.667 59.5198ZM248.926 63.7539C248.926 65.3647 249.167 66.7805 249.667 67.9881L250.591 67.6057C250.153 66.5477 249.926 65.2681 249.926 63.7539H248.926ZM249.667 67.9881C250.157 69.1731 250.799 70.1537 251.601 70.9138L252.289 70.1878C251.607 69.5416 251.038 68.6863 250.591 67.6057L249.667 67.9881Z" fill="black"/>
</svg>
