<svg width="321" height="80" viewBox="0 0 321 80" fill="none" xmlns="http://www.w3.org/2000/svg">
<circle cx="35" cy="35" r="34.5" fill="white" stroke="black"/>
<mask id="path-2-inside-1" fill="white">
<path d="M50.9443 31.2874C50.9367 30.2053 50.9276 28.942 50.9184 27.7608C50.9108 26.7197 50.9032 25.7487 50.8971 25.0181C50.8941 24.6528 50.8909 24.3484 50.8879 24.1247C50.8849 24.0135 50.8833 23.9223 50.8818 23.8522L50.8788 23.7578C50.8772 23.7259 50.8788 23.7121 50.8726 23.6421V23.6391C50.7478 22.531 50.5469 20.4032 49.0218 18.5372C48.2593 17.6056 47.1694 16.7686 45.6961 16.1871C45.0248 15.9238 44.2715 15.7123 43.4359 15.557C43.9701 14.7001 44.2852 13.694 44.2852 12.6103C44.2852 9.51136 41.7738 7 38.6749 7C37.0478 7 35.5913 7.70321 34.5669 8.81126C33.5427 7.70029 32.0785 7.0001 30.4469 7.0001C27.3511 7.0001 24.8396 9.51145 24.8396 12.6104C24.8396 13.6971 25.1592 14.7063 25.695 15.5662C24.6386 15.758 23.7026 16.0351 22.9066 16.4004C20.899 17.3136 19.7088 18.7474 19.0786 20.1325C18.4424 21.5114 18.3099 22.8356 18.2217 23.6393V23.6423C18.2141 23.7215 18.2156 23.7337 18.2125 23.7732C18.2049 24.0198 18.1988 24.7382 18.1912 25.7336C18.179 27.2191 18.1668 29.2678 18.1577 30.9512C18.1577 31.073 18.1577 31.1887 18.1577 31.3074C14.3587 34.5403 9.78336 37.904 9.62964 43.2768C9.45177 49.6053 14.4121 54.0223 20.2249 54.7437C25.2339 55.3677 28.689 55.5535 34.5626 55.5535C40.4346 55.5535 43.8897 55.3678 48.9003 54.7437C54.7115 54.0223 59.6734 49.6053 59.4954 43.2766C59.3415 37.8916 54.7464 34.5279 50.9443 31.2874ZM48.6414 23.8766V23.8796L48.6399 23.8766H48.6414ZM35.8959 13.9254C35.9324 13.7747 35.9598 13.6332 35.9811 13.4993L35.9827 13.4931L35.9888 13.4536C35.9964 13.3957 36.0071 13.341 36.0147 13.2831V13.277C36.0391 13.07 36.0588 12.8478 36.0588 12.6103C36.0588 12.4125 36.0467 12.2176 36.0269 12.0258L36.0253 11.9985L36.0086 11.901C35.9903 11.7519 35.9705 11.6058 35.9385 11.4611C35.9385 11.4611 35.9385 11.4566 35.9385 11.455L35.9309 11.42L35.9112 11.35C35.8762 11.1993 35.8381 11.0486 35.7924 10.9055C35.7909 10.9025 35.7909 10.9025 35.7909 10.9025L35.7893 10.8903C36.3753 9.90402 37.4453 9.24192 38.6751 9.24348C39.6081 9.24348 40.4437 9.61792 41.0571 10.2298C41.6659 10.8416 42.0418 11.6757 42.0434 12.6103C42.0434 13.7032 41.5182 14.6621 40.707 15.2799C40.4832 15.2738 40.258 15.2678 40.0267 15.2678H36.6371C36.2946 15.0059 36.0039 14.6849 35.7847 14.315C35.7985 14.2693 35.8152 14.2267 35.8304 14.1765C35.832 14.1689 35.8334 14.1627 35.835 14.1537C35.8548 14.0836 35.8745 14.0136 35.8928 13.9405C35.8959 13.9314 35.8959 13.9253 35.899 13.9162L35.8959 13.9254ZM39.2444 44.0712C38.9338 44.6526 38.5062 45.1397 37.9658 45.5369C37.424 45.9341 36.7741 46.231 36.0192 46.4242C35.6889 46.5095 35.3433 46.5673 34.9918 46.613V48.8139H32.3677V46.6587C31.622 46.5948 30.9066 46.4791 30.2353 46.2934C29.2079 46.0133 27.8625 44.8779 27.8625 44.8779C27.7483 44.8109 27.6707 44.6923 27.6555 44.5613C27.6387 44.429 27.6828 44.2965 27.7772 44.2021L29.0923 42.887C29.2338 42.747 29.4546 42.7196 29.625 42.8246C29.625 42.8246 30.6083 43.6785 31.3541 43.8824C32.0999 44.0833 32.8396 44.1868 33.5763 44.1868C34.5079 44.1868 35.278 44.0224 35.8868 43.6936C36.4986 43.3633 36.8031 42.8504 36.8031 42.1502C36.8031 41.648 36.6539 41.2507 36.3525 40.9599C36.0511 40.6707 35.5427 40.4881 34.8275 40.409L32.4713 40.205C31.077 40.0681 30.0025 39.6814 29.2476 39.0421C28.4896 38.4028 28.1121 37.4348 28.1121 36.138C28.1121 35.4196 28.2582 34.7788 28.5489 34.2172C28.8396 33.657 29.2369 33.1822 29.7407 32.7925C30.2445 32.4059 30.8305 32.1167 31.4986 31.9219C31.7787 31.8427 32.0709 31.7879 32.3677 31.7392V29.8457H34.9918V31.6996C35.6052 31.7604 36.1881 31.8609 36.73 32.0101C37.6508 32.2598 38.6173 33.0147 38.6173 33.0147C38.7375 33.0786 38.8213 33.1974 38.8411 33.3297C38.8624 33.4683 38.8183 33.6022 38.7209 33.6996L37.4895 34.9538C37.3571 35.0847 37.1531 35.1212 36.9873 35.033C36.9873 35.033 36.2582 34.5124 35.6251 34.3481C34.9949 34.1836 34.3344 34.1015 33.6357 34.1015C32.7241 34.1015 32.0512 34.275 31.616 34.6251C31.1792 34.9752 30.9631 35.4287 30.9631 35.9889C30.9631 36.4957 31.1153 36.8823 31.4273 37.1518C31.7363 37.4258 32.2599 37.6023 32.9965 37.6753L35.0605 37.8519C36.5901 37.9859 37.7469 38.3938 38.5323 39.0711C39.3177 39.7484 39.7088 40.7378 39.7088 42.0346C39.7085 42.8109 39.5548 43.4897 39.2444 44.0712ZM46.468 26.2266C45.7328 24.6361 47.3477 20.181 39.561 20.181C37.2201 20.181 35.841 20.181 35.0481 20.181C35.0618 20.181 34.9461 20.181 34.5626 20.181C34.4347 20.181 34.2704 20.181 34.0771 20.181C33.2841 20.181 31.9036 20.181 29.5657 20.181C21.7758 20.181 23.3938 24.636 22.6587 26.2266C22.1655 27.2921 21.371 28.2844 20.4106 29.2525C20.4168 28.4914 20.4198 27.7183 20.4258 27.0029C20.4304 26.1353 20.4364 25.3529 20.441 24.7746C20.4456 24.487 20.4486 24.2495 20.4502 24.0806C20.4532 23.9953 20.4532 23.9314 20.4547 23.8857L20.4563 23.8492C20.5659 22.8005 20.7577 21.3347 21.6923 20.108C22.1656 19.4901 22.8262 18.9086 23.8445 18.4399C24.8612 17.971 26.2448 17.6225 28.1305 17.5358C28.6222 17.513 29.0392 17.1735 29.164 16.6986C29.2873 16.2238 29.0894 15.7215 28.6723 15.4627C27.715 14.863 27.0833 13.8127 27.0833 12.6104C27.0833 11.6758 27.4577 10.8418 28.0696 10.2299C28.6814 9.61792 29.5155 9.24357 30.447 9.24357C31.3815 9.24357 32.2156 9.61802 32.829 10.2299C33.1242 10.5251 33.3602 10.8752 33.5276 11.2588L33.5398 11.2801C33.5504 11.3075 33.5581 11.3319 33.5687 11.3562C33.6372 11.5328 33.6966 11.7124 33.7376 11.9011L33.7406 11.9163L33.7437 11.9331C33.7467 11.9407 33.7467 11.9529 33.7498 11.9636C33.7893 12.1721 33.8153 12.3882 33.8153 12.6105C33.8153 12.7292 33.8046 12.8602 33.7879 13.0001L33.7651 13.1493L33.7667 13.1431C33.7515 13.2375 33.7347 13.3197 33.7179 13.3958L33.7164 13.402L33.6768 13.5451C33.6555 13.6181 33.6312 13.6942 33.6022 13.7734L33.5398 13.9317C33.2719 14.5542 32.8244 15.0793 32.2567 15.4446C32.2537 15.4476 32.2491 15.4491 32.2475 15.4537C32.2049 15.4781 32.1683 15.51 32.1318 15.542C32.112 15.5603 32.0891 15.5755 32.0725 15.5937C32.0451 15.6211 32.0208 15.6516 31.9948 15.682C31.9751 15.7093 31.9507 15.7337 31.9324 15.758C31.9126 15.7885 31.8989 15.8219 31.8807 15.8524C31.8624 15.8859 31.8426 15.9163 31.829 15.9468C31.8168 15.9773 31.8092 16.0107 31.7985 16.0412C31.7847 16.0808 31.7711 16.1173 31.7635 16.1554C31.7589 16.1813 31.7559 16.2087 31.7529 16.236C31.7467 16.2847 31.7407 16.3304 31.7391 16.3791L31.7376 16.3912C31.7376 16.4125 31.7437 16.4369 31.7452 16.4612C31.7482 16.5069 31.7498 16.5526 31.7604 16.5982C31.765 16.6317 31.7771 16.6652 31.7847 16.6972C31.7953 16.7353 31.8061 16.7718 31.8197 16.8083C31.8349 16.8479 31.8562 16.8814 31.8745 16.9179C31.8897 16.9423 31.8989 16.9696 31.9141 16.994C31.9171 16.997 31.9202 17.0001 31.9232 17.0062C31.946 17.0397 31.972 17.0701 31.9993 17.1006C32.0207 17.1279 32.0404 17.1554 32.0632 17.1798C32.086 17.2011 32.1119 17.2193 32.1363 17.2406C32.1668 17.2665 32.1956 17.2955 32.2291 17.3167C32.2565 17.335 32.2854 17.3472 32.3128 17.3654C32.3478 17.3837 32.3813 17.405 32.4194 17.4203C32.4483 17.4355 32.4833 17.4416 32.5168 17.4522C32.5533 17.4628 32.5868 17.4781 32.6264 17.4872C32.6537 17.4933 32.6827 17.4933 32.7116 17.4978C32.7557 17.5024 32.8014 17.5115 32.8455 17.5115C32.8517 17.5115 32.8547 17.5115 32.8593 17.5115H35.9415H40.0267C40.3524 17.5115 40.666 17.5222 40.981 17.5374C42.6294 17.6151 43.9018 17.8921 44.8699 18.2756C45.7344 18.6196 46.3645 19.0367 46.8486 19.4933C47.5731 20.1751 47.9794 20.9499 48.2351 21.7277C48.4848 22.4918 48.5715 23.2406 48.6385 23.8525C48.6385 23.8708 48.6401 23.9256 48.6415 24.0078C48.6553 24.711 48.6705 27.0123 48.6872 29.2254C47.7389 28.2662 46.9535 27.2829 46.468 26.2266Z"/>
</mask>
<path d="M50.9443 31.2874C50.9367 30.2053 50.9276 28.942 50.9184 27.7608C50.9108 26.7197 50.9032 25.7487 50.8971 25.0181C50.8941 24.6528 50.8909 24.3484 50.8879 24.1247C50.8849 24.0135 50.8833 23.9223 50.8818 23.8522L50.8788 23.7578C50.8772 23.7259 50.8788 23.7121 50.8726 23.6421V23.6391C50.7478 22.531 50.5469 20.4032 49.0218 18.5372C48.2593 17.6056 47.1694 16.7686 45.6961 16.1871C45.0248 15.9238 44.2715 15.7123 43.4359 15.557C43.9701 14.7001 44.2852 13.694 44.2852 12.6103C44.2852 9.51136 41.7738 7 38.6749 7C37.0478 7 35.5913 7.70321 34.5669 8.81126C33.5427 7.70029 32.0785 7.0001 30.4469 7.0001C27.3511 7.0001 24.8396 9.51145 24.8396 12.6104C24.8396 13.6971 25.1592 14.7063 25.695 15.5662C24.6386 15.758 23.7026 16.0351 22.9066 16.4004C20.899 17.3136 19.7088 18.7474 19.0786 20.1325C18.4424 21.5114 18.3099 22.8356 18.2217 23.6393V23.6423C18.2141 23.7215 18.2156 23.7337 18.2125 23.7732C18.2049 24.0198 18.1988 24.7382 18.1912 25.7336C18.179 27.2191 18.1668 29.2678 18.1577 30.9512C18.1577 31.073 18.1577 31.1887 18.1577 31.3074C14.3587 34.5403 9.78336 37.904 9.62964 43.2768C9.45177 49.6053 14.4121 54.0223 20.2249 54.7437C25.2339 55.3677 28.689 55.5535 34.5626 55.5535C40.4346 55.5535 43.8897 55.3678 48.9003 54.7437C54.7115 54.0223 59.6734 49.6053 59.4954 43.2766C59.3415 37.8916 54.7464 34.5279 50.9443 31.2874ZM48.6414 23.8766V23.8796L48.6399 23.8766H48.6414ZM35.8959 13.9254C35.9324 13.7747 35.9598 13.6332 35.9811 13.4993L35.9827 13.4931L35.9888 13.4536C35.9964 13.3957 36.0071 13.341 36.0147 13.2831V13.277C36.0391 13.07 36.0588 12.8478 36.0588 12.6103C36.0588 12.4125 36.0467 12.2176 36.0269 12.0258L36.0253 11.9985L36.0086 11.901C35.9903 11.7519 35.9705 11.6058 35.9385 11.4611C35.9385 11.4611 35.9385 11.4566 35.9385 11.455L35.9309 11.42L35.9112 11.35C35.8762 11.1993 35.8381 11.0486 35.7924 10.9055C35.7909 10.9025 35.7909 10.9025 35.7909 10.9025L35.7893 10.8903C36.3753 9.90402 37.4453 9.24192 38.6751 9.24348C39.6081 9.24348 40.4437 9.61792 41.0571 10.2298C41.6659 10.8416 42.0418 11.6757 42.0434 12.6103C42.0434 13.7032 41.5182 14.6621 40.707 15.2799C40.4832 15.2738 40.258 15.2678 40.0267 15.2678H36.6371C36.2946 15.0059 36.0039 14.6849 35.7847 14.315C35.7985 14.2693 35.8152 14.2267 35.8304 14.1765C35.832 14.1689 35.8334 14.1627 35.835 14.1537C35.8548 14.0836 35.8745 14.0136 35.8928 13.9405C35.8959 13.9314 35.8959 13.9253 35.899 13.9162L35.8959 13.9254ZM39.2444 44.0712C38.9338 44.6526 38.5062 45.1397 37.9658 45.5369C37.424 45.9341 36.7741 46.231 36.0192 46.4242C35.6889 46.5095 35.3433 46.5673 34.9918 46.613V48.8139H32.3677V46.6587C31.622 46.5948 30.9066 46.4791 30.2353 46.2934C29.2079 46.0133 27.8625 44.8779 27.8625 44.8779C27.7483 44.8109 27.6707 44.6923 27.6555 44.5613C27.6387 44.429 27.6828 44.2965 27.7772 44.2021L29.0923 42.887C29.2338 42.747 29.4546 42.7196 29.625 42.8246C29.625 42.8246 30.6083 43.6785 31.3541 43.8824C32.0999 44.0833 32.8396 44.1868 33.5763 44.1868C34.5079 44.1868 35.278 44.0224 35.8868 43.6936C36.4986 43.3633 36.8031 42.8504 36.8031 42.1502C36.8031 41.648 36.6539 41.2507 36.3525 40.9599C36.0511 40.6707 35.5427 40.4881 34.8275 40.409L32.4713 40.205C31.077 40.0681 30.0025 39.6814 29.2476 39.0421C28.4896 38.4028 28.1121 37.4348 28.1121 36.138C28.1121 35.4196 28.2582 34.7788 28.5489 34.2172C28.8396 33.657 29.2369 33.1822 29.7407 32.7925C30.2445 32.4059 30.8305 32.1167 31.4986 31.9219C31.7787 31.8427 32.0709 31.7879 32.3677 31.7392V29.8457H34.9918V31.6996C35.6052 31.7604 36.1881 31.8609 36.73 32.0101C37.6508 32.2598 38.6173 33.0147 38.6173 33.0147C38.7375 33.0786 38.8213 33.1974 38.8411 33.3297C38.8624 33.4683 38.8183 33.6022 38.7209 33.6996L37.4895 34.9538C37.3571 35.0847 37.1531 35.1212 36.9873 35.033C36.9873 35.033 36.2582 34.5124 35.6251 34.3481C34.9949 34.1836 34.3344 34.1015 33.6357 34.1015C32.7241 34.1015 32.0512 34.275 31.616 34.6251C31.1792 34.9752 30.9631 35.4287 30.9631 35.9889C30.9631 36.4957 31.1153 36.8823 31.4273 37.1518C31.7363 37.4258 32.2599 37.6023 32.9965 37.6753L35.0605 37.8519C36.5901 37.9859 37.7469 38.3938 38.5323 39.0711C39.3177 39.7484 39.7088 40.7378 39.7088 42.0346C39.7085 42.8109 39.5548 43.4897 39.2444 44.0712ZM46.468 26.2266C45.7328 24.6361 47.3477 20.181 39.561 20.181C37.2201 20.181 35.841 20.181 35.0481 20.181C35.0618 20.181 34.9461 20.181 34.5626 20.181C34.4347 20.181 34.2704 20.181 34.0771 20.181C33.2841 20.181 31.9036 20.181 29.5657 20.181C21.7758 20.181 23.3938 24.636 22.6587 26.2266C22.1655 27.2921 21.371 28.2844 20.4106 29.2525C20.4168 28.4914 20.4198 27.7183 20.4258 27.0029C20.4304 26.1353 20.4364 25.3529 20.441 24.7746C20.4456 24.487 20.4486 24.2495 20.4502 24.0806C20.4532 23.9953 20.4532 23.9314 20.4547 23.8857L20.4563 23.8492C20.5659 22.8005 20.7577 21.3347 21.6923 20.108C22.1656 19.4901 22.8262 18.9086 23.8445 18.4399C24.8612 17.971 26.2448 17.6225 28.1305 17.5358C28.6222 17.513 29.0392 17.1735 29.164 16.6986C29.2873 16.2238 29.0894 15.7215 28.6723 15.4627C27.715 14.863 27.0833 13.8127 27.0833 12.6104C27.0833 11.6758 27.4577 10.8418 28.0696 10.2299C28.6814 9.61792 29.5155 9.24357 30.447 9.24357C31.3815 9.24357 32.2156 9.61802 32.829 10.2299C33.1242 10.5251 33.3602 10.8752 33.5276 11.2588L33.5398 11.2801C33.5504 11.3075 33.5581 11.3319 33.5687 11.3562C33.6372 11.5328 33.6966 11.7124 33.7376 11.9011L33.7406 11.9163L33.7437 11.9331C33.7467 11.9407 33.7467 11.9529 33.7498 11.9636C33.7893 12.1721 33.8153 12.3882 33.8153 12.6105C33.8153 12.7292 33.8046 12.8602 33.7879 13.0001L33.7651 13.1493L33.7667 13.1431C33.7515 13.2375 33.7347 13.3197 33.7179 13.3958L33.7164 13.402L33.6768 13.5451C33.6555 13.6181 33.6312 13.6942 33.6022 13.7734L33.5398 13.9317C33.2719 14.5542 32.8244 15.0793 32.2567 15.4446C32.2537 15.4476 32.2491 15.4491 32.2475 15.4537C32.2049 15.4781 32.1683 15.51 32.1318 15.542C32.112 15.5603 32.0891 15.5755 32.0725 15.5937C32.0451 15.6211 32.0208 15.6516 31.9948 15.682C31.9751 15.7093 31.9507 15.7337 31.9324 15.758C31.9126 15.7885 31.8989 15.8219 31.8807 15.8524C31.8624 15.8859 31.8426 15.9163 31.829 15.9468C31.8168 15.9773 31.8092 16.0107 31.7985 16.0412C31.7847 16.0808 31.7711 16.1173 31.7635 16.1554C31.7589 16.1813 31.7559 16.2087 31.7529 16.236C31.7467 16.2847 31.7407 16.3304 31.7391 16.3791L31.7376 16.3912C31.7376 16.4125 31.7437 16.4369 31.7452 16.4612C31.7482 16.5069 31.7498 16.5526 31.7604 16.5982C31.765 16.6317 31.7771 16.6652 31.7847 16.6972C31.7953 16.7353 31.8061 16.7718 31.8197 16.8083C31.8349 16.8479 31.8562 16.8814 31.8745 16.9179C31.8897 16.9423 31.8989 16.9696 31.9141 16.994C31.9171 16.997 31.9202 17.0001 31.9232 17.0062C31.946 17.0397 31.972 17.0701 31.9993 17.1006C32.0207 17.1279 32.0404 17.1554 32.0632 17.1798C32.086 17.2011 32.1119 17.2193 32.1363 17.2406C32.1668 17.2665 32.1956 17.2955 32.2291 17.3167C32.2565 17.335 32.2854 17.3472 32.3128 17.3654C32.3478 17.3837 32.3813 17.405 32.4194 17.4203C32.4483 17.4355 32.4833 17.4416 32.5168 17.4522C32.5533 17.4628 32.5868 17.4781 32.6264 17.4872C32.6537 17.4933 32.6827 17.4933 32.7116 17.4978C32.7557 17.5024 32.8014 17.5115 32.8455 17.5115C32.8517 17.5115 32.8547 17.5115 32.8593 17.5115H35.9415H40.0267C40.3524 17.5115 40.666 17.5222 40.981 17.5374C42.6294 17.6151 43.9018 17.8921 44.8699 18.2756C45.7344 18.6196 46.3645 19.0367 46.8486 19.4933C47.5731 20.1751 47.9794 20.9499 48.2351 21.7277C48.4848 22.4918 48.5715 23.2406 48.6385 23.8525C48.6385 23.8708 48.6401 23.9256 48.6415 24.0078C48.6553 24.711 48.6705 27.0123 48.6872 29.2254C47.7389 28.2662 46.9535 27.2829 46.468 26.2266Z" fill="white" stroke="black" stroke-width="2" mask="url(#path-2-inside-1)"/>
<path d="M115.234 51.625C115.703 52.1979 115.938 52.875 115.938 53.6562C115.938 54.3854 115.677 55.0104 115.156 55.5312C114.635 56.0521 113.932 56.3125 113.047 56.3125C112.161 56.3125 111.406 55.9479 110.781 55.2188L94.2969 34.125L87.0312 41.4688V53.4219C87.0312 54.2031 86.7448 54.8802 86.1719 55.4531C85.599 56.026 84.8958 56.3125 84.0625 56.3125C83.2812 56.3125 82.6042 56.026 82.0312 55.4531C81.4583 54.8802 81.1719 54.2031 81.1719 53.4219V13.9688C81.1719 13.1875 81.4583 12.5104 82.0312 11.9375C82.6042 11.3125 83.2812 11 84.0625 11C84.8438 11 85.5208 11.2865 86.0938 11.8594C86.7188 12.4323 87.0312 13.1354 87.0312 13.9688V34.2812L108.906 12.0938C109.427 11.4167 110.104 11.0781 110.938 11.0781C111.823 11.026 112.526 11.2604 113.047 11.7812C113.568 12.25 113.828 12.901 113.828 13.7344C113.828 14.5156 113.568 15.1146 113.047 15.5312L98.2812 30.2188L115.234 51.625ZM124.062 24.9844C127.656 23.4219 131.38 22.6667 135.234 22.7188C139.557 22.7188 142.917 24.0469 145.312 26.7031C147.448 28.9948 148.542 31.8594 148.594 35.2969V53.4219C148.594 54.2031 148.281 54.8802 147.656 55.4531C147.083 56.026 146.38 56.3125 145.547 56.3125C144.766 56.3125 144.089 56.026 143.516 55.4531C142.943 54.8802 142.656 54.2031 142.656 53.4219V51.7812C141.51 52.9792 139.974 54.099 138.047 55.1406C136.12 56.1302 133.672 56.625 130.703 56.625C127.734 56.625 125.26 55.7656 123.281 54.0469C121.25 52.276 120.234 49.9583 120.234 47.0938C120.234 43.9167 121.432 41.4167 123.828 39.5938C126.432 37.6146 130.13 36.651 134.922 36.7031H142.656V36.1562C142.656 33.2917 141.953 31.2604 140.547 30.0625C139.193 28.8646 137.057 28.2656 134.141 28.2656C131.693 28.2656 128.854 28.7604 125.625 29.75C125.312 29.8542 124.922 29.9062 124.453 29.9062C124.036 29.9062 123.594 29.6979 123.125 29.2812C122.656 28.8125 122.396 28.1094 122.344 27.1719C122.344 26.1823 122.917 25.4531 124.062 24.9844ZM126.094 46.3906C126.094 49.8281 128.359 51.5208 132.891 51.4688C134.87 51.4688 136.719 51 138.438 50.0625C140.208 49.0729 141.615 47.9792 142.656 46.7812V41.3906H135.781C132.76 41.3906 130.391 41.7812 128.672 42.5625C126.953 43.2917 126.094 44.5677 126.094 46.3906ZM185.391 51.7812C185.807 52.3021 186.016 52.9531 186.016 53.7344C186.016 54.4635 185.729 55.0885 185.156 55.6094C184.635 56.0781 184.036 56.3125 183.359 56.3125C182.318 56.3125 181.432 55.9219 180.703 55.1406L169.688 40.1406L164.141 45.2188V53.4219C164.141 54.2031 163.854 54.8802 163.281 55.4531C162.708 56.026 162.031 56.3125 161.25 56.3125C160.469 56.3125 159.792 56.026 159.219 55.4531C158.646 54.8802 158.359 54.2031 158.359 53.4219V11.8594C158.359 11.0781 158.62 10.401 159.141 9.82812C159.714 9.25521 160.417 8.96875 161.25 8.96875C162.031 8.96875 162.708 9.25521 163.281 9.82812C163.854 10.401 164.141 11.0781 164.141 11.8594V38.0312L179.375 23.9688C180.052 23.4479 180.807 23.1875 181.641 23.1875C182.526 23.1875 183.151 23.5 183.516 24.125C183.932 24.6979 184.141 25.2188 184.141 25.6875C184.141 26.625 183.776 27.4583 183.047 28.1875L173.828 36.4688L185.391 51.7812ZM197.188 41.7812C197.552 44.6458 198.646 46.9375 200.469 48.6562C202.344 50.3229 204.896 51.1562 208.125 51.1562C211.406 51.1562 214.193 50.6354 216.484 49.5938C217.214 49.2292 217.865 49.0469 218.438 49.0469C219.01 48.9948 219.531 49.2031 220 49.6719C220.521 50.1406 220.781 50.6615 220.781 51.2344C220.781 52.3802 220.312 53.1875 219.375 53.6562C218.49 54.125 217.682 54.5417 216.953 54.9062C216.224 55.2708 215.443 55.5833 214.609 55.8438C212.682 56.3646 210.443 56.625 207.891 56.625C202.63 56.625 198.542 55.1667 195.625 52.25C192.76 49.2812 191.328 45.0885 191.328 39.6719C191.328 34.9844 192.552 31.0781 195 27.9531C197.76 24.4635 201.641 22.7188 206.641 22.7188C211.432 22.7188 215.208 24.3333 217.969 27.5625C220.573 30.5833 221.875 34.3594 221.875 38.8906C221.875 39.6719 221.589 40.349 221.016 40.9219C220.495 41.4948 219.818 41.7812 218.984 41.7812H197.188ZM206.641 27.6406C202.839 27.6406 200.078 29.3333 198.359 32.7188C197.734 33.9167 197.344 35.349 197.188 37.0156H216.094C215.938 33.9948 214.818 31.599 212.734 29.8281C211.068 28.3698 209.036 27.6406 206.641 27.6406ZM229.922 26C229.922 25.1146 230.208 24.4115 230.781 23.8906C231.354 23.3177 232.057 23.0312 232.891 23.0312C233.724 23.0312 234.401 23.3177 234.922 23.8906C235.443 24.4115 235.703 25.1146 235.703 26V53.4219C235.703 54.2031 235.443 54.8802 234.922 55.4531C234.401 56.026 233.724 56.3125 232.891 56.3125C232.057 56.3125 231.354 56.026 230.781 55.4531C230.208 54.8802 229.922 54.2031 229.922 53.4219V26ZM236.328 13.4219C236.328 14.3594 236.016 15.1406 235.391 15.7656C234.766 16.3906 233.984 16.7031 233.047 16.7031H232.656C231.719 16.7031 230.938 16.3906 230.312 15.7656C229.74 15.1406 229.453 14.3594 229.453 13.4219V13.1875C229.453 12.25 229.766 11.4688 230.391 10.8438C231.016 10.2188 231.771 9.90625 232.656 9.90625H233.047C233.984 9.90625 234.766 10.2188 235.391 10.8438C236.016 11.4688 236.328 12.25 236.328 13.1875V13.4219ZM251.875 27.5625C255.052 24.3333 258.698 22.7188 262.812 22.7188C266.979 22.7188 270.521 24.1771 273.438 27.0938C276.667 30.3229 278.307 34.5156 278.359 39.6719C278.359 44.8802 276.719 49.099 273.438 52.3281C270.417 55.2448 266.849 56.6771 262.734 56.625C258.672 56.625 255.052 55.0104 251.875 51.7812V53.4219C251.875 54.2031 251.589 54.8802 251.016 55.4531C250.495 56.026 249.818 56.3125 248.984 56.3125C248.151 56.3125 247.448 56.026 246.875 55.4531C246.354 54.8802 246.094 54.2031 246.094 53.4219V11.8594C246.094 11.026 246.354 10.349 246.875 9.82812C247.448 9.25521 248.151 8.96875 248.984 8.96875C249.818 8.96875 250.495 9.25521 251.016 9.82812C251.589 10.349 251.875 11.026 251.875 11.8594V27.5625ZM251.875 46.3906C254.792 49.6198 258.177 51.2083 262.031 51.1562C266.927 51.1562 270.182 48.9948 271.797 44.6719C272.318 43.2135 272.552 41.5469 272.5 39.6719C272.5 36.026 271.536 33.1615 269.609 31.0781C267.734 29.151 265.208 28.1875 262.031 28.1875C258.177 28.1875 254.792 29.776 251.875 32.9531V46.3906ZM300.781 22.7188C305.729 22.7188 309.714 24.2812 312.734 27.4062C315.755 30.5833 317.214 34.6719 317.109 39.6719C317.109 44.724 315.651 48.8125 312.734 51.9375C309.714 55.0625 305.729 56.625 300.781 56.625C295.781 56.625 291.823 55.0625 288.906 51.9375C285.885 48.8125 284.375 44.724 284.375 39.6719C284.375 34.5677 285.885 30.4792 288.906 27.4062C291.823 24.2812 295.781 22.7188 300.781 22.7188ZM293.594 48.7344C294.635 49.6198 295.781 50.2708 297.031 50.6875C298.333 51.1042 299.583 51.3125 300.781 51.3125C301.979 51.3125 303.203 51.1042 304.453 50.6875C305.703 50.2708 306.849 49.5938 307.891 48.6562C310.182 46.5729 311.328 43.5521 311.328 39.5938C311.328 35.7396 310.182 32.7448 307.891 30.6094C305.964 28.8385 303.594 27.9792 300.781 28.0312C296.146 28.0312 292.943 30.1146 291.172 34.2812C290.547 35.7917 290.234 37.5885 290.234 39.6719C290.234 41.7552 290.547 43.5521 291.172 45.0625C291.797 46.5729 292.604 47.7969 293.594 48.7344Z" fill="white"/>
<path d="M115.234 51.625L114.842 51.9355L114.847 51.9416L115.234 51.625ZM115.156 55.5312L115.51 55.8848L115.156 55.5312ZM110.781 55.2188L110.387 55.5266L110.394 55.5355L110.402 55.5441L110.781 55.2188ZM94.2969 34.125L94.6908 33.8171L94.341 33.3695L93.9414 33.7733L94.2969 34.125ZM87.0312 41.4688L86.6758 41.1171L86.5312 41.2632V41.4688H87.0312ZM82.0312 11.9375L82.3848 12.2911L82.3925 12.2834L82.3998 12.2754L82.0312 11.9375ZM86.0938 11.8594L85.7402 12.2129L85.7479 12.2206L85.7559 12.228L86.0938 11.8594ZM87.0312 34.2812H86.5312V35.5006L87.3873 34.6323L87.0312 34.2812ZM108.906 12.0938L109.262 12.4448L109.284 12.4229L109.303 12.3986L108.906 12.0938ZM110.938 11.0781V11.5781H110.952L110.967 11.5773L110.938 11.0781ZM113.047 11.7812L112.693 12.1348L112.703 12.1441L112.712 12.1529L113.047 11.7812ZM113.047 15.5312L112.735 15.1408L112.713 15.1577L112.694 15.1768L113.047 15.5312ZM98.2812 30.2188L97.9286 29.8643L97.6121 30.1791L97.8893 30.5292L98.2812 30.2188ZM114.847 51.9416C115.239 52.42 115.438 52.9835 115.438 53.6562H116.438C116.438 52.7665 116.167 51.9758 115.621 51.3084L114.847 51.9416ZM115.438 53.6562C115.438 54.2513 115.231 54.7496 114.803 55.1777L115.51 55.8848C116.123 55.2713 116.438 54.5195 116.438 53.6562H115.438ZM114.803 55.1777C114.394 55.5863 113.828 55.8125 113.047 55.8125V56.8125C114.036 56.8125 114.877 56.5179 115.51 55.8848L114.803 55.1777ZM113.047 55.8125C112.321 55.8125 111.7 55.5223 111.161 54.8934L110.402 55.5441C111.113 56.3735 112.002 56.8125 113.047 56.8125V55.8125ZM111.175 54.9109L94.6908 33.8171L93.9029 34.4329L110.387 55.5266L111.175 54.9109ZM93.9414 33.7733L86.6758 41.1171L87.3867 41.8204L94.6523 34.4767L93.9414 33.7733ZM86.5312 41.4688V53.4219H87.5312V41.4688H86.5312ZM86.5312 53.4219C86.5312 54.0651 86.3014 54.6165 85.8183 55.0996L86.5254 55.8067C87.1882 55.1439 87.5312 54.3411 87.5312 53.4219H86.5312ZM85.8183 55.0996C85.3421 55.5758 84.7675 55.8125 84.0625 55.8125V56.8125C85.0242 56.8125 85.8558 56.4763 86.5254 55.8067L85.8183 55.0996ZM84.0625 55.8125C83.4193 55.8125 82.8678 55.5826 82.3848 55.0996L81.6777 55.8067C82.3405 56.4695 83.1432 56.8125 84.0625 56.8125V55.8125ZM82.3848 55.0996C81.9018 54.6165 81.6719 54.0651 81.6719 53.4219H80.6719C80.6719 54.3411 81.0149 55.1439 81.6777 55.8067L82.3848 55.0996ZM81.6719 53.4219V13.9688H80.6719V53.4219H81.6719ZM81.6719 13.9688C81.6719 13.3255 81.9018 12.7741 82.3848 12.2911L81.6777 11.5839C81.0149 12.2467 80.6719 13.0495 80.6719 13.9688H81.6719ZM82.3998 12.2754C82.8871 11.7438 83.4342 11.5 84.0625 11.5V10.5C83.1283 10.5 82.3213 10.8812 81.6627 11.5996L82.3998 12.2754ZM84.0625 11.5C84.7057 11.5 85.2572 11.7299 85.7402 12.2129L86.4473 11.5058C85.7845 10.843 84.9818 10.5 84.0625 10.5V11.5ZM85.7559 12.228C86.2796 12.708 86.5312 13.2783 86.5312 13.9688H87.5312C87.5312 12.9925 87.1579 12.1565 86.4316 11.4908L85.7559 12.228ZM86.5312 13.9688V34.2812H87.5312V13.9688H86.5312ZM87.3873 34.6323L109.262 12.4448L108.55 11.7427L86.6752 33.9302L87.3873 34.6323ZM109.303 12.3986C109.732 11.841 110.264 11.5781 110.938 11.5781V10.5781C109.944 10.5781 109.123 10.9924 108.51 11.7889L109.303 12.3986ZM110.967 11.5773C111.741 11.5317 112.294 11.7354 112.693 12.1348L113.4 11.4277C112.758 10.7854 111.904 10.5204 110.908 10.579L110.967 11.5773ZM112.712 12.1529C113.108 12.5089 113.328 13.0135 113.328 13.7344H114.328C114.328 12.7886 114.028 11.9911 113.381 11.4096L112.712 12.1529ZM113.328 13.7344C113.328 14.3929 113.116 14.8359 112.735 15.1408L113.359 15.9217C114.02 15.3933 114.328 14.6384 114.328 13.7344H113.328ZM112.694 15.1768L97.9286 29.8643L98.6339 30.5732L113.399 15.8857L112.694 15.1768ZM97.8893 30.5292L114.842 51.9354L115.626 51.3146L98.6732 29.9083L97.8893 30.5292ZM124.062 24.9844L124.252 25.4473L124.262 25.4429L124.062 24.9844ZM135.234 22.7188L135.228 23.2188H135.234V22.7188ZM145.312 26.7031L144.941 27.0381L144.947 27.044L145.312 26.7031ZM148.594 35.2969L149.094 35.2969L149.094 35.2893L148.594 35.2969ZM147.656 55.4531L147.318 55.0845L147.31 55.0919L147.303 55.0996L147.656 55.4531ZM142.656 51.7812H143.156V50.5352L142.295 51.4356L142.656 51.7812ZM138.047 55.1406L138.275 55.5855L138.285 55.5805L138.047 55.1406ZM123.281 54.0469L122.953 54.4238L122.953 54.4244L123.281 54.0469ZM123.828 39.5938L123.526 39.1957L123.525 39.1958L123.828 39.5938ZM134.922 36.7031L134.916 37.2031H134.922V36.7031ZM142.656 36.7031V37.2031H143.156V36.7031H142.656ZM140.547 30.0625L140.216 30.4371L140.223 30.4431L140.547 30.0625ZM125.625 29.75L125.478 29.2718L125.467 29.2757L125.625 29.75ZM123.125 29.2812L122.771 29.6348L122.782 29.6452L122.793 29.655L123.125 29.2812ZM122.344 27.1719H121.844V27.1858L121.845 27.1996L122.344 27.1719ZM132.891 51.4688V50.9687L132.885 50.9688L132.891 51.4688ZM138.438 50.0625L138.677 50.5015L138.681 50.499L138.438 50.0625ZM142.656 46.7812L143.034 47.1093L143.156 46.9682V46.7812H142.656ZM142.656 41.3906H143.156V40.8906H142.656V41.3906ZM128.672 42.5625L128.867 43.0229L128.879 43.0177L128.672 42.5625ZM124.262 25.4429C127.792 23.9082 131.446 23.1676 135.228 23.2187L135.241 22.2188C131.315 22.1657 127.521 22.9356 123.863 24.5258L124.262 25.4429ZM135.234 23.2188C139.448 23.2188 142.66 24.5085 144.941 27.038L145.684 26.3682C143.174 23.5852 139.667 22.2188 135.234 22.2188V23.2188ZM144.947 27.044C146.989 29.2359 148.043 31.9777 148.094 35.3044L149.094 35.2893C149.04 31.741 147.907 28.7537 145.678 26.3623L144.947 27.044ZM148.094 35.2969V53.4219H149.094V35.2969H148.094ZM148.094 53.4219C148.094 54.0501 147.85 54.5973 147.318 55.0845L147.994 55.8217C148.713 55.1631 149.094 54.3561 149.094 53.4219H148.094ZM147.303 55.0996C146.826 55.5758 146.252 55.8125 145.547 55.8125V56.8125C146.509 56.8125 147.34 56.4763 148.01 55.8067L147.303 55.0996ZM145.547 55.8125C144.904 55.8125 144.352 55.5826 143.869 55.0996L143.162 55.8067C143.825 56.4695 144.628 56.8125 145.547 56.8125V55.8125ZM143.869 55.0996C143.386 54.6165 143.156 54.0651 143.156 53.4219H142.156C142.156 54.3411 142.499 55.1439 143.162 55.8067L143.869 55.0996ZM143.156 53.4219V51.7812H142.156V53.4219H143.156ZM142.295 51.4356C141.195 52.586 139.704 53.6764 137.809 54.7008L138.285 55.5805C140.244 54.5215 141.826 53.3723 143.018 52.1269L142.295 51.4356ZM137.818 54.6958C135.983 55.6382 133.62 56.125 130.703 56.125V57.125C133.723 57.125 136.256 56.6222 138.275 55.5854L137.818 54.6958ZM130.703 56.125C127.838 56.125 125.485 55.2986 123.609 53.6694L122.953 54.4244C125.036 56.2326 127.631 57.125 130.703 57.125V56.125ZM123.61 53.67C121.695 52.0007 120.734 49.8242 120.734 47.0938H119.734C119.734 50.0925 120.805 52.5514 122.953 54.4238L123.61 53.67ZM120.734 47.0938C120.734 44.0628 121.867 41.7141 124.131 39.9917L123.525 39.1958C120.997 41.1192 119.734 43.7706 119.734 47.0938H120.734ZM124.131 39.9918C126.614 38.1048 130.186 37.1517 134.916 37.2031L134.927 36.2032C130.074 36.1504 126.251 37.1243 123.526 39.1957L124.131 39.9918ZM134.922 37.2031H142.656V36.2031H134.922V37.2031ZM143.156 36.7031V36.1562H142.156V36.7031H143.156ZM143.156 36.1562C143.156 33.2259 142.438 31.0169 140.871 29.6819L140.223 30.4431C141.468 31.5039 142.156 33.3575 142.156 36.1562H143.156ZM140.878 29.688C139.391 28.3723 137.109 27.7656 134.141 27.7656V28.7656C137.006 28.7656 138.995 29.3569 140.216 30.437L140.878 29.688ZM134.141 27.7656C131.628 27.7656 128.739 28.2729 125.478 29.2719L125.772 30.2281C128.97 29.2479 131.757 28.7656 134.141 28.7656V27.7656ZM125.467 29.2757C125.222 29.3573 124.889 29.4062 124.453 29.4062V30.4062C124.955 30.4062 125.403 30.351 125.783 30.2243L125.467 29.2757ZM124.453 29.4062C124.208 29.4062 123.879 29.2827 123.457 28.9075L122.793 29.655C123.308 30.1131 123.865 30.4062 124.453 30.4062V29.4062ZM123.479 28.9277C123.127 28.5762 122.891 28.0097 122.843 27.1441L121.845 27.1996C121.901 28.2091 122.185 29.0488 122.771 29.6348L123.479 28.9277ZM122.844 27.1719C122.844 26.7811 122.954 26.4621 123.167 26.1917C123.385 25.9143 123.733 25.6593 124.252 25.4471L123.873 24.5216C123.246 24.7782 122.735 25.1222 122.38 25.5739C122.02 26.0327 121.844 26.5731 121.844 27.1719H122.844ZM125.594 46.3906C125.594 48.229 126.207 49.6774 127.494 50.6388C128.753 51.58 130.582 51.9953 132.896 51.9687L132.885 50.9688C130.668 50.9943 129.098 50.5892 128.092 49.8377C127.113 49.1064 126.594 47.9897 126.594 46.3906H125.594ZM132.891 51.9688C134.952 51.9688 136.884 51.4795 138.677 50.5014L138.198 49.6236C136.554 50.5205 134.787 50.9688 132.891 50.9688V51.9688ZM138.681 50.499C140.489 49.4887 141.945 48.361 143.034 47.1093L142.279 46.4532C141.284 47.5973 139.927 48.6571 138.194 49.626L138.681 50.499ZM143.156 46.7812V41.3906H142.156V46.7812H143.156ZM142.656 40.8906H135.781V41.8906H142.656V40.8906ZM135.781 40.8906C132.727 40.8906 130.276 41.2841 128.465 42.1073L128.879 43.0177C130.505 42.2784 132.794 41.8906 135.781 41.8906V40.8906ZM128.477 42.1022C127.547 42.4965 126.818 43.0531 126.324 43.7871C125.829 44.522 125.594 45.3984 125.594 46.3906H126.594C126.594 45.5599 126.789 44.8869 127.153 44.3457C127.518 43.8037 128.078 43.3577 128.867 43.0228L128.477 42.1022ZM185.391 51.7812L184.991 52.0827L185 52.0936L185.391 51.7812ZM185.156 55.6094L185.491 55.981L185.493 55.9793L185.156 55.6094ZM180.703 55.1406L180.3 55.4366L180.318 55.4603L180.338 55.4818L180.703 55.1406ZM169.688 40.1406L170.091 39.8447L169.761 39.3957L169.35 39.7718L169.688 40.1406ZM164.141 45.2188L163.803 44.85L163.641 44.9986V45.2188H164.141ZM163.281 55.4531L162.928 55.0996L163.281 55.4531ZM159.141 9.82812L158.787 9.47457L158.779 9.48298L158.771 9.49179L159.141 9.82812ZM163.281 9.82812L162.928 10.1817L163.281 9.82812ZM164.141 38.0312H163.641V39.1732L164.48 38.3987L164.141 38.0312ZM179.375 23.9688L179.07 23.5724L179.052 23.5861L179.036 23.6013L179.375 23.9688ZM183.516 24.125L183.084 24.3769L183.096 24.3987L183.111 24.4191L183.516 24.125ZM183.047 28.1875L183.381 28.5595L183.391 28.5505L183.4 28.5411L183.047 28.1875ZM173.828 36.4688L173.494 36.0968L173.152 36.4036L173.429 36.7701L173.828 36.4688ZM185 52.0936C185.334 52.5111 185.516 53.0463 185.516 53.7344H186.516C186.516 52.8599 186.28 52.0931 185.781 51.4689L185 52.0936ZM185.516 53.7344C185.516 54.3131 185.296 54.8067 184.82 55.2394L185.493 55.9793C186.162 55.3704 186.516 54.6139 186.516 53.7344H185.516ZM184.822 55.2377C184.389 55.627 183.908 55.8125 183.359 55.8125V56.8125C184.165 56.8125 184.882 56.5292 185.491 55.981L184.822 55.2377ZM183.359 55.8125C182.46 55.8125 181.706 55.4824 181.069 54.7995L180.338 55.4818C181.159 56.3614 182.175 56.8125 183.359 56.8125V55.8125ZM181.106 54.8447L170.091 39.8447L169.284 40.4366L180.3 55.4366L181.106 54.8447ZM169.35 39.7718L163.803 44.85L164.478 45.5875L170.025 40.5094L169.35 39.7718ZM163.641 45.2188V53.4219H164.641V45.2188H163.641ZM163.641 53.4219C163.641 54.0651 163.411 54.6165 162.928 55.0996L163.635 55.8067C164.298 55.1439 164.641 54.3411 164.641 53.4219H163.641ZM162.928 55.0996C162.445 55.5826 161.893 55.8125 161.25 55.8125V56.8125C162.169 56.8125 162.972 56.4695 163.635 55.8067L162.928 55.0996ZM161.25 55.8125C160.607 55.8125 160.055 55.5826 159.572 55.0996L158.865 55.8067C159.528 56.4695 160.331 56.8125 161.25 56.8125V55.8125ZM159.572 55.0996C159.089 54.6165 158.859 54.0651 158.859 53.4219H157.859C157.859 54.3411 158.202 55.1439 158.865 55.8067L159.572 55.0996ZM158.859 53.4219V11.8594H157.859V53.4219H158.859ZM158.859 11.8594C158.859 11.2013 159.074 10.6444 159.511 10.1645L158.771 9.49179C158.165 10.1577 157.859 10.955 157.859 11.8594H158.859ZM159.494 10.1817C159.97 9.70548 160.545 9.46875 161.25 9.46875V8.46875C160.288 8.46875 159.457 8.80494 158.787 9.47457L159.494 10.1817ZM161.25 9.46875C161.893 9.46875 162.445 9.69865 162.928 10.1817L163.635 9.47457C162.972 8.81177 162.169 8.46875 161.25 8.46875V9.46875ZM162.928 10.1817C163.411 10.6647 163.641 11.2161 163.641 11.8594H164.641C164.641 10.9401 164.298 10.1374 163.635 9.47457L162.928 10.1817ZM163.641 11.8594V38.0312H164.641V11.8594H163.641ZM164.48 38.3987L179.714 24.3362L179.036 23.6013L163.801 37.6638L164.48 38.3987ZM179.68 24.3651C180.272 23.9096 180.921 23.6875 181.641 23.6875V22.6875C180.694 22.6875 179.832 22.9862 179.07 23.5724L179.68 24.3651ZM181.641 23.6875C182.395 23.6875 182.83 23.9419 183.084 24.3769L183.948 23.8731C183.472 23.0581 182.657 22.6875 181.641 22.6875V23.6875ZM183.111 24.4191C183.496 24.9478 183.641 25.366 183.641 25.6875H184.641C184.641 25.0715 184.369 24.448 183.92 23.8309L183.111 24.4191ZM183.641 25.6875C183.641 26.4785 183.339 27.1883 182.693 27.8339L183.4 28.5411C184.213 27.7284 184.641 26.7715 184.641 25.6875H183.641ZM182.713 27.8155L173.494 36.0968L174.162 36.8407L183.381 28.5595L182.713 27.8155ZM173.429 36.7701L184.992 52.0826L185.79 51.4799L174.227 36.1674L173.429 36.7701ZM197.188 41.7812V41.2812H196.62L196.692 41.8444L197.188 41.7812ZM200.469 48.6562L200.126 49.02L200.131 49.0251L200.137 49.03L200.469 48.6562ZM216.484 49.5938L216.691 50.0489L216.7 50.0451L216.708 50.041L216.484 49.5938ZM218.438 49.0469V49.5469H218.46L218.483 49.5448L218.438 49.0469ZM220 49.6719L219.646 50.0254L219.656 50.0347L219.666 50.0435L220 49.6719ZM219.375 53.6562L219.151 53.2089L219.141 53.2144L219.375 53.6562ZM214.609 55.8438L214.74 56.3264L214.749 56.3239L214.759 56.321L214.609 55.8438ZM195.625 52.25L195.265 52.5972L195.271 52.6036L195.625 52.25ZM195 27.9531L194.608 27.6429L194.606 27.6448L195 27.9531ZM217.969 27.5625L217.589 27.8874L217.59 27.889L217.969 27.5625ZM221.016 40.9219L220.662 40.5683L220.654 40.5767L220.646 40.5855L221.016 40.9219ZM198.359 32.7188L198.803 32.95L198.805 32.9451L198.359 32.7188ZM197.188 37.0156L196.69 36.969L196.638 37.5156H197.188V37.0156ZM216.094 37.0156V37.5156H216.62L216.593 36.9898L216.094 37.0156ZM212.734 29.8281L212.405 30.2045L212.411 30.2091L212.734 29.8281ZM196.692 41.8444C197.068 44.8054 198.206 47.2099 200.126 49.02L200.812 48.2925C199.086 46.6651 198.036 44.4863 197.683 41.7181L196.692 41.8444ZM200.137 49.03C202.127 50.7992 204.81 51.6562 208.125 51.6562V50.6562C204.982 50.6562 202.561 49.8467 200.801 48.2825L200.137 49.03ZM208.125 51.6562C211.457 51.6562 214.318 51.1277 216.691 50.0489L216.277 49.1386C214.067 50.1432 211.356 50.6562 208.125 50.6562V51.6562ZM216.708 50.041C217.395 49.6974 217.968 49.5469 218.438 49.5469V48.5469C217.761 48.5469 217.032 48.761 216.261 49.1465L216.708 50.041ZM218.483 49.5448C218.884 49.5083 219.265 49.6437 219.646 50.0254L220.354 49.3183C219.798 48.7625 219.136 48.4813 218.392 48.5489L218.483 49.5448ZM219.666 50.0435C220.106 50.4403 220.281 50.8341 220.281 51.2344H221.281C221.281 50.4888 220.935 49.8409 220.334 49.3002L219.666 50.0435ZM220.281 51.2344C220.281 51.739 220.178 52.1363 219.997 52.4482C219.818 52.7573 219.544 53.0127 219.151 53.209L219.599 54.1035C220.144 53.831 220.573 53.4484 220.862 52.9503C221.15 52.4548 221.281 51.8755 221.281 51.2344H220.281ZM219.141 53.2144C218.258 53.6817 217.455 54.0965 216.73 54.459L217.177 55.3535C217.91 54.9868 218.721 54.5683 219.609 54.0981L219.141 53.2144ZM216.73 54.459C216.026 54.8108 215.27 55.1135 214.46 55.3665L214.759 56.321C215.616 56.0531 216.422 55.7308 217.177 55.3535L216.73 54.459ZM214.479 55.3611C212.604 55.8677 210.41 56.125 207.891 56.125V57.125C210.475 57.125 212.76 56.8614 214.74 56.3264L214.479 55.3611ZM207.891 56.125C202.725 56.125 198.777 54.6953 195.979 51.8964L195.271 52.6036C198.306 55.638 202.536 57.125 207.891 57.125V56.125ZM195.985 51.9028C193.236 49.0536 191.828 45.0009 191.828 39.6719H190.828C190.828 45.1762 192.285 49.5089 195.265 52.5972L195.985 51.9028ZM191.828 39.6719C191.828 35.0751 193.027 31.2832 195.394 28.2615L194.606 27.6448C192.078 30.873 190.828 34.8936 190.828 39.6719H191.828ZM195.392 28.2633C198.045 24.9095 201.772 23.2188 206.641 23.2188V22.2188C201.509 22.2188 197.476 24.0176 194.608 27.6429L195.392 28.2633ZM206.641 23.2188C211.307 23.2188 214.936 24.7843 217.589 27.8874L218.349 27.2376C215.481 23.8823 211.558 22.2188 206.641 22.2188V23.2188ZM217.59 27.889C220.105 30.8067 221.375 34.4618 221.375 38.8906H222.375C222.375 34.2569 221.041 30.36 218.347 27.236L217.59 27.889ZM221.375 38.8906C221.375 39.5339 221.145 40.0853 220.662 40.5683L221.369 41.2754C222.032 40.6126 222.375 39.8099 222.375 38.8906H221.375ZM220.646 40.5855C220.227 41.0456 219.689 41.2812 218.984 41.2812V42.2812C219.947 42.2812 220.762 41.944 221.386 41.2582L220.646 40.5855ZM218.984 41.2812H197.188V42.2812H218.984V41.2812ZM206.641 27.1406C204.664 27.1406 202.929 27.5815 201.457 28.4839C199.986 29.3864 198.807 30.7317 197.914 32.4924L198.805 32.9451C199.63 31.3204 200.691 30.1266 201.98 29.3364C203.269 28.5461 204.816 28.1406 206.641 28.1406V27.1406ZM197.916 32.4875C197.255 33.7547 196.851 35.2527 196.69 36.969L197.685 37.0623C197.837 35.4452 198.214 34.0786 198.803 32.95L197.916 32.4875ZM197.188 37.5156H216.094V36.5156H197.188V37.5156ZM216.593 36.9898C216.431 33.8476 215.258 31.3171 213.058 29.4472L212.411 30.2091C214.377 31.8808 215.444 34.1419 215.594 37.0415L216.593 36.9898ZM213.064 29.4518C211.298 27.907 209.147 27.1406 206.641 27.1406V28.1406C208.926 28.1406 210.837 28.8326 212.405 30.2044L213.064 29.4518ZM230.781 23.8906L231.118 24.2606L231.126 24.2526L231.135 24.2442L230.781 23.8906ZM234.922 23.8906L234.552 24.227L234.56 24.2358L234.568 24.2442L234.922 23.8906ZM234.922 55.4531L235.292 55.7895L234.922 55.4531ZM230.312 15.7656L229.944 16.1035L229.951 16.1115L229.959 16.1192L230.312 15.7656ZM230.422 26C230.422 25.2331 230.664 24.6726 231.118 24.2606L230.445 23.5207C229.752 24.1503 229.422 24.996 229.422 26H230.422ZM231.135 24.2442C231.611 23.768 232.186 23.5312 232.891 23.5312V22.5312C231.929 22.5312 231.097 22.8674 230.428 23.5371L231.135 24.2442ZM232.891 23.5312C233.595 23.5312 234.134 23.7669 234.552 24.227L235.292 23.5543C234.668 22.8685 233.853 22.5312 232.891 22.5312V23.5312ZM234.568 24.2442C234.977 24.6528 235.203 25.2185 235.203 26H236.203C236.203 25.0106 235.909 24.1702 235.275 23.5371L234.568 24.2442ZM235.203 26V53.4219H236.203V26H235.203ZM235.203 53.4219C235.203 54.08 234.988 54.6368 234.552 55.1168L235.292 55.7895C235.897 55.1236 236.203 54.3263 236.203 53.4219H235.203ZM234.552 55.1168C234.134 55.5769 233.595 55.8125 232.891 55.8125V56.8125C233.853 56.8125 234.668 56.4752 235.292 55.7895L234.552 55.1168ZM232.891 55.8125C232.186 55.8125 231.611 55.5758 231.135 55.0996L230.428 55.8067C231.097 56.4763 231.929 56.8125 232.891 56.8125V55.8125ZM231.135 55.0996C230.652 54.6165 230.422 54.0651 230.422 53.4219H229.422C229.422 54.3411 229.765 55.1439 230.428 55.8067L231.135 55.0996ZM230.422 53.4219V26H229.422V53.4219H230.422ZM235.828 13.4219C235.828 14.2357 235.562 14.887 235.037 15.4121L235.744 16.1192C236.469 15.3943 236.828 14.4831 236.828 13.4219H235.828ZM235.037 15.4121C234.512 15.9372 233.861 16.2031 233.047 16.2031V17.2031C234.108 17.2031 235.019 16.8441 235.744 16.1192L235.037 15.4121ZM233.047 16.2031H232.656V17.2031H233.047V16.2031ZM232.656 16.2031C231.842 16.2031 231.191 15.9372 230.666 15.4121L229.959 16.1192C230.684 16.8441 231.595 17.2031 232.656 17.2031V16.2031ZM230.681 15.4278C230.202 14.905 229.953 14.2486 229.953 13.4219H228.953C228.953 14.4702 229.277 15.3762 229.944 16.1035L230.681 15.4278ZM229.953 13.4219V13.1875H228.953V13.4219H229.953ZM229.953 13.1875C229.953 12.3737 230.219 11.7224 230.744 11.1973L230.037 10.4902C229.312 11.2151 228.953 12.1263 228.953 13.1875H229.953ZM230.744 11.1973C231.275 10.6663 231.903 10.4062 232.656 10.4062V9.40625C231.638 9.40625 230.756 9.77125 230.037 10.4902L230.744 11.1973ZM232.656 10.4062H233.047V9.40625H232.656V10.4062ZM233.047 10.4062C233.861 10.4062 234.512 10.6722 235.037 11.1973L235.744 10.4902C235.019 9.7653 234.108 9.40625 233.047 9.40625V10.4062ZM235.037 11.1973C235.562 11.7224 235.828 12.3737 235.828 13.1875H236.828C236.828 12.1263 236.469 11.2151 235.744 10.4902L235.037 11.1973ZM235.828 13.1875V13.4219H236.828V13.1875H235.828ZM251.875 27.5625H251.375V28.7836L252.231 27.9132L251.875 27.5625ZM278.359 39.6719L278.859 39.6719L278.859 39.6668L278.359 39.6719ZM273.438 52.3281L273.785 52.6878L273.788 52.6845L273.438 52.3281ZM262.734 56.625L262.741 56.125H262.734V56.625ZM251.875 51.7812L252.231 51.4306L251.375 50.5601V51.7812H251.875ZM251.016 55.4531L250.662 55.0996L250.654 55.108L250.646 55.1168L251.016 55.4531ZM246.875 55.4531L246.505 55.7895L246.513 55.7983L246.521 55.8067L246.875 55.4531ZM246.875 9.82812L247.229 10.1817L246.875 9.82812ZM251.016 9.82812L250.646 10.1645L250.662 10.1821L250.679 10.1981L251.016 9.82812ZM251.875 46.3906H251.375V46.583L251.504 46.7258L251.875 46.3906ZM262.031 51.1562V50.6562L262.024 50.6563L262.031 51.1562ZM271.797 44.6719L272.265 44.8468L272.268 44.84L271.797 44.6719ZM272.5 39.6719H272L272 39.6858L272.5 39.6719ZM269.609 31.0781L269.977 30.7385L269.968 30.7294L269.609 31.0781ZM251.875 32.9531L251.507 32.615L251.375 32.7584V32.9531H251.875ZM252.231 27.9132C255.325 24.7689 258.846 23.2188 262.812 23.2188V22.2188C258.55 22.2188 254.779 23.8978 251.519 27.2118L252.231 27.9132ZM262.812 23.2188C266.848 23.2188 270.262 24.6255 273.084 27.4473L273.791 26.7402C270.78 23.7287 267.11 22.2188 262.812 22.2188V23.2188ZM273.084 27.4473C276.208 30.5717 277.808 34.6332 277.859 39.6769L278.859 39.6668C278.806 34.3981 277.125 30.0741 273.791 26.7402L273.084 27.4473ZM277.859 39.6719C277.859 44.7654 276.26 48.8493 273.087 51.9718L273.788 52.6845C277.178 49.3487 278.859 44.995 278.859 39.6719H277.859ZM273.09 51.9684C270.162 54.7957 266.721 56.1754 262.741 56.125L262.728 57.125C266.977 57.1787 270.671 55.6939 273.785 52.6878L273.09 51.9684ZM262.734 56.125C258.822 56.125 255.326 54.5763 252.231 51.4306L251.519 52.1319C254.778 55.4446 258.522 57.125 262.734 57.125V56.125ZM251.375 51.7812V53.4219H252.375V51.7812H251.375ZM251.375 53.4219C251.375 54.0651 251.145 54.6165 250.662 55.0996L251.369 55.8067C252.032 55.1439 252.375 54.3411 252.375 53.4219H251.375ZM250.646 55.1168C250.227 55.5769 249.689 55.8125 248.984 55.8125V56.8125C249.947 56.8125 250.762 56.4752 251.386 55.7895L250.646 55.1168ZM248.984 55.8125C248.279 55.8125 247.705 55.5758 247.229 55.0996L246.521 55.8067C247.191 56.4763 248.023 56.8125 248.984 56.8125V55.8125ZM247.245 55.1168C246.809 54.6368 246.594 54.08 246.594 53.4219H245.594C245.594 54.3263 245.9 55.1236 246.505 55.7895L247.245 55.1168ZM246.594 53.4219V11.8594H245.594V53.4219H246.594ZM246.594 11.8594C246.594 11.1397 246.814 10.5961 247.229 10.1817L246.521 9.47457C245.894 10.1018 245.594 10.9124 245.594 11.8594H246.594ZM247.229 10.1817C247.705 9.70548 248.279 9.46875 248.984 9.46875V8.46875C248.023 8.46875 247.191 8.80494 246.521 9.47457L247.229 10.1817ZM248.984 9.46875C249.689 9.46875 250.227 9.70439 250.646 10.1645L251.386 9.49179C250.762 8.80603 249.947 8.46875 248.984 8.46875V9.46875ZM250.679 10.1981C251.139 10.6163 251.375 11.1549 251.375 11.8594H252.375C252.375 10.8972 252.038 10.0816 251.352 9.45815L250.679 10.1981ZM251.375 11.8594V27.5625H252.375V11.8594H251.375ZM251.504 46.7258C254.503 50.0463 258.021 51.7105 262.038 51.6562L262.024 50.6563C258.334 50.7062 255.08 49.1933 252.246 46.0555L251.504 46.7258ZM262.031 51.6562C264.553 51.6562 266.693 51.0992 268.421 49.9517C270.152 48.8027 271.428 47.0886 272.265 44.8468L271.328 44.4969C270.551 46.578 269.393 48.1062 267.868 49.1186C266.341 50.1326 264.406 50.6562 262.031 50.6562V51.6562ZM272.268 44.84C272.813 43.3124 273.053 41.5822 273 39.658L272 39.6858C272.051 41.5115 271.822 43.1146 271.326 44.5037L272.268 44.84ZM273 39.6719C273 35.9372 272.011 32.9384 269.976 30.7386L269.242 31.4176C271.062 33.3846 272 36.1149 272 39.6719H273ZM269.968 30.7294C267.982 28.6882 265.317 27.6875 262.031 27.6875V28.6875C265.1 28.6875 267.487 29.6139 269.251 31.4268L269.968 30.7294ZM262.031 27.6875C258.02 27.6875 254.506 29.3484 251.507 32.615L252.243 33.2913C255.078 30.2037 258.335 28.6875 262.031 28.6875V27.6875ZM251.375 32.9531V46.3906H252.375V32.9531H251.375ZM312.734 27.4062L313.097 27.0617L313.094 27.0587L312.734 27.4062ZM317.109 39.6719L316.609 39.6615V39.6719H317.109ZM312.734 51.9375L313.094 52.2851L313.1 52.2787L312.734 51.9375ZM288.906 51.9375L289.272 51.5963L289.266 51.59L288.906 51.9375ZM288.906 27.4062L289.263 27.7569L289.272 27.7474L288.906 27.4062ZM293.594 48.7344L293.25 49.0974L293.26 49.1066L293.27 49.1153L293.594 48.7344ZM297.031 50.6875L296.873 51.1619L296.879 51.1637L297.031 50.6875ZM304.453 50.6875L304.295 50.2132L304.453 50.6875ZM307.891 48.6562L308.225 49.0279L308.227 49.0262L307.891 48.6562ZM307.891 30.6094L308.231 30.2436L308.229 30.2412L307.891 30.6094ZM300.781 28.0312V28.5313L300.791 28.5312L300.781 28.0312ZM291.172 34.2812L290.712 34.0857L290.71 34.0901L291.172 34.2812ZM291.172 45.0625L290.71 45.2537L291.172 45.0625ZM300.781 23.2188C305.614 23.2188 309.462 24.74 312.375 27.7538L313.094 27.0587C309.965 23.8225 305.844 22.2188 300.781 22.2188V23.2188ZM312.372 27.7508C315.289 30.8186 316.711 34.7731 316.609 39.6615L317.609 39.6823C317.716 34.5706 316.221 30.348 313.097 27.0617L312.372 27.7508ZM316.609 39.6719C316.609 44.6218 315.184 48.5804 312.369 51.5963L313.1 52.2787C316.118 49.0446 317.609 44.8261 317.609 39.6719H316.609ZM312.375 51.59C309.462 54.6037 305.614 56.125 300.781 56.125V57.125C305.844 57.125 309.965 55.5213 313.094 52.285L312.375 51.59ZM300.781 56.125C295.894 56.125 292.078 54.6027 289.272 51.5963L288.541 52.2787C291.568 55.5223 295.668 57.125 300.781 57.125V56.125ZM289.266 51.59C286.35 48.5733 284.875 44.6169 284.875 39.6719H283.875C283.875 44.831 285.421 49.0517 288.547 52.285L289.266 51.59ZM284.875 39.6719C284.875 34.6729 286.351 30.7192 289.263 27.7568L288.55 27.0557C285.42 30.2392 283.875 34.4625 283.875 39.6719H284.875ZM289.272 27.7474C292.078 24.7411 295.894 23.2188 300.781 23.2188V22.2188C295.668 22.2188 291.568 23.8214 288.541 27.0651L289.272 27.7474ZM293.27 49.1153C294.358 50.0406 295.56 50.7242 296.873 51.1618L297.189 50.2132C296.002 49.8175 294.912 49.199 293.918 48.3534L293.27 49.1153ZM296.879 51.1637C298.223 51.594 299.525 51.8125 300.781 51.8125V50.8125C299.642 50.8125 298.443 50.6144 297.184 50.2113L296.879 51.1637ZM300.781 51.8125C302.038 51.8125 303.315 51.5938 304.611 51.1618L304.295 50.2132C303.091 50.6145 301.92 50.8125 300.781 50.8125V51.8125ZM304.611 51.1618C305.931 50.7221 307.136 50.0084 308.225 49.0279L307.556 48.2846C306.562 49.1791 305.476 49.8196 304.295 50.2132L304.611 51.1618ZM308.227 49.0262C310.65 46.8233 311.828 43.6513 311.828 39.5938H310.828C310.828 43.4529 309.714 46.3225 307.554 48.2863L308.227 49.0262ZM311.828 39.5938C311.828 35.6352 310.647 32.4947 308.231 30.2436L307.55 30.9752C309.717 32.9949 310.828 35.844 310.828 39.5938H311.828ZM308.229 30.2412C306.2 28.3765 303.702 27.4771 300.772 27.5313L300.791 28.5312C303.485 28.4813 305.727 29.3005 307.552 30.9775L308.229 30.2412ZM300.781 27.5312C298.388 27.5312 296.328 28.0699 294.63 29.1746C292.93 30.2799 291.629 31.9281 290.712 34.0857L291.632 34.4768C292.486 32.4677 293.671 30.991 295.175 30.0129C296.68 29.0343 298.54 28.5312 300.781 28.5312V27.5312ZM290.71 34.0901C290.054 35.6753 289.734 37.5402 289.734 39.6719H290.734C290.734 37.6369 291.04 35.9081 291.634 34.4724L290.71 34.0901ZM289.734 39.6719C289.734 41.8035 290.054 43.6685 290.71 45.2537L291.634 44.8713C291.04 43.4357 290.734 41.7069 290.734 39.6719H289.734ZM290.71 45.2537C291.356 46.8163 292.2 48.1029 293.25 49.0974L293.938 48.3714C293.008 47.4909 292.237 46.3295 291.634 44.8713L290.71 45.2537Z" fill="black"/>
</svg>
