<svg fill="none" height="80" viewBox="0 0 321 80" width="321" xmlns="http://www.w3.org/2000/svg" xmlns:xlink="http://www.w3.org/1999/xlink"><mask id="a" fill="#fff"><path d="m50.9443 31.2874c-.0076-1.0821-.0167-2.3454-.0259-3.5266-.0076-1.0411-.0152-2.0121-.0213-2.7427-.003-.3653-.0062-.6697-.0092-.8934-.003-.1112-.0046-.2024-.0061-.2725l-.003-.0944c-.0016-.0319 0-.0457-.0062-.1157v-.003c-.1248-1.1081-.3257-3.2359-1.8508-5.1019-.7625-.9316-1.8524-1.7686-3.3257-2.3501-.6713-.2633-1.4246-.4748-2.2602-.6301.5342-.8569.8493-1.863.8493-2.9467 0-3.09894-2.5114-5.6103-5.6103-5.6103-1.6271 0-3.0836.70321-4.108 1.81126-1.0242-1.11097-2.4884-1.81116-4.12-1.81116-3.0958 0-5.6073 2.51135-5.6073 5.6103 0 1.0867.3196 2.0959.8554 2.9558-1.0564.1918-1.9924.4689-2.7884.8342-2.0076.9132-3.1978 2.347-3.828 3.7321-.6362 1.3789-.7687 2.7031-.8569 3.5068v.003c-.0076.0792-.0061.0914-.0092.1309-.0076.2466-.0137.965-.0213 1.9604-.0122 1.4855-.0244 3.5342-.0335 5.2177v.3561c-3.799 3.2329-8.37434 6.5966-8.52806 11.9694-.17787 6.3285 4.78246 10.7455 10.59526 11.4669 5.009.624 8.4641.8098 14.3377.8098 5.872 0 9.3271-.1857 14.3377-.8098 5.8112-.7214 10.7731-5.1384 10.5951-11.4671-.154-5.385-4.749-8.7487-8.5511-11.9892zm-2.3029-7.4108v.003l-.0015-.003zm-12.7455-9.9512c.0365-.1507.0639-.2922.0852-.4261l.0016-.0062.0061-.0395c.0076-.0579.0183-.1126.0259-.1705v-.0061c.0244-.207.0441-.4292.0441-.6667 0-.1978-.0121-.3927-.0319-.5845l-.0016-.0273-.0167-.0975c-.0183-.1491-.0381-.2952-.0701-.4399 0 0 0-.0045 0-.0061l-.0076-.035-.0197-.07c-.035-.1507-.0731-.3014-.1188-.4445-.0015-.003-.0015-.003-.0015-.003l-.0016-.0122c.586-.98628 1.656-1.64838 2.8858-1.64682.933 0 1.7686.37444 2.382.98632.6088.6118.9847 1.4459.9863 2.3805 0 1.0929-.5252 2.0518-1.3364 2.6696-.2238-.0061-.449-.0121-.6803-.0121h-3.3896c-.3425-.2619-.6332-.5829-.8524-.9528.0138-.0457.0305-.0883.0457-.1385.0016-.0076.003-.0138.0046-.0228.0198-.0701.0395-.1401.0578-.2132.0031-.0091.0031-.0152.0062-.0243zm3.3485 30.1458c-.3106.5814-.7382 1.0685-1.2786 1.4657-.5418.3973-1.1917.6941-1.9466.8873-.3303.0853-.6759.1431-1.0274.1888v2.2009h-2.6241v-2.1552c-.7457-.0639-1.4611-.1796-2.1324-.3653-1.0274-.2801-2.3728-1.4155-2.3728-1.4155-.1142-.067-.1918-.1856-.207-.3166-.0168-.1323.0273-.2648.1217-.3592l1.3151-1.3151c.1415-.14.3623-.1674.5327-.0624 0 0 .9833.8539 1.7291 1.0578.7458.2009 1.4855.3044 2.2222.3044.9316 0 1.7017-.1644 2.3105-.4932.6118-.3303.9163-.8432.9163-1.5434 0-.5022-.1492-.8995-.4506-1.1903-.3014-.2892-.8098-.4718-1.525-.5509l-2.3562-.204c-1.3943-.1369-2.4688-.5236-3.2237-1.1629-.758-.6393-1.1355-1.6073-1.1355-2.9041 0-.7184.1461-1.3592.4368-1.9208.2907-.5602.688-1.035 1.1918-1.4247.5038-.3866 1.0898-.6758 1.7579-.8706.2801-.0792.5723-.134.8691-.1827v-1.8935h2.6241v1.8539c.6134.0608 1.1963.1613 1.7382.3105.9208.2497 1.8873 1.0046 1.8873 1.0046.1202.0639.204.1827.2238.315.0213.1386-.0228.2725-.1202.3699l-1.2314 1.2542c-.1324.1309-.3364.1674-.5022.0792 0 0-.7291-.5206-1.3622-.6849-.6302-.1645-1.2907-.2466-1.9894-.2466-.9116 0-1.5845.1735-2.0197.5236-.4368.3501-.6529.8036-.6529 1.3638 0 .5068.1522.8934.4642 1.1629.309.274.8326.4505 1.5692.5235l2.064.1766c1.5296.134 2.6864.5419 3.4718 1.2192s1.1765 1.6667 1.1765 2.9635c-.0003.7763-.154 1.4551-.4644 2.0366zm7.2236-17.8446c-.7352-1.5905.8797-6.0456-6.907-6.0456-2.3409 0-3.72 0-4.5129 0 .0137 0-.102 0-.4855 0-.1279 0-.2922 0-.4855 0-.793 0-2.1735 0-4.5114 0-7.7899 0-6.1719 4.455-6.907 6.0456-.4932 1.0655-1.2877 2.0578-2.2481 3.0259.0062-.7611.0092-1.5342.0152-2.2496.0046-.8676.0106-1.65.0152-2.2283.0046-.2877.0076-.5251.0092-.694.003-.0853.003-.1492.0045-.1949l.0016-.0365c.1096-1.0487.3014-2.5145 1.236-3.7412.4733-.6179 1.1339-1.1994 2.1522-1.6681 1.0167-.4689 2.4003-.8174 4.286-.9041.4917-.0228.9087-.3623 1.0335-.8372.1233-.4748-.0746-.9771-.4917-1.2359-.9573-.5997-1.589-1.65-1.589-2.8523 0-.9346.3744-1.7686.9863-2.3805.6118-.61198 1.4459-.98633 2.3774-.98633.9345 0 1.7686.37445 2.382.98633.2952.2952.5312.6453.6986 1.0289l.0122.0213c.0106.0274.0183.0518.0289.0761.0685.1766.1279.3562.1689.5449l.003.0152.0031.0168c.003.0076.003.0198.0061.0305.0395.2085.0655.4246.0655.6469 0 .1187-.0107.2497-.0274.3896l-.0228.1492.0016-.0062c-.0152.0944-.032.1766-.0488.2527l-.0015.0062-.0396.1431c-.0213.073-.0456.1491-.0746.2283l-.0624.1583c-.2679.6225-.7154 1.1476-1.2831 1.5129-.003.003-.0076.0045-.0092.0091-.0426.0244-.0792.0563-.1157.0883-.0198.0183-.0427.0335-.0593.0517-.0274.0274-.0517.0579-.0777.0883-.0197.0273-.0441.0517-.0624.076-.0198.0305-.0335.0639-.0517.0944-.0183.0335-.0381.0639-.0517.0944-.0122.0305-.0198.0639-.0305.0944-.0138.0396-.0274.0761-.035.1142-.0046.0259-.0076.0533-.0106.0806-.0062.0487-.0122.0944-.0138.1431l-.0015.0121c0 .0213.0061.0457.0076.07.003.0457.0046.0914.0152.137.0046.0335.0167.067.0243.099.0106.0381.0214.0746.035.1111.0152.0396.0365.0731.0548.1096.0152.0244.0244.0517.0396.0761.003.003.0061.0061.0091.0122.0228.0335.0488.0639.0761.0944.0214.0273.0411.0548.0639.0792.0228.0213.0487.0395.0731.0608.0305.0259.0593.0549.0928.0761.0274.0183.0563.0305.0837.0487.035.0183.0685.0396.1066.0549.0289.0152.0639.0213.0974.0319.0365.0106.07.0259.1096.035.0273.0061.0563.0061.0852.0106.0441.0046.0898.0137.1339.0137h.0138 3.0822 4.0852c.3257 0 .6393.0107.9543.0259 1.6484.0777 2.9208.3547 3.8889.7382.8645.344 1.4946.7611 1.9787 1.2177.7245.6818 1.1308 1.4566 1.3865 2.2344.2497.7641.3364 1.5129.4034 2.1248 0 .0183.0016.0731.003.1553.0138.7032.029 3.0045.0457 5.2176-.9483-.9592-1.7337-1.9425-2.2192-2.9988z" fill="#fff"/></mask><g fill="#f9e13f"><circle cx="35" cy="35" r="34.5" stroke="#000"/><path d="m50.9443 31.2874c-.0076-1.0821-.0167-2.3454-.0259-3.5266-.0076-1.0411-.0152-2.0121-.0213-2.7427-.003-.3653-.0062-.6697-.0092-.8934-.003-.1112-.0046-.2024-.0061-.2725l-.003-.0944c-.0016-.0319 0-.0457-.0062-.1157v-.003c-.1248-1.1081-.3257-3.2359-1.8508-5.1019-.7625-.9316-1.8524-1.7686-3.3257-2.3501-.6713-.2633-1.4246-.4748-2.2602-.6301.5342-.8569.8493-1.863.8493-2.9467 0-3.09894-2.5114-5.6103-5.6103-5.6103-1.6271 0-3.0836.70321-4.108 1.81126-1.0242-1.11097-2.4884-1.81116-4.12-1.81116-3.0958 0-5.6073 2.51135-5.6073 5.6103 0 1.0867.3196 2.0959.8554 2.9558-1.0564.1918-1.9924.4689-2.7884.8342-2.0076.9132-3.1978 2.347-3.828 3.7321-.6362 1.3789-.7687 2.7031-.8569 3.5068v.003c-.0076.0792-.0061.0914-.0092.1309-.0076.2466-.0137.965-.0213 1.9604-.0122 1.4855-.0244 3.5342-.0335 5.2177v.3561c-3.799 3.2329-8.37434 6.5966-8.52806 11.9694-.17787 6.3285 4.78246 10.7455 10.59526 11.4669 5.009.624 8.4641.8098 14.3377.8098 5.872 0 9.3271-.1857 14.3377-.8098 5.8112-.7214 10.7731-5.1384 10.5951-11.4671-.154-5.385-4.749-8.7487-8.5511-11.9892zm-2.3029-7.4108v.003l-.0015-.003zm-12.7455-9.9512c.0365-.1507.0639-.2922.0852-.4261l.0016-.0062.0061-.0395c.0076-.0579.0183-.1126.0259-.1705v-.0061c.0244-.207.0441-.4292.0441-.6667 0-.1978-.0121-.3927-.0319-.5845l-.0016-.0273-.0167-.0975c-.0183-.1491-.0381-.2952-.0701-.4399 0 0 0-.0045 0-.0061l-.0076-.035-.0197-.07c-.035-.1507-.0731-.3014-.1188-.4445-.0015-.003-.0015-.003-.0015-.003l-.0016-.0122c.586-.98628 1.656-1.64838 2.8858-1.64682.933 0 1.7686.37444 2.382.98632.6088.6118.9847 1.4459.9863 2.3805 0 1.0929-.5252 2.0518-1.3364 2.6696-.2238-.0061-.449-.0121-.6803-.0121h-3.3896c-.3425-.2619-.6332-.5829-.8524-.9528.0138-.0457.0305-.0883.0457-.1385.0016-.0076.003-.0138.0046-.0228.0198-.0701.0395-.1401.0578-.2132.0031-.0091.0031-.0152.0062-.0243zm3.3485 30.1458c-.3106.5814-.7382 1.0685-1.2786 1.4657-.5418.3973-1.1917.6941-1.9466.8873-.3303.0853-.6759.1431-1.0274.1888v2.2009h-2.6241v-2.1552c-.7457-.0639-1.4611-.1796-2.1324-.3653-1.0274-.2801-2.3728-1.4155-2.3728-1.4155-.1142-.067-.1918-.1856-.207-.3166-.0168-.1323.0273-.2648.1217-.3592l1.3151-1.3151c.1415-.14.3623-.1674.5327-.0624 0 0 .9833.8539 1.7291 1.0578.7458.2009 1.4855.3044 2.2222.3044.9316 0 1.7017-.1644 2.3105-.4932.6118-.3303.9163-.8432.9163-1.5434 0-.5022-.1492-.8995-.4506-1.1903-.3014-.2892-.8098-.4718-1.525-.5509l-2.3562-.204c-1.3943-.1369-2.4688-.5236-3.2237-1.1629-.758-.6393-1.1355-1.6073-1.1355-2.9041 0-.7184.1461-1.3592.4368-1.9208.2907-.5602.688-1.035 1.1918-1.4247.5038-.3866 1.0898-.6758 1.7579-.8706.2801-.0792.5723-.134.8691-.1827v-1.8935h2.6241v1.8539c.6134.0608 1.1963.1613 1.7382.3105.9208.2497 1.8873 1.0046 1.8873 1.0046.1202.0639.204.1827.2238.315.0213.1386-.0228.2725-.1202.3699l-1.2314 1.2542c-.1324.1309-.3364.1674-.5022.0792 0 0-.7291-.5206-1.3622-.6849-.6302-.1645-1.2907-.2466-1.9894-.2466-.9116 0-1.5845.1735-2.0197.5236-.4368.3501-.6529.8036-.6529 1.3638 0 .5068.1522.8934.4642 1.1629.309.274.8326.4505 1.5692.5235l2.064.1766c1.5296.134 2.6864.5419 3.4718 1.2192s1.1765 1.6667 1.1765 2.9635c-.0003.7763-.154 1.4551-.4644 2.0366zm7.2236-17.8446c-.7352-1.5905.8797-6.0456-6.907-6.0456-2.3409 0-3.72 0-4.5129 0 .0137 0-.102 0-.4855 0-.1279 0-.2922 0-.4855 0-.793 0-2.1735 0-4.5114 0-7.7899 0-6.1719 4.455-6.907 6.0456-.4932 1.0655-1.2877 2.0578-2.2481 3.0259.0062-.7611.0092-1.5342.0152-2.2496.0046-.8676.0106-1.65.0152-2.2283.0046-.2877.0076-.5251.0092-.694.003-.0853.003-.1492.0045-.1949l.0016-.0365c.1096-1.0487.3014-2.5145 1.236-3.7412.4733-.6179 1.1339-1.1994 2.1522-1.6681 1.0167-.4689 2.4003-.8174 4.286-.9041.4917-.0228.9087-.3623 1.0335-.8372.1233-.4748-.0746-.9771-.4917-1.2359-.9573-.5997-1.589-1.65-1.589-2.8523 0-.9346.3744-1.7686.9863-2.3805.6118-.61198 1.4459-.98633 2.3774-.98633.9345 0 1.7686.37445 2.382.98633.2952.2952.5312.6453.6986 1.0289l.0122.0213c.0106.0274.0183.0518.0289.0761.0685.1766.1279.3562.1689.5449l.003.0152.0031.0168c.003.0076.003.0198.0061.0305.0395.2085.0655.4246.0655.6469 0 .1187-.0107.2497-.0274.3896l-.0228.1492.0016-.0062c-.0152.0944-.032.1766-.0488.2527l-.0015.0062-.0396.1431c-.0213.073-.0456.1491-.0746.2283l-.0624.1583c-.2679.6225-.7154 1.1476-1.2831 1.5129-.003.003-.0076.0045-.0092.0091-.0426.0244-.0792.0563-.1157.0883-.0198.0183-.0427.0335-.0593.0517-.0274.0274-.0517.0579-.0777.0883-.0197.0273-.0441.0517-.0624.076-.0198.0305-.0335.0639-.0517.0944-.0183.0335-.0381.0639-.0517.0944-.0122.0305-.0198.0639-.0305.0944-.0138.0396-.0274.0761-.035.1142-.0046.0259-.0076.0533-.0106.0806-.0062.0487-.0122.0944-.0138.1431l-.0015.0121c0 .0213.0061.0457.0076.07.003.0457.0046.0914.0152.137.0046.0335.0167.067.0243.099.0106.0381.0214.0746.035.1111.0152.0396.0365.0731.0548.1096.0152.0244.0244.0517.0396.0761.003.003.0061.0061.0091.0122.0228.0335.0488.0639.0761.0944.0214.0273.0411.0548.0639.0792.0228.0213.0487.0395.0731.0608.0305.0259.0593.0549.0928.0761.0274.0183.0563.0305.0837.0487.035.0183.0685.0396.1066.0549.0289.0152.0639.0213.0974.0319.0365.0106.07.0259.1096.035.0273.0061.0563.0061.0852.0106.0441.0046.0898.0137.1339.0137h.0138 3.0822 4.0852c.3257 0 .6393.0107.9543.0259 1.6484.0777 2.9208.3547 3.8889.7382.8645.344 1.4946.7611 1.9787 1.2177.7245.6818 1.1308 1.4566 1.3865 2.2344.2497.7641.3364 1.5129.4034 2.1248 0 .0183.0016.0731.003.1553.0138.7032.029 3.0045.0457 5.2176-.9483-.9592-1.7337-1.9425-2.2192-2.9988z" mask="url(#a)" stroke="#000" stroke-width="2"/><path d="m115.234 51.625c.469.5729.704 1.25.704 2.0312 0 .7292-.261 1.3542-.782 1.875-.521.5209-1.224.7813-2.109.7813-.886 0-1.641-.3646-2.266-1.0937l-16.4841-21.0938-7.2657 7.3438v11.9531c0 .7812-.2864 1.4583-.8593 2.0312s-1.2761.8594-2.1094.8594c-.7813 0-1.4583-.2865-2.0313-.8594-.5729-.5729-.8593-1.25-.8593-2.0312v-39.4531c0-.7813.2864-1.4584.8593-2.0313.573-.625 1.25-.9375 2.0313-.9375s1.4583.2865 2.0313.8594c.625.5729.9374 1.276.9374 2.1094v20.3124l21.8748-22.1874c.521-.6771 1.198-1.0157 2.032-1.0157.885-.0521 1.588.1823 2.109.7031.521.4688.781 1.1198.781 1.9532 0 .7812-.26 1.3802-.781 1.7968l-14.7658 14.6876zm8.828-26.6406c3.594-1.5625 7.318-2.3177 11.172-2.2656 4.323 0 7.683 1.3281 10.078 3.9843 2.136 2.2917 3.23 5.1563 3.282 8.5938v18.125c0 .7812-.313 1.4583-.938 2.0312-.573.5729-1.276.8594-2.109.8594-.781 0-1.458-.2865-2.031-.8594s-.86-1.25-.86-2.0312v-1.6407c-1.146 1.198-2.682 2.3178-4.609 3.3594-1.927.9896-4.375 1.4844-7.344 1.4844s-5.443-.8594-7.422-2.5781c-2.031-1.7709-3.047-4.0886-3.047-6.9531 0-3.1771 1.198-5.6771 3.594-7.5 2.604-1.9792 6.302-2.9428 11.094-2.8907h7.734v-.5469c0-2.8645-.703-4.8958-2.109-6.0937-1.354-1.1979-3.49-1.7969-6.406-1.7969-2.448 0-5.287.4948-8.516 1.4844-.313.1042-.703.1562-1.172.1562-.417 0-.859-.2083-1.328-.625-.469-.4687-.729-1.1718-.781-2.1093 0-.9896.573-1.7188 1.718-2.1875zm2.032 21.4062c0 3.4375 2.265 5.1302 6.797 5.0782 1.979 0 3.828-.4688 5.547-1.4063 1.77-.9896 3.177-2.0833 4.218-3.2813v-5.3906h-6.875c-3.021 0-5.39.3906-7.109 1.1719-1.719.7292-2.578 2.0052-2.578 3.8281zm59.297 5.3906c.416.5209.625 1.1719.625 1.9532 0 .7291-.287 1.3541-.86 1.875-.521.4687-1.12.7031-1.797.7031-1.041 0-1.927-.3906-2.656-1.1719l-11.015-15-5.547 5.0782v8.2031c0 .7812-.287 1.4583-.86 2.0312s-1.25.8594-2.031.8594-1.458-.2865-2.031-.8594-.86-1.25-.86-2.0312v-41.5625c0-.7813.261-1.4584.782-2.03128.573-.57291 1.276-.85937 2.109-.85937.781 0 1.458.28646 2.031.85937.573.57288.86 1.24998.86 2.03128v26.1718l15.234-14.0624c.677-.5209 1.432-.7813 2.266-.7813.885 0 1.51.3125 1.875.9375.416.5729.625 1.0938.625 1.5625 0 .9375-.365 1.7708-1.094 2.5l-9.219 8.2813zm11.797-10c.364 2.8646 1.458 5.1563 3.281 6.875 1.875 1.6667 4.427 2.5 7.656 2.5 3.281 0 6.068-.5208 8.359-1.5624.73-.3646 1.381-.5469 1.954-.5469.572-.0521 1.093.1562 1.562.625.521.4687.781.9896.781 1.5625 0 1.1458-.469 1.9531-1.406 2.4218-.885.4688-1.693.8855-2.422 1.25-.729.3646-1.51.6771-2.344.9376-1.927.5208-4.166.7812-6.718.7812-5.261 0-9.349-1.4583-12.266-4.375-2.865-2.9688-4.297-7.1615-4.297-12.5781 0-4.6875 1.224-8.5938 3.672-11.7188 2.76-3.4896 6.641-5.2343 11.641-5.2343 4.791 0 8.567 1.6145 11.328 4.8437 2.604 3.0208 3.906 6.7969 3.906 11.3281 0 .7813-.286 1.4584-.859 2.0313-.521.5729-1.198.8593-2.032.8593zm9.453-14.1406c-3.802 0-6.563 1.6927-8.282 5.0782-.625 1.1979-1.015 2.6302-1.171 4.2968h18.906c-.156-3.0208-1.276-5.4166-3.36-7.1875-1.666-1.4583-3.698-2.1875-6.093-2.1875zm23.281-1.6406c0-.8854.286-1.5885.859-2.1094.573-.5729 1.276-.8594 2.11-.8594.833 0 1.51.2865 2.031.8594.521.5209.781 1.224.781 2.1094v27.4219c0 .7812-.26 1.4583-.781 2.0312s-1.198.8594-2.031.8594c-.834 0-1.537-.2865-2.11-.8594s-.859-1.25-.859-2.0312zm6.406-12.5781c0 .9375-.312 1.7187-.937 2.3437s-1.407.9375-2.344.9375h-.391c-.937 0-1.718-.3125-2.344-.9375-.572-.625-.859-1.4062-.859-2.3437v-.2344c0-.9375.313-1.7187.938-2.3437s1.38-.93755 2.265-.93755h.391c.937 0 1.719.31255 2.344.93755s.937 1.4062.937 2.3437zm15.547 14.1406c3.177-3.2292 6.823-4.8437 10.937-4.8437 4.167 0 7.709 1.4583 10.626 4.375 3.229 3.2291 4.869 7.4218 4.921 12.5781 0 5.2083-1.64 9.4271-4.921 12.6562-3.021 2.9167-6.589 4.349-10.704 4.2969-4.062 0-7.682-1.6146-10.859-4.8438v1.6407c0 .7812-.286 1.4583-.859 2.0312-.521.5729-1.198.8594-2.032.8594-.833 0-1.536-.2865-2.109-.8594-.521-.5729-.781-1.25-.781-2.0312v-41.5625c0-.8334.26-1.5104.781-2.03128.573-.57291 1.276-.85937 2.109-.85937.834 0 1.511.28646 2.032.85937.573.52088.859 1.19788.859 2.03128zm0 18.8281c2.917 3.2292 6.302 4.8177 10.156 4.7656 4.896 0 8.151-2.1614 9.766-6.4843.521-1.4584.755-3.125.703-5 0-3.6459-.964-6.5104-2.891-8.5938-1.875-1.9271-4.401-2.8906-7.578-2.8906-3.854 0-7.239 1.5885-10.156 4.7656zm48.906-23.6718c4.948 0 8.933 1.5624 11.953 4.6874 3.021 3.1771 4.48 7.2657 4.375 12.2657 0 5.0521-1.458 9.1406-4.375 12.2656-3.02 3.125-7.005 4.6875-11.953 4.6875-5 0-8.958-1.5625-11.875-4.6875-3.021-3.125-4.531-7.2135-4.531-12.2656 0-5.1042 1.51-9.1927 4.531-12.2657 2.917-3.125 6.875-4.6874 11.875-4.6874zm-7.187 26.0156c1.041.8854 2.187 1.5364 3.437 1.9531 1.302.4167 2.552.625 3.75.625s2.422-.2083 3.672-.625 2.396-1.0937 3.438-2.0313c2.291-2.0833 3.437-5.1041 3.437-9.0624 0-3.8542-1.146-6.849-3.437-8.9844-1.927-1.7709-4.297-2.6302-7.11-2.5782-4.635 0-7.838 2.0834-9.609 6.25-.625 1.5105-.938 3.3073-.938 5.3907 0 2.0833.313 3.8802.938 5.3906s1.432 2.7344 2.422 3.6719z"/></g><path d="m115.234 51.625-.392.3105.005.0061zm-.078 3.9062.354.3536zm-4.375-.3124-.394.3078.007.0089.008.0086zm-16.4841-21.0938.3939-.3079-.3498-.4476-.3996.4038zm-7.2657 7.3438-.3554-.3517-.1446.1461v.2056zm-5-29.5313.3536.3536.0077-.0077.0073-.008zm4.0626-.0781-.3536.3535.0077.0077.008.0074zm.9374 22.4218h-.5v1.2194l.8561-.8683zm21.8748-22.1874.356.351.022-.0219.019-.0243zm2.032-1.0157v.5h.014l.015-.0008zm2.109.7031-.354.3536.01.0093.009.0088zm0 3.75-.312-.3904-.022.0169-.019.0191zm-14.7658 14.6876-.3526-.3545-.3165.3148.2772.3501zm16.5658 21.7228c.392.4784.591 1.0419.591 1.7146h1c0-.8897-.271-1.6804-.817-2.3478zm.591 1.7146c0 .5951-.207 1.0934-.635 1.5215l.707.7071c.613-.6135.928-1.3653.928-2.2286zm-.635 1.5215c-.409.4086-.975.6348-1.756.6348v1c.989 0 1.83-.2946 2.463-.9277zm-1.756.6348c-.726 0-1.347-.2902-1.886-.9191l-.759.6507c.711.8294 1.6 1.2684 2.645 1.2684zm-1.872-.9016-16.4842-21.0938-.7879.6158 16.4841 21.0937zm-17.2336-21.1376-7.2656 7.3438.7109.7033 7.2656-7.3437zm-7.4102 7.6955v11.9531h1v-11.9531zm0 11.9531c0 .6432-.2298 1.1946-.7129 1.6777l.7071.7071c.6628-.6628 1.0058-1.4656 1.0058-2.3848zm-.7129 1.6777c-.4762.4762-1.0508.7129-1.7558.7129v1c.9617 0 1.7933-.3362 2.4629-1.0058zm-1.7558.7129c-.6432 0-1.1947-.2299-1.6777-.7129l-.7071.7071c.6628.6628 1.4655 1.0058 2.3848 1.0058zm-1.6777-.7129c-.483-.4831-.7129-1.0345-.7129-1.6777h-1c0 .9192.343 1.722 1.0058 2.3848zm-.7129-1.6777v-39.4531h-1v39.4531zm0-39.4531c0-.6433.2299-1.1947.7129-1.6777l-.7071-.7072c-.6628.6628-1.0058 1.4656-1.0058 2.3849zm.7279-1.6934c.4873-.5316 1.0344-.7754 1.6627-.7754v-1c-.9342 0-1.7412.3812-2.3998 1.0996zm1.6627-.7754c.6432 0 1.1947.2299 1.6777.7129l.7071-.7071c-.6628-.6628-1.4655-1.0058-2.3848-1.0058zm1.6934.728c.5237.48.7753 1.0503.7753 1.7408h1c0-.9763-.3733-1.8123-1.0996-2.478zm.7753 1.7408v20.3124h1v-20.3124zm.8561 20.6635 21.8747-22.1875-.712-.7021-21.8748 22.1875zm21.9157-22.2337c.429-.5576.961-.8205 1.635-.8205v-1c-.994 0-1.815.4143-2.428 1.2108zm1.664-.8213c.774-.0456 1.327.1581 1.726.5575l.707-.7071c-.642-.6423-1.496-.9073-2.492-.8487zm1.745.5756c.396.356.616.8606.616 1.5815h1c0-.9458-.3-1.7433-.947-2.3248zm.616 1.5815c0 .6585-.212 1.1015-.593 1.4064l.624.7809c.661-.5284.969-1.2833.969-2.1873zm-.634 1.4424-14.7654 14.6875.7053.7089 14.7651-14.6875zm-14.8047 15.3524 16.9527 21.4062.784-.6208-16.9528-21.4063zm26.1727-5.5448.19.4629.01-.0044zm11.172-2.2656-.006.5h.006zm10.078 3.9843-.371.335.006.0059zm3.282 8.5938h.5v-.0076zm-.938 20.1562-.338-.3686-.008.0074-.007.0077zm-5-3.6719h.5v-1.246l-.861.9004zm-4.609 3.3594.228.4449.01-.005zm-14.766-1.0937-.328.3769v.0006zm.547-14.4531-.302-.3981-.001.0001zm11.094-2.8907-.006.5h.006zm7.734 0v.5h.5v-.5zm-2.109-6.6406-.331.3746.007.006zm-14.922-.3125-.147-.4782-.011.0039zm-2.5-.4688-.354.3536.011.0104.011.0098zm-.781-2.1093h-.5v.0139l.001.0138zm10.547 24.2969v-.5001l-.006.0001zm5.547-1.4063.239.439.004-.0025zm4.218-3.2813.378.3281.122-.1411v-.187zm0-5.3906h.5v-.5h-.5zm-13.984 1.1719.195.4604.012-.0052zm-4.41-17.1196c3.53-1.5347 7.184-2.2753 10.966-2.2242l.013-.9999c-3.926-.0531-7.72.7168-11.378 2.307zm10.972-2.2241c4.214 0 7.426 1.2897 9.707 3.8192l.743-.6698c-2.51-2.783-6.017-4.1494-10.45-4.1494zm9.713 3.8252c2.042 2.1919 3.096 4.9337 3.147 8.2605l1-.0152c-.054-3.5483-1.187-6.5356-3.416-8.927zm3.147 8.2529v18.125h1v-18.125zm0 18.125c0 .6282-.244 1.1754-.776 1.6626l.676.7372c.719-.6586 1.1-1.4656 1.1-2.3998zm-.791 1.6777c-.477.4762-1.051.7129-1.756.7129v1c.962 0 1.793-.3362 2.463-1.0058zm-1.756.7129c-.643 0-1.195-.2299-1.678-.7129l-.707.7071c.663.6628 1.466 1.0058 2.385 1.0058zm-1.678-.7129c-.483-.4831-.713-1.0345-.713-1.6777h-1c0 .9192.343 1.722 1.006 2.3848zm-.713-1.6777v-1.6407h-1v1.6407zm-.861-1.9863c-1.1 1.1504-2.591 2.2408-4.486 3.2652l.476.8797c1.959-1.059 3.541-2.2082 4.733-3.4536zm-4.477 3.2602c-1.835.9424-4.198 1.4292-7.115 1.4292v1c3.02 0 5.553-.5028 7.572-1.5396zm-7.115 1.4292c-2.865 0-5.218-.8264-7.094-2.4556l-.656.755c2.083 1.8082 4.678 2.7006 7.75 2.7006zm-7.093-2.455c-1.915-1.6693-2.876-3.8458-2.876-6.5762h-1c0 2.9987 1.071 5.4576 3.219 7.33zm-2.876-6.5762c0-3.031 1.133-5.3797 3.397-7.1021l-.606-.7959c-2.528 1.9234-3.791 4.5748-3.791 7.898zm3.397-7.102c2.483-1.887 6.055-2.8401 10.785-2.7887l.011-.9999c-4.853-.0528-8.676.9211-11.401 2.9925zm10.791-2.7887h7.734v-1h-7.734zm8.234-.5v-.5469h-1v.5469zm0-.5469c0-2.9303-.718-5.1393-2.285-6.4743l-.648.7612c1.245 1.0608 1.933 2.9144 1.933 5.7131zm-2.278-6.4682c-1.487-1.3157-3.769-1.9224-6.737-1.9224v1c2.865 0 4.854.5913 6.075 1.6714zm-6.737-1.9224c-2.513 0-5.402.5073-8.662 1.5063l.292.9562c3.199-.9802 5.986-1.4625 8.37-1.4625zm-8.674 1.5101c-.245.0816-.578.1305-1.014.1305v1c.502 0 .95-.0552 1.33-.1819zm-1.014.1305c-.245 0-.574-.1235-.996-.4987l-.664.7475c.515.4581 1.072.7512 1.66.7512zm-.974-.4785c-.352-.3515-.588-.918-.636-1.7836l-.998.0555c.056 1.0095.34 1.8492.926 2.4352zm-.635-1.7558c0-.3908.11-.7098.323-.9802.218-.2774.566-.5324 1.085-.7446l-.379-.9255c-.627.2566-1.138.6006-1.493 1.0523-.36.4588-.536.9992-.536 1.598zm2.75 19.2187c0 1.8384.613 3.2868 1.9 4.2482 1.259.9412 3.088 1.3565 5.402 1.3299l-.011-.9999c-2.217.0255-3.787-.3796-4.793-1.1311-.979-.7313-1.498-1.848-1.498-3.4471zm7.297 5.5782c2.061 0 3.993-.4893 5.786-1.4674l-.479-.8778c-1.644.8969-3.411 1.3452-5.307 1.3452zm5.79-1.4698c1.808-1.0103 3.264-2.138 4.353-3.3897l-.755-.6561c-.995 1.1441-2.352 2.204-4.085 3.1728zm4.475-3.7178v-5.3906h-1v5.3906zm-.5-5.8906h-6.875v1h6.875zm-6.875 0c-3.054 0-5.505.3935-7.316 1.2167l.414.9104c1.626-.7393 3.915-1.1271 6.902-1.1271zm-7.304 1.2116c-.93.3943-1.659.9509-2.153 1.6849-.495.7349-.73 1.6113-.73 2.6035h1c0-.8307.195-1.5037.559-2.0449.365-.542.925-.988 1.714-1.3229zm56.914 9.679-.4.3015.009.0109zm-.235 3.8282.335.3716.002-.0017zm-4.453-.4688-.403.296.018.0237.02.0215zm-11.015-15 .402-.2959-.329-.449-.411.3761zm-5.547 5.0782-.338-.3688-.162.1486v.2202zm-.86 10.2343-.353-.3535zm-4.14-45.62498-.354-.35355-.008.00841-.008.00881zm4.14 0-.353.35358zm.86 28.20308h-.5v1.142l.839-.7745zm15.234-14.0624-.305-.3964-.018.0137-.016.0152zm4.141.1562-.432.2519.012.0218.015.0204zm-.469 4.0625.334.372.01-.009.009-.0094zm-9.219 8.2813-.334-.372-.342.3068.277.3665zm11.172 15.6248c.334.4175.516.9527.516 1.6408h1c0-.8745-.236-1.6413-.735-2.2655zm.516 1.6408c0 .5787-.22 1.0723-.696 1.505l.673.7399c.669-.6089 1.023-1.3654 1.023-2.2449zm-.694 1.5033c-.433.3893-.914.5748-1.463.5748v1c.806 0 1.523-.2833 2.132-.8315zm-1.463.5748c-.899 0-1.653-.3301-2.29-1.013l-.731.6823c.821.8796 1.837 1.3307 3.021 1.3307zm-2.253-.9678-11.016-15-.805.5919 11.015 15zm-11.756-15.0729-5.547 5.0782.675.7375 5.547-5.0781zm-5.709 5.447v8.2031h1v-8.2031zm0 8.2031c0 .6432-.23 1.1946-.713 1.6777l.707.7071c.663-.6628 1.006-1.4656 1.006-2.3848zm-.713 1.6777c-.483.483-1.035.7129-1.678.7129v1c.919 0 1.722-.343 2.385-1.0058zm-1.678.7129c-.643 0-1.195-.2299-1.678-.7129l-.707.7071c.663.6628 1.466 1.0058 2.385 1.0058zm-1.678-.7129c-.483-.4831-.713-1.0345-.713-1.6777h-1c0 .9192.343 1.722 1.006 2.3848zm-.713-1.6777v-41.5625h-1v41.5625zm0-41.5625c0-.6581.215-1.215.652-1.6949l-.74-.67271c-.606.66591-.912 1.46321-.912 2.36761zm.635-1.6777c.476-.47622 1.051-.71295 1.756-.71295v-1c-.962 0-1.793.33619-2.463 1.00582zm1.756-.71295c.643 0 1.195.2299 1.678.71295l.707-.70713c-.663-.6628-1.466-1.00582-2.385-1.00582zm1.678.71295c.483.483.713 1.0344.713 1.6777h1c0-.9193-.343-1.722-1.006-2.38483zm.713 1.6777v26.1718h1v-26.1718zm.839 26.5393 15.234-14.0625-.678-.7349-15.235 14.0625zm15.2-14.0336c.592-.4555 1.241-.6776 1.961-.6776v-1c-.947 0-1.809.2987-2.571.8849zm1.961-.6776c.754 0 1.189.2544 1.443.6894l.864-.5038c-.476-.815-1.291-1.1856-2.307-1.1856zm1.47.7316c.385.5287.53.9469.53 1.2684h1c0-.616-.272-1.2395-.721-1.8566zm.53 1.2684c0 .791-.302 1.5008-.948 2.1464l.707.7072c.813-.8127 1.241-1.7696 1.241-2.8536zm-.928 2.128-9.219 8.2813.668.7439 9.219-8.2812zm-9.284 8.9546 11.563 15.3125.798-.6027-11.563-15.3125zm23.759 5.0111v-.5h-.568l.071.5632zm3.281 6.875-.343.3638.005.0051.006.0049zm16.015.9376.207.4551.009-.0038.008-.0041zm1.954-.5469v.5h.022l.023-.0021zm1.562.625-.354.3535.01.0093.01.0088zm-.625 3.9843-.224-.4473-.01.0055zm-4.766 2.1876.131.4826.009-.0025.01-.0029zm-18.984-3.5938-.36.3472.006.0064zm-.625-24.2969-.392-.3102-.002.0019zm22.969-.3906-.38.3249.001.0016zm3.047 13.3594-.354-.3536-.008.0084-.008.0088zm-22.657-8.2031.444.2312.002-.0049zm-1.171 4.2968-.498-.0466-.052.5466h.55zm18.906 0v.5h.526l-.027-.5258zm-3.36-7.1875-.329.3764.006.0046zm-16.043 12.0163c.377 2.961 1.515 5.3655 3.435 7.1756l.686-.7275c-1.726-1.6274-2.776-3.8062-3.128-6.5744zm3.446 7.1856c1.99 1.7692 4.673 2.6262 7.988 2.6262v-1c-3.143 0-5.564-.8095-7.324-2.3737zm7.988 2.6262c3.332 0 6.193-.5285 8.566-1.6073l-.414-.9103c-2.21 1.0046-4.921 1.5176-8.152 1.5176zm8.583-1.6152c.687-.3436 1.26-.4941 1.73-.4941v-1c-.677 0-1.406.2141-2.177.5996zm1.775-.4962c.401-.0365.782.0989 1.163.4806l.708-.7071c-.556-.5558-1.218-.837-1.962-.7694zm1.183.4987c.44.3968.615.7906.615 1.1909h1c0-.7456-.346-1.3935-.947-1.9342zm.615 1.1909c0 .5046-.103.9019-.284 1.2138-.179.3091-.453.5645-.846.7608l.448.8945c.545-.2725.974-.6551 1.263-1.1532.288-.4955.419-1.0748.419-1.7159zm-1.14 1.98c-.883.4673-1.686.8821-2.411 1.2446l.447.8945c.733-.3667 1.544-.7852 2.432-1.2554zm-2.411 1.2446c-.704.3518-1.46.6545-2.27.9075l.299.9545c.857-.2679 1.663-.5902 2.418-.9675zm-2.251.9021c-1.875.5066-4.069.7639-6.588.7639v1c2.584 0 4.869-.2636 6.849-.7986zm-6.588.7639c-5.166 0-9.114-1.4297-11.912-4.2286l-.708.7072c3.035 3.0344 7.265 4.5214 12.62 4.5214zm-11.906-4.2222c-2.749-2.8492-4.157-6.9019-4.157-12.2309h-1c0 5.5043 1.457 9.837 4.437 12.9253zm-4.157-12.2309c0-4.5968 1.199-8.3887 3.566-11.4104l-.788-.6167c-2.528 3.2282-3.778 7.2488-3.778 12.0271zm3.564-11.4086c2.653-3.3538 6.38-5.0445 11.249-5.0445v-1c-5.132 0-9.165 1.7988-12.033 5.4241zm11.249-5.0445c4.666 0 8.295 1.5655 10.948 4.6686l.76-.6498c-2.868-3.3553-6.791-5.0188-11.708-5.0188zm10.949 4.6702c2.515 2.9177 3.785 6.5728 3.785 11.0016h1c0-4.6337-1.334-8.5306-4.028-11.6546zm3.785 11.0016c0 .6433-.23 1.1947-.713 1.6777l.707.7071c.663-.6628 1.006-1.4655 1.006-2.3848zm-.729 1.6949c-.419.4601-.957.6957-1.662.6957v1c.963 0 1.778-.3372 2.402-1.023zm-1.662.6957h-21.796v1h21.796zm-12.343-14.1406c-1.977 0-3.712.4409-5.184 1.3433-1.471.9025-2.65 2.2478-3.543 4.0085l.891.4527c.825-1.6247 1.886-2.8185 3.175-3.6087 1.289-.7903 2.836-1.1958 4.661-1.1958zm-8.725 5.3469c-.661 1.2672-1.065 2.7652-1.226 4.4815l.995.0933c.152-1.6171.529-2.9837 1.118-4.1123zm-.728 5.0281h18.906v-1h-18.906zm19.405-.5258c-.162-3.1422-1.335-5.6727-3.535-7.5426l-.647.7619c1.966 1.6717 3.033 3.9328 3.183 6.8324zm-3.529-7.538c-1.766-1.5448-3.917-2.3112-6.423-2.3112v1c2.285 0 4.196.692 5.764 2.0638zm17.717-5.5612.337.37.008-.008.009-.0084zm4.141 0-.37.3364.008.0088.008.0084zm0 31.5625.37.3364zm-4.61-39.6875-.368.3379.007.008.008.0077zm.11 10.2344c0-.7669.242-1.3274.696-1.7394l-.673-.7399c-.693.6296-1.023 1.4753-1.023 2.4793zm.713-1.7558c.476-.4762 1.051-.713 1.756-.713v-1c-.962 0-1.794.3362-2.463 1.0059zm1.756-.713c.704 0 1.243.2357 1.661.6958l.74-.6727c-.624-.6858-1.439-1.0231-2.401-1.0231zm1.677.713c.409.4086.635.9743.635 1.7558h1c0-.9894-.294-1.8298-.928-2.4629zm.635 1.7558v27.4219h1v-27.4219zm0 27.4219c0 .6581-.215 1.2149-.651 1.6949l.74.6727c.605-.6659.911-1.4632.911-2.3676zm-.651 1.6949c-.418.4601-.957.6957-1.661.6957v1c.962 0 1.777-.3373 2.401-1.023zm-1.661.6957c-.705 0-1.28-.2367-1.756-.7129l-.707.7071c.669.6696 1.501 1.0058 2.463 1.0058zm-1.756-.7129c-.483-.4831-.713-1.0345-.713-1.6777h-1c0 .9192.343 1.722 1.006 2.3848zm-.713-1.6777v-27.4219h-1v27.4219zm5.406-40c0 .8138-.266 1.4651-.791 1.9902l.707.7071c.725-.7249 1.084-1.6361 1.084-2.6973zm-.791 1.9902c-.525.5251-1.176.791-1.99.791v1c1.061 0 1.972-.359 2.697-1.0839zm-1.99.791h-.391v1h.391zm-.391 0c-.814 0-1.465-.2659-1.99-.791l-.707.7071c.725.7249 1.636 1.0839 2.697 1.0839zm-1.975-.7753c-.479-.5228-.728-1.1792-.728-2.0059h-1c0 1.0483.324 1.9543.991 2.6816zm-.728-2.0059v-.2344h-1v.2344zm0-.2344c0-.8138.266-1.4651.791-1.9902l-.707-.7071c-.725.7249-1.084 1.6361-1.084 2.6973zm.791-1.9902c.531-.531 1.159-.7911 1.912-.7911v-.99995c-1.018 0-1.9.365-2.619 1.08395zm1.912-.7911h.391v-.99995h-.391zm.391 0c.814 0 1.465.266 1.99.7911l.707-.7071c-.725-.7249-1.636-1.08395-2.697-1.08395zm1.99.7911c.525.5251.791 1.1764.791 1.9902h1c0-1.0612-.359-1.9724-1.084-2.6973zm.791 1.9902v.2344h1v-.2344zm16.047 14.375h-.5v1.2211l.856-.8704zm26.484 12.1094h.5v-.0051zm-4.921 12.6562.347.3597.003-.0033zm-10.704 4.2969.007-.5h-.007zm-10.859-4.8438.356-.3506-.856-.8705v1.2211zm-.859 3.6719-.354-.3535-.008.0084-.008.0088zm-4.141 0-.37.3364.008.0088.008.0084zm0-45.62498.354.35358zm4.141 0-.37.33638.016.0176.017.016zm.859 36.56248h-.5v.1924l.129.1428zm10.156 4.7656v-.5l-.007.0001zm9.766-6.4843.468.1749.003-.0068zm.703-5h-.5v.0139zm-2.891-8.5938.368-.3396-.009-.0091zm-17.734 1.875-.368-.3381-.132.1434v.1947zm.356-5.0399c3.094-3.1443 6.615-4.6944 10.581-4.6944v-1c-4.262 0-8.033 1.679-11.293 4.993zm10.581-4.6944c4.036 0 7.45 1.4067 10.272 4.2285l.707-.7071c-3.011-3.0115-6.681-4.5214-10.979-4.5214zm10.272 4.2285c3.124 3.1244 4.724 7.1859 4.775 12.2296l1-.0101c-.053-5.2687-1.734-9.5927-5.068-12.9266zm4.775 12.2246c0 5.0935-1.599 9.1774-4.772 12.2999l.701.7127c3.39-3.3358 5.071-7.6895 5.071-13.0126zm-4.769 12.2965c-2.928 2.8273-6.369 4.207-10.349 4.1566l-.013 1c4.249.0537 7.943-1.4311 11.057-4.4372zm-10.356 4.1566c-3.912 0-7.408-1.5487-10.503-4.6944l-.712.7013c3.259 3.3127 7.003 4.9931 11.215 4.9931zm-11.359-4.3438v1.6407h1v-1.6407zm0 1.6407c0 .6432-.23 1.1946-.713 1.6777l.707.7071c.663-.6628 1.006-1.4656 1.006-2.3848zm-.729 1.6949c-.419.4601-.957.6957-1.662.6957v1c.963 0 1.778-.3373 2.402-1.023zm-1.662.6957c-.705 0-1.279-.2367-1.755-.7129l-.708.7071c.67.6696 1.502 1.0058 2.463 1.0058zm-1.739-.6957c-.436-.48-.651-1.0368-.651-1.6949h-1c0 .9044.306 1.7017.911 2.3676zm-.651-1.6949v-41.5625h-1v41.5625zm0-41.5625c0-.7197.22-1.2633.635-1.6777l-.708-.70713c-.627.62723-.927 1.43783-.927 2.38483zm.635-1.6777c.476-.47622 1.05-.71295 1.755-.71295v-1c-.961 0-1.793.33619-2.463 1.00582zm1.755-.71295c.705 0 1.243.23564 1.662.69575l.74-.67271c-.624-.68576-1.439-1.02304-2.402-1.02304zm1.695.72935c.46.4182.696.9568.696 1.6613h1c0-.9622-.337-1.7778-1.023-2.40125zm.696 1.6613v15.7031h1v-15.7031zm.129 34.8664c2.999 3.3205 6.517 4.9847 10.534 4.9304l-.014-.9999c-3.69.0499-6.944-1.463-9.778-4.6008zm10.527 4.9304c2.522 0 4.662-.557 6.39-1.7045 1.731-1.149 3.007-2.8631 3.844-5.1049l-.937-.3499c-.777 2.0811-1.935 3.6093-3.46 4.6217-1.527 1.014-3.462 1.5376-5.837 1.5376zm10.237-6.8162c.545-1.5276.785-3.2578.732-5.182l-1 .0278c.051 1.8257-.178 3.4288-.674 4.8179zm.732-5.1681c0-3.7347-.989-6.7335-3.024-8.9333l-.734.679c1.82 1.967 2.758 4.6973 2.758 8.2543zm-3.032-8.9425c-1.986-2.0412-4.651-3.0419-7.937-3.0419v1c3.069 0 5.456.9264 7.22 2.7393zm-7.937-3.0419c-4.011 0-7.525 1.6609-10.524 4.9275l.736.6763c2.835-3.0876 6.092-4.6038 9.788-4.6038zm-10.656 5.2656v13.4375h1v-13.4375zm61.359-5.5469.363-.3445-.003-.003zm4.375 12.2657-.5-.0104v.0104zm-4.375 12.2656.36.3476.006-.0064zm-23.828 0 .366-.3412-.006-.0063zm0-24.5313.357.3507.009-.0095zm4.688 21.3282-.344.363.01.0092.01.0087zm3.437 1.9531-.158.4744.006.0018zm7.422 0-.158-.4743zm3.438-2.0313.334.3717.002-.0017zm0-18.0468.34-.3658-.002-.0024zm-7.11-2.5782v.5001l.01-.0001zm-9.609 6.25-.46-.1955-.002.0044zm0 10.7813-.462.1912zm9.609-21.8437c4.833 0 8.681 1.5212 11.594 4.535l.719-.6951c-3.129-3.2362-7.25-4.8399-12.313-4.8399zm11.591 4.532c2.917 3.0678 4.339 7.0223 4.237 11.9107l1 .0208c.107-5.1117-1.388-9.3343-4.512-12.6206zm4.237 11.9211c0 4.9499-1.425 8.9085-4.24 11.9244l.731.6824c3.018-3.2341 4.509-7.4526 4.509-12.6068zm-4.234 11.9181c-2.913 3.0137-6.761 4.535-11.594 4.535v1c5.063 0 9.184-1.6037 12.313-4.84zm-11.594 4.535c-4.887 0-8.703-1.5223-11.509-4.5287l-.731.6824c3.027 3.2436 7.127 4.8463 12.24 4.8463zm-11.515-4.535c-2.916-3.0167-4.391-6.9731-4.391-11.9181h-1c0 5.1591 1.546 9.3798 4.672 12.6131zm-4.391-11.9181c0-4.999 1.476-8.9527 4.388-11.9151l-.713-.7011c-3.13 3.1835-4.675 7.4068-4.675 12.6162zm4.397-11.9245c2.806-3.0063 6.622-4.5286 11.509-4.5286v-1c-5.113 0-9.213 1.6026-12.24 4.8463zm3.998 21.3679c1.088.9253 2.29 1.6089 3.603 2.0465l.316-.9486c-1.187-.3957-2.277-1.0142-3.271-1.8598zm3.609 2.0484c1.344.4303 2.646.6488 3.902.6488v-1c-1.139 0-2.338-.1981-3.597-.6012zm3.902.6488c1.257 0 2.534-.2187 3.83-.6507l-.316-.9486c-1.204.4013-2.375.5993-3.514.5993zm3.83-.6507c1.32-.4397 2.525-1.1534 3.614-2.1339l-.669-.7433c-.994.8945-2.08 1.535-3.261 1.9286zm3.616-2.1356c2.423-2.2029 3.601-5.3749 3.601-9.4324h-1c0 3.8591-1.114 6.7287-3.274 8.6925zm3.601-9.4324c0-3.9586-1.181-7.0991-3.597-9.3502l-.681.7316c2.167 2.0197 3.278 4.8688 3.278 8.6186zm-3.599-9.3526c-2.029-1.8647-4.527-2.7641-7.457-2.7099l.019.9999c2.694-.0499 4.936.7693 6.761 2.4463zm-7.448-2.71c-2.393 0-4.453.5387-6.151 1.6434-1.7 1.1053-3.001 2.7535-3.918 4.9111l.92.3911c.854-2.009 2.039-3.4858 3.543-4.4639 1.505-.9786 3.365-1.4817 5.606-1.4817zm-10.071 6.5589c-.656 1.5852-.976 3.4501-.976 5.5818h1c0-2.035.306-3.7638.9-5.1995zm-.976 5.5818c0 2.1316.32 3.9966.976 5.5818l.924-.3824c-.594-1.4356-.9-3.1644-.9-5.1994zm.976 5.5818c.646 1.5626 1.49 2.8492 2.54 3.8437l.688-.726c-.93-.8805-1.701-2.0419-2.304-3.5001z" fill="#000"/></svg>